<svg width="311" height="60" viewBox="0 0 311 60" fill="none" xmlns="http://www.w3.org/2000/svg">
<path d="M20.3127 47.585C16.4322 47.585 12.9611 46.7075 9.89952 44.9525C6.83796 43.1974 4.41991 40.6526 2.64537 37.318C0.890332 33.9835 0.0128133 29.9566 0.0128133 25.2375C0.0128133 20.4794 0.900082 16.4331 2.67462 13.0985C4.46866 9.76397 6.89646 7.21916 9.95802 5.46413C13.0391 3.70909 16.4907 2.83157 20.3127 2.83157C23.6863 2.83157 26.7186 3.45559 29.4097 4.70361C32.1202 5.95164 34.3335 7.75543 36.0496 10.115C37.7656 12.4745 38.8186 15.3313 39.2086 18.6854H29.9069C29.5559 16.2869 28.5322 14.4051 26.8356 13.04C25.1391 11.6555 23.033 10.9632 20.5175 10.9632C17.1634 10.9632 14.4626 12.2113 12.4151 14.7073C10.3675 17.1839 9.34376 20.6939 9.34376 25.2375C9.34376 29.8786 10.3675 33.4082 12.4151 35.8263C14.4821 38.2443 17.1732 39.4533 20.4882 39.4533C22.9258 39.4533 24.9928 38.8098 26.6894 37.5228C28.4054 36.2358 29.4779 34.432 29.9069 32.1114H39.2086C38.8771 34.783 37.9216 37.2985 36.3421 39.6581C34.782 42.0176 32.6467 43.9287 29.9362 45.3912C27.2451 46.8537 24.0373 47.585 20.3127 47.585ZM45.673 47V14.2978H54.7407V47H45.673ZM50.2069 10.115C48.8613 10.115 47.7011 9.66647 46.726 8.76945C45.7705 7.87243 45.2928 6.79016 45.2928 5.52263C45.2928 4.2551 45.7705 3.18258 46.726 2.30506C47.7011 1.40804 48.8613 0.959533 50.2069 0.959533C51.5524 0.959533 52.7029 1.40804 53.6584 2.30506C54.6335 3.18258 55.121 4.2551 55.121 5.52263C55.121 6.79016 54.6335 7.87243 53.6584 8.76945C52.7029 9.66647 51.5524 10.115 50.2069 10.115ZM71.0626 28.1041V47H61.9949V14.2978H70.9163V20.1187H71.2381C71.9791 18.2076 73.1588 16.6964 74.7774 15.5848C76.3959 14.4538 78.4142 13.8883 80.8323 13.8883C84.2448 13.8883 86.9749 14.9901 89.0224 17.1936C91.0895 19.3777 92.123 22.3807 92.123 26.2028V47H83.0553V27.8116C83.0553 25.8031 82.5385 24.2333 81.505 23.1022C80.491 21.9712 79.0772 21.4057 77.2637 21.4057C75.4306 21.4057 73.9389 22.0005 72.7883 23.19C71.6378 24.36 71.0626 25.9981 71.0626 28.1041ZM114.266 47.6435C110.912 47.6435 108.026 46.961 105.608 45.596C103.189 44.2309 101.327 42.2907 100.021 39.7751C98.7141 37.24 98.0609 34.2467 98.0609 30.7952C98.0609 27.4411 98.7044 24.4965 99.9914 21.9615C101.298 19.4264 103.131 17.4471 105.491 16.0236C107.85 14.6001 110.629 13.8883 113.827 13.8883C116.713 13.8883 119.316 14.5026 121.637 15.7311C123.977 16.9596 125.829 18.8024 127.194 21.2595C128.579 23.7165 129.271 26.7976 129.271 30.5027V32.9597H106.982C107.08 35.4363 107.801 37.3765 109.147 38.7806C110.492 40.1846 112.247 40.8866 114.412 40.8866C115.913 40.8866 117.201 40.5649 118.273 39.9214C119.365 39.2778 120.145 38.3418 120.613 37.1133L128.979 37.6691C128.335 40.6721 126.726 43.0902 124.152 44.9232C121.598 46.7367 118.302 47.6435 114.266 47.6435ZM107.041 27.3728H120.584C120.369 25.3058 119.706 23.6678 118.595 22.4587C117.483 21.2497 115.923 20.6452 113.915 20.6452C111.887 20.6452 110.278 21.279 109.088 22.5465C107.918 23.7945 107.236 25.4033 107.041 27.3728Z" fill="white"/>
<path d="M135.238 59.2268V14.2978H144.16V19.8262H144.569C144.979 18.9292 145.554 18.0224 146.295 17.1059C147.056 16.1894 148.05 15.4288 149.279 14.8243C150.527 14.2003 152.058 13.8883 153.871 13.8883C156.27 13.8883 158.463 14.5123 160.452 15.7603C162.461 16.9889 164.07 18.8512 165.279 21.3472C166.488 23.8433 167.092 26.9633 167.092 30.7074C167.092 34.3345 166.507 37.4058 165.337 39.9214C164.167 42.4174 162.578 44.3089 160.569 45.596C158.561 46.883 156.309 47.5265 153.813 47.5265C152.058 47.5265 150.566 47.234 149.337 46.649C148.128 46.064 147.134 45.3327 146.354 44.4552C145.593 43.5582 144.998 42.6612 144.569 41.7641H144.306V59.2268H135.238ZM144.101 30.6782C144.101 33.5642 144.696 35.8945 145.886 37.6691C147.095 39.4436 148.791 40.3309 150.975 40.3309C153.198 40.3309 154.895 39.4338 156.065 37.6398C157.235 35.8263 157.82 33.5057 157.82 30.6782C157.82 27.8311 157.235 25.5203 156.065 23.7458C154.914 21.9712 153.218 21.084 150.975 21.084C148.791 21.084 147.095 21.9517 145.886 23.6873C144.696 25.4228 144.101 27.7531 144.101 30.6782ZM182.361 47.6143C179.241 47.6143 176.648 46.805 174.58 45.1865C172.533 43.5484 171.509 41.1109 171.509 37.8738C171.509 35.4363 172.075 33.5252 173.206 32.1407C174.356 30.7367 175.868 29.7129 177.74 29.0694C179.612 28.4064 181.62 27.9774 183.765 27.7823C186.612 27.5093 188.64 27.2266 189.849 26.9341C191.078 26.6221 191.692 25.9396 191.692 24.8865V24.7403C191.692 23.3948 191.263 22.3515 190.405 21.6105C189.547 20.8695 188.309 20.4989 186.69 20.4989C185.072 20.4989 183.746 20.85 182.712 21.552C181.698 22.254 181.025 23.151 180.694 24.243L172.445 22.9267C173.225 20.0797 174.863 17.8664 177.359 16.2869C179.875 14.6878 182.995 13.8883 186.719 13.8883C189.138 13.8883 191.409 14.2686 193.535 15.0291C195.68 15.7896 197.415 16.9889 198.741 18.6269C200.068 20.2454 200.731 22.3515 200.731 24.945V47H192.16V42.4369H191.897C191.097 43.9774 189.908 45.2255 188.328 46.181C186.768 47.1365 184.779 47.6143 182.361 47.6143ZM180.138 37.5813C180.138 38.8293 180.587 39.7751 181.484 40.4186C182.4 41.0426 183.551 41.3546 184.935 41.3546C186.924 41.3546 188.553 40.7794 189.82 39.6288C191.107 38.4783 191.751 37.045 191.751 35.329V31.8482C191.4 32.0822 190.844 32.2967 190.083 32.4917C189.342 32.6867 188.553 32.8525 187.714 32.989C186.875 33.106 186.125 33.2132 185.462 33.3107C183.863 33.5447 182.576 34.003 181.601 34.6855C180.626 35.3485 180.138 36.3138 180.138 37.5813ZM217.082 28.1041V47H208.014V14.2978H216.935V20.1187H217.257C217.998 18.2076 219.178 16.6964 220.796 15.5848C222.415 14.4538 224.433 13.8883 226.851 13.8883C230.264 13.8883 232.994 14.9901 235.041 17.1936C237.109 19.3777 238.142 22.3807 238.142 26.2028V47H229.074V27.8116C229.074 25.8031 228.558 24.2333 227.524 23.1022C226.51 21.9712 225.096 21.4057 223.283 21.4057C221.45 21.4057 219.958 22.0005 218.807 23.19C217.657 24.36 217.082 25.9981 217.082 28.1041ZM257.36 47.5265C254.864 47.5265 252.611 46.883 250.603 45.596C248.594 44.3089 247.005 42.4174 245.835 39.9214C244.665 37.4058 244.08 34.3345 244.08 30.7074C244.08 26.9633 244.684 23.8433 245.893 21.3472C247.102 18.8512 248.711 16.9889 250.72 15.7603C252.728 14.5123 254.922 13.8883 257.301 13.8883C259.134 13.8883 260.665 14.2003 261.894 14.8243C263.122 15.4288 264.117 16.1894 264.877 17.1059C265.638 18.0224 266.213 18.9292 266.603 19.8262H266.866V3.41658H275.934V47H267.012V41.7641H266.603C266.193 42.6612 265.599 43.5582 264.819 44.4552C264.039 45.3327 263.034 46.064 261.806 46.649C260.597 47.234 259.115 47.5265 257.36 47.5265ZM267.071 30.6782C267.071 27.7531 266.476 25.4228 265.287 23.6873C264.097 21.9517 262.401 21.084 260.197 21.084C257.954 21.084 256.248 21.9712 255.078 23.7458C253.928 25.5203 253.352 27.8311 253.352 30.6782C253.352 33.5057 253.937 35.8263 255.107 37.6398C256.277 39.4338 257.974 40.3309 260.197 40.3309C262.381 40.3309 264.068 39.4436 265.257 37.6691C266.466 35.8945 267.071 33.5642 267.071 30.6782ZM292.519 47.6143C289.399 47.6143 286.805 46.805 284.738 45.1865C282.691 43.5484 281.667 41.1109 281.667 37.8738C281.667 35.4363 282.232 33.5252 283.364 32.1407C284.514 30.7367 286.025 29.7129 287.897 29.0694C289.769 28.4064 291.778 27.9774 293.923 27.7823C296.77 27.5093 298.798 27.2266 300.007 26.9341C301.236 26.6221 301.85 25.9396 301.85 24.8865V24.7403C301.85 23.3948 301.421 22.3515 300.563 21.6105C299.705 20.8695 298.467 20.4989 296.848 20.4989C295.23 20.4989 293.903 20.85 292.87 21.552C291.856 22.254 291.183 23.151 290.852 24.243L282.603 22.9267C283.383 20.0797 285.021 17.8664 287.517 16.2869C290.033 14.6878 293.153 13.8883 296.877 13.8883C299.295 13.8883 301.567 14.2686 303.693 15.0291C305.838 15.7896 307.573 16.9889 308.899 18.6269C310.225 20.2454 310.888 22.3515 310.888 24.945V47H302.318V42.4369H302.055C301.255 43.9774 300.066 45.2255 298.486 46.181C296.926 47.1365 294.937 47.6143 292.519 47.6143ZM290.296 37.5813C290.296 38.8293 290.744 39.7751 291.641 40.4186C292.558 41.0426 293.708 41.3546 295.093 41.3546C297.082 41.3546 298.71 40.7794 299.978 39.6288C301.265 38.4783 301.908 37.045 301.908 35.329V31.8482C301.557 32.0822 301.002 32.2967 300.241 32.4917C299.5 32.6867 298.71 32.8525 297.872 32.989C297.033 33.106 296.283 33.2132 295.62 33.3107C294.02 33.5447 292.733 34.003 291.758 34.6855C290.783 35.3485 290.296 36.3138 290.296 37.5813Z" fill="#FCA311"/>
</svg>
