<svg width="2922" height="3044" viewBox="0 0 2922 3044" fill="none" xmlns="http://www.w3.org/2000/svg">
<circle cx="1461" cy="1583" r="1461" fill="#FCA311"/>
<path d="M2131.95 1949.64C2131.95 1949.64 2132.64 2003.24 2128.1 2068.52C2126.77 2087.88 2124.94 2108.25 2122.55 2128.56C2118.82 2160.09 2113.59 2191.5 2106.28 2218.56C2103.44 2229.16 2100.29 2239.12 2096.76 2248.14C2096.76 2248.14 2200.88 2602.76 2168.46 2816.68C2168.46 2816.68 2219.8 2829.99 2247.92 2884.93C2251.83 2892.43 2255.31 2900.75 2258.08 2909.97C2273.97 2961.87 2235 3014.4 2180.63 3014.4H1825.13C1792.46 3014.4 1680.33 2969.81 1722.46 2768.95C1722.46 2768.95 1730.59 2641.43 1625.14 2552.19L1603.39 2555.53C1552.81 2563.35 1501.34 2563.6 1450.7 2556.29L1422.45 2552.19C1317.07 2641.43 1325.14 2768.95 1325.14 2768.95C1334.6 2850.43 1339.77 3014.4 1222.46 3014.4H866.958C812.654 3014.4 773.687 2961.86 789.514 2909.97C793.545 2896.91 798.785 2885.56 804.842 2875.79C833.596 2828.49 879.195 2816.69 879.195 2816.69C846.784 2602.77 950.9 2248.15 950.9 2248.15C947.368 2239.13 944.22 2229.17 941.38 2218.57C934.124 2191.45 928.893 2160.11 925.111 2128.57C923.278 2113.37 921.829 2098.18 920.629 2083.36C914.89 2011.58 915.648 1949.66 915.648 1949.66C729.163 2206.53 489.948 2154.88 489.948 2154.88C483.575 1368.38 1523.79 1412.96 1523.79 1412.96C1523.79 1412.96 2566.85 1392.72 2629.03 2128.27C2629.03 2128.27 2430.38 2213.22 2131.95 1949.66V1949.64Z" fill="white"/>
<path d="M2131.96 1949.65C2131.96 1949.65 2132.65 2003.25 2128.11 2068.53C2128.11 2068.53 2042.56 2197.67 1498.78 2197.67C1009.61 2197.67 920.648 2083.35 920.648 2083.35C914.908 2011.57 915.666 1949.65 915.666 1949.65C729.182 2206.51 489.967 2154.87 489.967 2154.87C483.594 1368.37 1523.81 1412.96 1523.81 1412.96C1523.81 1412.96 2566.87 1392.72 2629.05 2128.26C2629.05 2128.26 2430.4 2213.21 2131.96 1949.66V1949.65Z" fill="#35313F"/>
<g opacity="0.6">
<path d="M2629.04 2128.24C2629.04 2128.24 2626.46 2129.38 2621.41 2130.89C2508.58 1457.22 1523.8 1476.32 1523.8 1476.32C1523.8 1476.32 540.028 1434.13 491.78 2155.23C490.581 2154.98 489.947 2154.86 489.947 2154.86C483.574 1368.36 1523.79 1412.94 1523.79 1412.94C1523.79 1412.94 2566.85 1392.7 2629.03 2128.24H2629.04Z" fill="white"/>
</g>
<path d="M1325.16 2773.87C1334.62 2853.72 1335.71 3022.35 1222.48 3014.41H866.978C812.674 3014.41 773.707 2962.92 789.533 2912.07C812.808 2837.53 879.215 2820.66 879.215 2820.66C846.794 2611.02 950.92 2263.51 950.92 2263.51C1068.29 2489.75 1442.48 2542.94 1442.48 2542.94C1337.1 2630.4 1325.16 2773.88 1325.16 2773.88V2773.87Z" fill="#35313F"/>
<path d="M2180.64 3014.41H1825.14C1792.47 3014.41 1686.41 3004.47 1722.47 2773.87C1722.47 2773.87 1711.77 2626.42 1606.33 2538.96C1606.33 2538.96 1878.05 2520.41 2096.77 2263.5C2096.77 2263.5 2200.89 2611.01 2168.47 2820.65C2168.47 2820.65 2234.88 2837.52 2258.09 2912.06C2273.98 2962.92 2235.01 3014.4 2180.64 3014.4V3014.41Z" fill="#35313F"/>
<path d="M2180.65 3030.75H1825.14C1807 3030.75 1767.97 3020.49 1736.71 2982.03C1709.3 2948.24 1681.78 2883.26 1706.49 2765.6H1706.44C1706.29 2765.6 1711.5 2651.41 1620.16 2569.49L1605.87 2571.69C1553.71 2579.8 1500.71 2580.06 1448.36 2572.47L1427.55 2569.45C1335.75 2651.78 1341.41 2766.77 1341.46 2767.94C1350.13 2842.38 1350.7 2943.26 1303.69 2996.05C1283.16 3019.08 1255.84 3030.75 1222.47 3030.75H866.958C835.842 3030.75 807.347 3016.37 788.784 2991.32C770.222 2966.29 764.838 2934.92 773.879 2905.18C792.998 2842.64 838.175 2815.78 861.19 2805.85C836.025 2602.22 920.61 2294.63 933.74 2248.84C930.745 2240.73 928.067 2232.02 925.582 2222.83C918.786 2197.29 913.162 2166.26 908.901 2130.51C907.029 2115.1 905.57 2099.67 904.351 2084.63C901.731 2051.62 900.416 2020.47 899.802 1996.41C713.989 2216.78 488.854 2171.4 486.503 2170.84C479.055 2169.23 473.661 2162.64 473.613 2155C472.019 1955.34 536.833 1790.66 666.365 1665.57C966.017 1376.16 1502 1395.69 1524.49 1396.63C1535.04 1395.97 2582.59 1384.74 2645.34 2126.88C2645.91 2133.91 2641.96 2140.52 2635.45 2143.3C2627.25 2146.8 2435.86 2224.45 2148.07 1985C2147.65 2006.86 2146.71 2036.92 2144.41 2069.66C2143.1 2089.27 2141.23 2109.91 2138.74 2130.51C2134.57 2166.24 2128.94 2197.31 2122.06 2222.83C2119.62 2231.97 2116.91 2240.71 2113.95 2248.82C2127.02 2294.52 2211.66 2602.2 2186.45 2805.85C2209.46 2815.81 2254.63 2842.64 2273.71 2905.18C2282.8 2934.84 2277.42 2966.24 2258.95 2991.24C2240.39 3016.34 2211.86 3030.74 2180.64 3030.74L2180.65 3030.75ZM1625.17 2535.82C1629.01 2535.82 1632.76 2537.18 1635.72 2539.68C1746.18 2633.17 1739.15 2764.44 1738.77 2770C1716.42 2877.39 1739.15 2933.13 1762.11 2961.42C1783.77 2988.11 1812.26 2998.04 1825.14 2998.04H2180.65C2201.37 2998.04 2220.35 2988.48 2232.67 2971.82C2244.9 2955.23 2248.47 2934.43 2242.43 2914.76C2222.37 2848.88 2166.64 2833.13 2164.3 2832.49C2156.24 2830.31 2151.04 2822.44 2152.3 2814.22C2183.79 2606.4 2082.1 2256.25 2081.07 2252.76C2080.08 2249.29 2080.22 2245.56 2081.54 2242.21C2084.82 2233.71 2087.81 2224.33 2090.49 2214.38C2096.96 2190.33 2102.3 2160.83 2106.29 2126.67C2108.73 2106.59 2110.5 2086.5 2111.82 2067.43C2116.27 2003.61 2115.62 1950.39 2115.62 1949.85C2115.52 1943.38 2119.28 1937.48 2125.13 1934.78C2131.03 1932.09 2137.97 1933.09 2142.8 1937.38C2389.64 2155.4 2566.54 2128.64 2611.58 2116.69C2540.21 1418.25 1533.71 1428.54 1524.15 1429.31C1517.5 1428.87 978.465 1409.46 689.025 1689.17C569.245 1804.9 507.8 1956.83 506.351 2140.91C557.334 2147.32 746.996 2154.13 902.451 1940.03C906.664 1934.25 914.122 1931.87 920.821 1934.13C927.568 1936.36 932.118 1942.73 932.022 1949.83C932.022 1950.47 931.369 2011.9 936.993 2082.03C938.116 2096.68 939.575 2111.62 941.351 2126.62C945.478 2160.83 950.814 2190.36 957.187 2214.38C959.855 2224.26 962.811 2233.66 966.19 2242.14C967.505 2245.52 967.687 2249.26 966.66 2252.76C965.633 2256.25 863.935 2606.4 895.377 2814.24C896.644 2822.51 891.442 2830.41 883.332 2832.49C881.038 2833.13 825.314 2848.88 805.206 2914.74C799.16 2934.42 802.768 2955.25 815.092 2971.86C827.367 2988.49 846.304 2998.03 866.968 2998.03H1222.48C1246.47 2998.03 1265.04 2990.28 1279.28 2974.3C1320.28 2928.23 1315.46 2827.05 1308.9 2770.84C1308.48 2764.43 1301.54 2633.17 1411.95 2539.68C1415.51 2536.64 1420.19 2535.37 1424.84 2535.98L1453.05 2540.08C1502.11 2547.2 1551.84 2547.02 1600.9 2539.35L1622.7 2536C1623.54 2535.88 1624.34 2535.81 1625.18 2535.81L1625.17 2535.82Z" fill="#1C1C25"/>
<path d="M2363.47 1976.5C2363.47 1976.5 2341.18 1964.34 2312.8 1935.96C2284.41 1907.58 2227.65 1925.83 2215.49 1976.5C2203.33 2027.18 2262.12 2077.86 2318.88 2094.08C2318.88 2094.08 2306.6 2226.91 2445.24 2245.43C2581.73 2263.68 2659.44 2126.51 2659.44 2126.51C2659.44 2126.51 2740.52 2124.48 2744.58 2057.59C2748.63 1990.69 2704.04 1980.55 2665.52 1984.6C2665.52 1984.6 2708.09 1907.57 2647.28 1865.01C2586.47 1822.44 2549.98 1891.36 2549.98 1891.36C2549.98 1891.36 2531.73 1808.25 2462.81 1826.49C2393.89 1844.74 2448.62 1940.01 2363.48 1976.49L2363.47 1976.5Z" fill="white"/>
<path d="M2470.55 2263.52C2461.65 2263.52 2452.51 2262.91 2443.1 2261.66C2318.07 2244.93 2303.49 2142.93 2302.41 2105.96C2240.64 2083.82 2186 2029.36 2199.59 1972.7C2207.04 1941.7 2229.81 1917.31 2259.01 1909.09C2283.33 1902.23 2307.89 1907.92 2324.39 1924.39C2341.49 1941.54 2356.3 1952.41 2364.51 1957.89C2394.13 1941.93 2398.68 1916.6 2403.88 1887.65C2409.13 1858.43 2415.65 1822.09 2458.62 1810.69C2481.25 1804.69 2501.97 1807.18 2519.96 1818.14C2536.74 1828.38 2547.89 1844.36 2555.02 1858.47C2564.34 1849.38 2576.95 1840.46 2592.6 1836.67C2613.5 1831.57 2635.19 1836.56 2656.67 1851.6C2701.94 1883.33 2700.95 1933.03 2690.12 1967.96C2710.28 1969.67 2726.82 1976.42 2738.86 1987.93C2755.36 2003.74 2762.81 2027.51 2760.89 2058.57C2757.33 2117.83 2703.52 2138.5 2668.94 2142.23C2650.85 2170.25 2582.29 2263.49 2470.56 2263.52H2470.55ZM2279.17 1938.93C2275.51 1938.93 2271.72 1939.47 2267.87 1940.54C2253.9 1944.48 2236.98 1956.99 2231.36 1980.32C2221.9 2019.88 2272.23 2063.74 2323.35 2078.34C2330.85 2080.5 2335.82 2087.71 2335.16 2095.52C2334.74 2100.32 2326.4 2213.05 2447.4 2229.22C2571.77 2245.84 2644.46 2119.7 2645.16 2118.44C2647.97 2113.46 2653.27 2110.33 2658.94 2110.14C2661.66 2110.08 2725.15 2107.52 2728.25 2056.6C2729.52 2035.56 2725.49 2020.39 2716.21 2011.54C2703.93 1999.73 2682.61 1999.23 2667.23 2000.87C2660.63 2001.51 2655.28 1998.74 2651.9 1993.66C2648.53 1988.62 2648.25 1982.08 2651.16 1976.73C2652.61 1974.11 2685.75 1911.9 2637.89 1878.39C2624.3 1868.87 2612.03 1865.64 2600.4 1868.4C2578.33 1873.63 2564.51 1898.79 2564.36 1899.05C2561.08 1905.03 2554.85 1908.28 2547.73 1907.49C2540.98 1906.55 2535.45 1901.54 2533.95 1894.88C2533.9 1894.56 2525.84 1859.97 2502.78 1845.98C2492.61 1839.79 2480.9 1838.56 2466.94 1842.31C2445.1 1848.08 2441.49 1862.97 2436.05 1893.39C2430.33 1925.3 2422.51 1968.98 2369.87 1991.52C2365.32 1993.52 2360.07 1993.28 2355.63 1990.84C2354.64 1990.31 2330.89 1977.2 2301.22 1947.49C2295.6 1941.87 2287.77 1938.91 2279.15 1938.91L2279.17 1938.93Z" fill="#1C1C25"/>
<path d="M2537.15 1965.83C2535.98 1965.83 2534.81 1965.72 2533.64 1965.43C2524.83 1963.51 2519.25 1954.76 2521.17 1945.95L2533.97 1887.84C2535.89 1879.01 2544.7 1873.34 2553.46 1875.4C2562.27 1877.32 2567.85 1886.06 2565.93 1894.87L2553.13 1952.99C2551.44 1960.63 2544.7 1965.83 2537.15 1965.83Z" fill="#1C1C25"/>
<path d="M2614.15 2032.05C2608.62 2032.05 2603.22 2029.24 2600.13 2024.16C2595.5 2016.42 2597.97 2006.37 2605.66 2001.71L2657.03 1970.64C2664.81 1966.02 2674.79 1968.41 2679.53 1976.17C2684.16 1983.9 2681.69 1993.95 2674 1998.62L2622.63 2029.68C2619.96 2031.28 2617.05 2032.05 2614.15 2032.05Z" fill="#1C1C25"/>
<path d="M2629 2071.25C2622.06 2071.25 2615.61 2066.78 2613.4 2059.79C2588.28 1979.89 2499.89 1982.09 2495.86 1982.02C2486.16 1983.01 2479.27 1975.29 2478.94 1966.3C2478.62 1957.31 2485.59 1949.71 2494.6 1949.36C2534.9 1947.56 2618.37 1966.61 2644.61 2050C2647.33 2058.6 2642.5 2067.79 2633.93 2070.5C2632.29 2071.02 2630.64 2071.25 2629 2071.25Z" fill="#1C1C25"/>
<path d="M2479.36 2182.41C2527.68 2182.41 2566.86 2149.53 2566.86 2108.95C2566.86 2068.38 2527.68 2035.49 2479.36 2035.49C2431.03 2035.49 2391.85 2068.38 2391.85 2108.95C2391.85 2149.53 2431.03 2182.41 2479.36 2182.41Z" fill="#1C1C25"/>
<g opacity="0.25">
<path d="M2449.43 1965.75C2442.6 1972.12 2446.52 1983.48 2455.81 1984.38C2476.67 1986.41 2508.86 1982.07 2536.86 1946.54C2550.41 1929.34 2552.91 1909.69 2549.62 1890.55C2548.04 1893.06 2547.16 1894.76 2547.03 1894.98C2546.52 1892.97 2536.69 1855.03 2508.89 1837.7C2511.46 1861.09 2502.1 1885.61 2491.6 1910.28C2482.1 1932.58 2463.08 1953.02 2449.44 1965.75H2449.43Z" fill="#1C1C25"/>
</g>
<path d="M800.493 2215.58C715.351 2323.87 563.994 2279.73 563.994 2279.73C563.994 2279.73 504.459 2334.78 454.954 2289.69C405.381 2244.53 430.297 2206.19 460.693 2182.22C460.693 2182.22 380.6 2158.01 389.622 2089.08C389.814 2087.38 390.063 2085.61 390.438 2083.78C402.108 2022.35 456.653 2029.67 473.497 2033.51C476.395 2034.15 478.228 2034.71 478.478 2034.77C477.403 2033.01 457.229 1999.39 464.35 1967.41C467.633 1952.72 476.587 1938.34 495.754 1927.55C557.871 1892.55 585.119 1999.01 671.585 1965.84C671.585 1965.84 679.091 1941.56 679.657 1901.45C680.166 1862.41 730.612 1836.3 773.945 1860.51C775.203 1861.15 776.403 1861.91 777.669 1862.65C821.694 1890.47 814.88 1967.79 785.549 2018.99C785.549 2018.99 886.959 2105.64 800.493 2215.57V2215.58Z" fill="white"/>
<path d="M498.836 2323.76C480.561 2323.76 461.529 2317.81 443.908 2301.78C420.902 2280.81 409.653 2258.57 410.45 2235.7C411.054 2219.09 418.233 2202.73 431.45 2187.48C399.345 2170 363.968 2135.04 374.324 2080.73C379.247 2055.04 391.196 2036.41 409.797 2025.38C423.666 2017.15 438.945 2014.76 451.979 2014.76C447.248 1999.72 444.109 1980.48 448.985 1961.43C454.235 1941.04 467.259 1924.87 487.789 1913.32C526.448 1891.53 556.537 1913.01 580.676 1930.31C604.622 1947.46 625.805 1962.46 657.861 1953.2C659.925 1943.54 662.967 1925.43 663.293 1901.21C663.62 1877.87 677.162 1856.73 699.477 1844.62C726.14 1830.17 759.463 1831.83 786.366 1848.83C835.669 1879.98 834.499 1957.09 805.58 2016.05C830.602 2043.34 891.298 2126.6 813.364 2225.72C733.597 2327.21 603.221 2305.65 568.17 2297.65C551.767 2310.47 526.18 2323.76 498.855 2323.76H498.836ZM451.835 2047.4C443.591 2047.4 434.31 2048.83 426.344 2053.59C416.084 2059.75 409.567 2070.63 406.476 2086.87C395.506 2144.25 462.662 2165.74 465.522 2166.64C471.328 2168.42 475.695 2173.32 476.818 2179.29C477.893 2185.26 475.647 2191.35 470.868 2195.12C458.544 2204.78 443.783 2219.86 443.168 2236.88C442.698 2249.72 450.338 2263.41 465.944 2277.6C503.673 2312.02 550.951 2269.54 552.967 2267.69C557.142 2263.89 563.179 2262.54 568.573 2264.03C570.07 2264.46 710.524 2303.54 787.661 2205.53C863.062 2109.57 778.476 2034.57 774.868 2031.42C768.917 2026.32 767.42 2017.67 771.307 2010.89C797.787 1964.76 803.315 1898.23 768.917 1876.48C748.531 1863.59 727.771 1866.48 715.073 1873.37C703.268 1879.76 696.137 1890.33 696.003 1901.67C695.398 1943.64 687.566 1969.57 687.192 1970.66C685.743 1975.44 682.134 1979.31 677.441 1981.08C624.019 2001.66 587.98 1975.76 561.643 1956.88C536.382 1938.81 523.358 1930.75 503.817 1941.81C491.253 1948.88 483.709 1957.9 480.715 1969.43C473.92 1995.55 492.29 2025.95 492.482 2026.25C496.043 2032.06 495.62 2039.46 491.407 2044.85C487.232 2050.2 480.35 2052.44 473.603 2050.41C473.459 2050.36 463.765 2047.38 451.854 2047.38L451.835 2047.4Z" fill="#1C1C25"/>
<path d="M528.272 2083.9C525.181 2083.9 522.043 2083.04 519.269 2081.21L469.543 2048.5C461.999 2043.53 459.936 2033.38 464.907 2025.84C469.917 2018.31 480.091 2016.23 487.539 2021.17L537.265 2053.88C544.809 2058.85 546.872 2069 541.901 2076.54C538.762 2081.3 533.56 2083.9 528.262 2083.9H528.272Z" fill="#1C1C25"/>
<path d="M460.741 2198.61C453.293 2198.61 446.546 2193.5 444.809 2185.93C442.793 2177.14 448.274 2168.35 457.036 2166.32L515.525 2152.8C524.528 2150.73 533.147 2156.24 535.162 2165.05C537.178 2173.84 531.698 2182.63 522.935 2184.66L464.446 2198.18C463.179 2198.46 461.96 2198.61 460.741 2198.61Z" fill="#1C1C25"/>
<path d="M535.864 2223.54C529.913 2223.54 524.145 2220.24 521.246 2214.54C481.972 2136.51 528.56 2064.79 558.687 2037.77C565.482 2031.72 575.742 2032.37 581.741 2039.01C587.788 2045.7 587.221 2056.04 580.57 2062.09C577.758 2064.62 512.714 2124.87 550.481 2199.83C554.512 2207.89 551.278 2217.73 543.215 2221.79C540.874 2222.99 538.34 2223.54 535.854 2223.54H535.864Z" fill="#1C1C25"/>
<path d="M732.11 2194.17C766.75 2160.47 771.898 2109.58 743.608 2080.5C715.317 2051.42 664.302 2055.16 629.662 2088.86C595.023 2122.55 589.875 2173.45 618.165 2202.53C646.456 2231.61 697.47 2227.87 732.11 2194.17Z" fill="#1C1C25"/>
<g opacity="0.25">
<path d="M597.347 2015.93C606.676 2015.53 612.041 2026.29 606.168 2033.54C592.99 2049.83 567.335 2069.76 522.369 2064.83C500.611 2062.43 484.842 2050.45 473.498 2034.69C476.396 2035.32 478.229 2035.89 478.479 2035.94C477.404 2034.18 457.229 2000.57 464.351 1968.59C479.237 1986.81 503.279 1997.33 528.234 2007.12C550.798 2015.97 578.708 2016.73 597.347 2015.92V2015.93Z" fill="#1C1C25"/>
</g>
<path d="M877.285 2800.45C911.126 2800.4 942.578 2806.4 973.262 2819.21C977.207 2820.88 979.05 2825.44 977.37 2829.38C975.892 2832.88 971.957 2834.67 968.377 2833.89C940.121 2827.66 908.535 2827.55 880.749 2833C857.609 2837.3 853.712 2801.13 877.285 2800.45Z" fill="#1C1C25"/>
<path d="M2163.49 2832.26C2127.27 2820.13 2085.39 2822.48 2048.87 2834.7C2044.27 2836.32 2039.23 2833.91 2037.61 2829.31C2036.1 2825.06 2038.2 2820.36 2042.15 2818.4C2061.86 2809.05 2083.15 2802.41 2105.18 2799.27C2128.41 2796.2 2149.64 2795.9 2173.46 2801.11C2182.28 2803.16 2187.76 2811.98 2185.71 2820.8C2183.52 2830.57 2172.72 2836.1 2163.5 2832.25L2163.49 2832.26Z" fill="#1C1C25"/>
<path d="M2122.57 2128.57C2118.84 2160.1 2113.61 2191.51 2106.3 2218.57H941.398C934.142 2191.45 928.911 2160.11 925.13 2128.57H2122.57Z" fill="#AD5833"/>
<path d="M2106.28 2232.21H941.38C935.189 2232.21 929.805 2228.03 928.212 2222.06C921.464 2196.71 915.888 2165.8 911.579 2130.18C911.108 2126.32 912.327 2122.45 914.909 2119.52C917.529 2116.61 921.234 2114.92 925.121 2114.92H2122.55C2126.44 2114.92 2130.14 2116.58 2132.72 2119.52C2135.3 2122.43 2136.52 2126.3 2136.1 2130.16C2131.93 2165.79 2126.3 2196.73 2119.47 2222.13C2117.83 2228.06 2112.44 2232.21 2106.3 2232.21H2106.28ZM952.014 2204.93H2095.69C2100.14 2186.68 2103.93 2165.66 2107.08 2142.2H940.583C943.817 2165.66 947.609 2186.68 952.014 2204.93Z" fill="#1C1C25"/>
<path d="M1595.2 2057.61H1395.15C1370.55 2057.61 1350.56 2077.54 1350.56 2102.2V2256.53C1350.56 2281.13 1370.55 2301.12 1395.15 2301.12H1595.2C1619.8 2301.12 1639.79 2281.13 1639.79 2256.53V2102.2C1639.79 2077.55 1619.8 2057.61 1595.2 2057.61ZM1568.78 2207.9C1568.78 2220.2 1558.81 2230.17 1546.52 2230.17H1443.84C1431.55 2230.17 1421.59 2220.21 1421.59 2207.9V2150.83C1421.59 2138.53 1431.55 2128.56 1443.84 2128.56H1546.52C1558.81 2128.56 1568.78 2138.52 1568.78 2150.83V2207.9Z" fill="#FEBD1C"/>
<path d="M1601.23 2314.76H1389.12C1360.34 2314.76 1336.95 2291.35 1336.95 2262.57V2096.14C1336.95 2067.37 1360.34 2043.96 1389.12 2043.96H1601.23C1630 2043.96 1653.43 2067.37 1653.43 2096.14V2262.57C1653.43 2291.35 1630 2314.76 1601.23 2314.76ZM1389.12 2071.23C1375.38 2071.23 1364.23 2082.42 1364.23 2096.14V2262.57C1364.23 2276.31 1375.38 2287.48 1389.12 2287.48H1601.23C1614.96 2287.48 1626.16 2276.3 1626.16 2262.57V2096.14C1626.16 2082.41 1614.96 2071.23 1601.23 2071.23H1389.12Z" fill="#1C1C25"/>
<path d="M1549.53 2241.07H1440.86C1424.22 2241.07 1410.67 2227.54 1410.67 2210.93V2147.78C1410.67 2131.16 1424.21 2117.64 1440.86 2117.64H1549.53C1566.17 2117.64 1579.72 2131.16 1579.72 2147.78V2210.93C1579.72 2227.54 1566.18 2241.07 1549.53 2241.07ZM1440.86 2139.45C1436.26 2139.45 1432.52 2143.2 1432.52 2147.79V2210.94C1432.52 2215.54 1436.27 2219.28 1440.86 2219.28H1549.53C1554.13 2219.28 1557.87 2215.53 1557.87 2210.94V2147.79C1557.87 2143.19 1554.12 2139.45 1549.53 2139.45H1440.86Z" fill="#1C1C25"/>
<path d="M1576.7 2144.76H1513.32C1496.96 2144.76 1483.69 2158.03 1483.69 2174.39V2183.7C1483.69 2200.07 1496.96 2213.33 1513.32 2213.33H1576.7C1593.07 2213.33 1606.33 2200.07 1606.33 2183.7V2174.39C1606.33 2158.03 1593.07 2144.76 1576.7 2144.76Z" fill="#FFBA52"/>
<path d="M1591.09 2144.76H1498.93C1490.52 2144.76 1483.69 2151.59 1483.69 2160V2198.09C1483.69 2206.5 1490.52 2213.33 1498.93 2213.33H1591.09C1599.51 2213.33 1606.33 2206.5 1606.33 2198.09V2160C1606.33 2151.59 1599.51 2144.76 1591.09 2144.76Z" fill="#FEBD1C"/>
<path d="M1591.1 2224.22H1498.92C1484.54 2224.22 1472.77 2212.5 1472.77 2198.1V2159.99C1472.77 2145.59 1484.54 2133.87 1498.92 2133.87H1591.1C1605.49 2133.87 1617.25 2145.59 1617.25 2159.99V2198.1C1617.25 2212.5 1605.49 2224.22 1591.1 2224.22ZM1498.92 2155.66C1496.53 2155.66 1494.61 2157.6 1494.61 2159.99V2198.1C1494.61 2200.49 1496.53 2202.44 1498.92 2202.44H1591.1C1593.49 2202.44 1595.41 2200.49 1595.41 2198.1V2159.99C1595.41 2157.6 1593.49 2155.66 1591.1 2155.66H1498.92Z" fill="#1C1C25"/>
<path d="M1242.46 1984.64C1199.19 2137.32 950.9 2248.13 950.9 2248.13L920.062 1987.29L915.647 1949.64C969.443 1886.51 1000.22 1818.4 1017.12 1754.26C1055.47 1608.52 1021.86 1483.32 1021.86 1483.32C1098.8 1455.76 1229.73 1434.32 1229.73 1434.32C1229.73 1434.32 1285.73 1831.89 1242.46 1984.63V1984.64Z" fill="#AD5833"/>
<g opacity="0.6">
<path d="M1031.44 1695.81C1031.44 1695.81 1002.61 1865.98 915.667 1949.65L923.94 2020.03C923.94 2020.03 1090.54 1861.08 1031.44 1695.8V1695.81Z" fill="white"/>
</g>
<path d="M2122.55 1891.36V2128.55C1509.73 2168.73 1733.24 1426.24 1733.24 1426.24L2016.28 1483.45C2016.28 1483.45 1996.98 1539.01 1985.5 1605.66C1982.98 1620.48 1980.77 1635.81 1979.32 1651.2C1975.1 1694.33 1976.3 1737.98 1989.41 1771.27C2028.19 1870.16 2122.54 1891.35 2122.54 1891.35L2122.55 1891.36Z" fill="#AD5833"/>
<g opacity="0.6">
<path d="M2122.55 1891.36V1947.3C2077.33 1931.79 1996.36 1897.35 1962.17 1841.22C1913.48 1761.26 1979.26 1651.21 1979.26 1651.21H1979.33C1975.11 1694.34 1976.31 1737.99 1989.42 1771.28C2028.2 1870.17 2122.55 1891.36 2122.55 1891.36Z" fill="white"/>
</g>
<g opacity="0.2">
<path d="M2122.55 1950.68V2129.73C1509.73 2169.91 1733.24 1427.42 1733.24 1427.42L2016.28 1484.63C2016.28 1484.63 1996.98 1540.19 1985.5 1606.84L1853.74 1785.46C1828.57 1819.58 1829.33 1866.4 1855.82 1899.51C1887.09 1938.6 1936.09 1984.76 2001.66 2001.33C2001.66 2001.33 1941.68 1958.57 1919.55 1842.4C1919.55 1842.4 2002.98 1957.57 2122.56 1950.68H2122.55Z" fill="#1C1C25"/>
</g>
<path d="M950.939 2261.78C948.597 2261.78 946.303 2261.17 944.192 2259.99C940.439 2257.83 937.915 2254.04 937.397 2249.73L902.106 1951.23C901.683 1947.48 902.806 1943.69 905.292 1940.81C1074.28 1742.32 1009.38 1489.37 1008.67 1486.84C1006.85 1479.99 1010.59 1472.89 1017.25 1470.5C1094.48 1442.83 1222.1 1421.78 1227.48 1420.9C1231.04 1420.33 1234.79 1421.18 1237.74 1423.39C1240.7 1425.54 1242.66 1428.82 1243.17 1432.46C1245.47 1448.81 1299.08 1834.62 1255.59 1988.33C1211.12 2145.37 966.862 2255.94 956.458 2260.59C954.721 2261.39 952.801 2261.79 950.929 2261.79L950.939 2261.78ZM929.901 1953.9L962.236 2227.59C1018.01 2199.78 1194.78 2103.1 1229.36 1980.92C1266.8 1848.62 1227.35 1521.7 1218.06 1450.18C1184.69 1456.08 1098.24 1472.37 1037.78 1492.24C1048.84 1546.98 1081.93 1770.99 929.901 1953.9Z" fill="#1C1C25"/>
<path d="M2076.06 2143.76C1938.46 2143.76 1834.99 2101.25 1768.06 2017.08C1605.31 1812.48 1715.44 1438.15 1720.22 1422.31C1722.23 1415.58 1728.93 1411.46 1735.97 1412.89L2019.03 1470.12C2022.87 1470.89 2026.2 1473.3 2028.16 1476.72C2030.08 1480.14 2030.46 1484.22 2029.19 1487.94C2028.54 1489.79 1965.6 1673.33 2002.11 1766.33C2037.82 1857.39 2124.66 1877.87 2125.54 1878.08C2131.73 1879.46 2136.18 1884.99 2136.18 1891.36V2128.56C2136.18 2135.73 2130.6 2141.68 2123.43 2142.15C2107.22 2143.23 2091.42 2143.75 2076.05 2143.75L2076.06 2143.76ZM1742.99 1442.1C1725.64 1507.66 1651.13 1826.37 1789.43 2000.16C1856.02 2083.88 1963.34 2122.8 2108.9 2115.71V1901.61C2081.72 1892.66 2010.21 1861.69 1976.7 1776.28C1942.58 1689.3 1983.77 1541.18 1998.58 1493.8L1742.99 1442.11V1442.1Z" fill="#1C1C25"/>
<g opacity="0.2">
<path d="M1242.46 1985.81C1199.19 2138.49 950.899 2249.3 950.899 2249.3L920.062 1988.46C1026.58 1984.49 1079.31 1921.61 1079.31 1921.61C1086.69 1962.41 1021.86 2051.15 1021.86 2051.15C1068.31 2026.09 1097.31 1995.87 1115.42 1967.88C1140.23 1929.54 1133.98 1878.96 1100.41 1848C1072.83 1822.55 1042.81 1787.64 1017.12 1755.43C1055.47 1609.69 1021.86 1484.49 1021.86 1484.49C1098.8 1456.93 1229.72 1435.49 1229.72 1435.49C1229.72 1435.49 1285.73 1833.06 1242.46 1985.8V1985.81Z" fill="#1C1C25"/>
</g>
<path d="M1975.19 1391.34C1975.19 1391.34 2104.67 1167.83 2304.69 1253.91C2304.69 1253.91 2209.35 1415.87 1975.19 1391.34Z" fill="#FF1B40"/>
<path d="M2304.69 1445.4C2304.69 1445.4 2186.28 1309.13 1975.19 1409.7C1975.19 1409.7 2118.18 1585.95 2304.69 1445.4Z" fill="#FF1B40"/>
<path d="M2072.41 1434.33C1884.85 1664.2 1677.55 1817.39 1548.64 1899.89H1548.57C1530.86 1911.24 1514.64 1921.2 1500.2 1929.84C1493.39 1933.94 1486.96 1937.72 1480.9 1941.25C1444.25 1962.57 1398.85 1962.38 1362.4 1940.69C1082.5 1773.75 925.092 1466.3 925.092 1466.3C1323.98 1214.22 2072.39 1434.33 2072.39 1434.33H2072.41Z" fill="#FF1B40"/>
<g opacity="0.2">
<path d="M2072.41 1435.5C1884.85 1665.37 1677.55 1818.56 1548.64 1901.06H1548.57L1807.15 1624.01C1604.45 1726.74 1225.43 1668.66 1225.43 1668.66C1381.64 1743.08 1582.13 1734.81 1582.13 1734.81C1432.79 1807.78 1233.62 1742.95 1233.62 1742.95C1318.06 1832.38 1423.46 1893.99 1500.2 1931.02C1493.39 1935.12 1486.96 1938.9 1480.9 1942.43C1444.25 1963.75 1398.85 1963.56 1362.4 1941.87C1082.5 1774.93 925.092 1467.48 925.092 1467.48C1323.98 1215.4 2072.39 1435.51 2072.39 1435.51L2072.41 1435.5Z" fill="#1C1C25"/>
</g>
<path d="M1422.11 1970.71C1399.01 1970.71 1375.95 1964.61 1355.48 1952.4C1075.41 1785.4 914.573 1475.63 912.98 1472.52C909.793 1466.24 911.905 1458.55 917.855 1454.78C1317.42 1202.37 2045.5 1412.25 2076.29 1421.27C2080.65 1422.56 2084.11 1425.96 2085.47 1430.31C2086.84 1434.67 2085.9 1439.43 2082.99 1442.96C1852.84 1724.95 1590.07 1893.61 1487.76 1953.04C1467.47 1964.82 1444.74 1970.71 1422.1 1970.71H1422.11ZM943.203 1471.16C974.415 1527.35 1125.97 1783.82 1369.43 1929C1401.49 1948.1 1441.64 1948.32 1474.08 1929.47C1573.1 1871.95 1824.48 1710.71 2048.54 1441.93C1928.34 1409.99 1298.34 1257.94 943.203 1471.17V1471.16Z" fill="#1C1C25"/>
<path d="M2080.37 1445.42C1943.94 1535.23 1802.82 1623.34 1641.49 1660C1636.65 1660.99 1631.93 1657.87 1630.94 1653.03C1629.96 1648.25 1632.99 1643.59 1637.73 1642.52C1793.27 1604.27 1933.51 1513.31 2064.49 1423.27C2078.7 1412.31 2095.49 1435.37 2080.36 1445.42H2080.37Z" fill="#1C1C25"/>
<path d="M935.025 1456.96C1029.55 1552.43 1155.8 1621.9 1289.33 1644.92C1297.36 1646.01 1295.68 1658.68 1287.48 1657.53C1218.41 1647.83 1150.53 1627.16 1088.07 1595.52C1025.22 1564.24 967.072 1525.12 915.206 1475.67C909.764 1470.48 909.553 1461.85 914.745 1456.4C920.283 1450.53 929.765 1450.87 935.015 1456.96H935.025Z" fill="#1C1C25"/>
<path d="M2022.07 1407.47C2006.61 1407.47 1990.53 1406.65 1973.8 1404.89C1969.2 1404.42 1965.18 1401.64 1963.07 1397.53C1960.96 1393.4 1961.1 1388.51 1963.4 1384.52C1964.8 1382.15 2101.17 1151.54 2310.1 1241.4C2313.71 1242.95 2316.42 1245.97 2317.64 1249.67C2318.86 1253.4 2318.44 1257.46 2316.47 1260.83C2315.53 1262.4 2227.52 1407.46 2022.07 1407.46V1407.47ZM1999.1 1379.61C2168.28 1388.7 2256.76 1296 2283.75 1260.34C2137.07 1208.41 2033.31 1330.92 1999.1 1379.61Z" fill="#1C1C25"/>
<path d="M2158.86 1513.27C2043.52 1513.27 1965.68 1419.61 1964.61 1418.28C1961.99 1415.04 1961 1410.78 1961.89 1406.7C1962.83 1402.62 1965.55 1399.21 1969.34 1397.4C2187.26 1293.55 2313.75 1435.05 2314.96 1436.48C2317.45 1439.32 2318.67 1443.07 2318.25 1446.84C2317.87 1450.59 2315.91 1454.01 2312.9 1456.28C2257.22 1498.26 2205.02 1513.28 2158.86 1513.28V1513.27ZM1997.98 1414.36C2033.87 1450.14 2144.14 1538.64 2283.62 1443.77C2252.22 1415.86 2154.04 1347.89 1997.98 1414.36Z" fill="#1C1C25"/>
<path d="M2087.58 700.989C2226.41 700.989 2338.95 588.449 2338.95 449.624C2338.95 310.798 2226.41 198.258 2087.58 198.258C1948.76 198.258 1836.22 310.798 1836.22 449.624C1836.22 588.449 1948.76 700.989 2087.58 700.989Z" fill="#35313F"/>
<g opacity="0.45">
<path d="M2323.16 537.394C2323.6 531.587 2323.79 525.79 2323.79 519.926C2323.79 381.056 2211.28 268.541 2072.41 268.541C1964.44 268.541 1872.43 336.589 1836.86 432.135C1845.82 301.461 1954.61 198.285 2087.61 198.285C2220.62 198.285 2338.93 310.8 2338.93 449.603C2338.93 480.508 2333.38 510.021 2323.16 537.394Z" fill="white"/>
</g>
<path d="M2087.58 717.353C1939.96 717.353 1819.84 597.236 1819.84 449.613C1819.84 301.99 1939.96 181.902 2087.58 181.902C2235.21 181.902 2355.31 301.99 2355.31 449.613C2355.31 597.236 2235.2 717.353 2087.58 717.353ZM2087.58 214.612C1958 214.612 1852.56 320.034 1852.56 449.613C1852.56 579.193 1958 684.634 2087.58 684.634C2217.16 684.634 2322.6 579.212 2322.6 449.613C2322.6 320.014 2217.16 214.612 2087.58 214.612Z" fill="#1C1C25"/>
<path d="M2087.58 553.683C2145.05 553.683 2191.64 507.094 2191.64 449.624C2191.64 392.153 2145.05 345.564 2087.58 345.564C2030.11 345.564 1983.52 392.153 1983.52 449.624C1983.52 507.094 2030.11 553.683 2087.58 553.683Z" fill="#1C1C25"/>
<g opacity="0.25">
<path d="M2338.93 450.783C2338.93 589.653 2226.42 702.168 2087.61 702.168C1948.81 702.168 1836.23 589.653 1836.23 450.783C1836.23 347.041 1899.1 257.925 1988.85 219.582C2013.63 335.562 2121.61 422.844 2251.08 422.844C2280.6 422.844 2309.04 418.304 2335.59 409.848C2337.8 423.151 2338.93 436.837 2338.93 450.783Z" fill="#1C1C25"/>
</g>
<path d="M2210.09 1064.5C2210.21 1195.43 2202.9 1338.53 2104.26 1438.87C1909.77 1636.64 1060.01 1645.66 841.112 1463.21C725.641 1367.03 725.641 1150.27 751.43 966.875C774.57 802.465 818.403 664.852 818.403 664.852C818.403 664.852 1772.54 180.184 2192.68 777.108C2192.68 777.108 2196.14 804.356 2200.06 848.314C2204.79 901.917 2210.02 980.379 2210.09 1064.5Z" fill="white"/>
<path d="M1151.47 1033.44C1051.48 1055.3 963.723 1094.61 896.644 1145.87C860.941 1173.16 811.541 1176.71 774.589 1151.15C758.379 1139.94 745.806 1124.84 738.444 1105.07C680.301 949.052 845.152 791.505 948.837 742.883C1052.45 694.26 1215.42 732.095 1231.63 883.461C1233.93 904.883 1234.18 924.117 1232.69 941.47C1228.83 986.474 1195.6 1023.78 1151.47 1033.44Z" fill="#35313F"/>
<path d="M1953.29 1036.58C1937.1 1085.51 1901.41 1117.54 1861.97 1138.48C1827.77 1156.65 1786.05 1154.57 1754.25 1132.49C1680.33 1081.16 1584.63 1043.43 1476.77 1025.58C1435.93 1018.82 1402.26 989.306 1391.89 949.225C1385.92 926.152 1383.93 900.536 1388.41 872.616C1410.04 737.46 1593.82 696.91 1726.26 732.105C1858.7 767.232 1999.27 897.781 1953.29 1036.59V1036.58Z" fill="#35313F"/>
<g opacity="0.25">
<path d="M764.04 1343.74C765.163 1347.11 766.42 1350.35 767.63 1353.65C782.621 1383.66 801.874 1409.75 826.493 1430.26C1045.4 1612.72 1895.16 1603.7 2089.65 1405.92C2188.28 1305.59 2195.6 1162.49 2195.47 1031.56C2195.41 947.438 2190.17 868.976 2185.44 815.372C2185.32 813.981 2185.19 812.599 2185.06 811.274C2184.68 806.734 2184.24 802.387 2183.86 798.221C2183.67 796.33 2183.48 794.44 2183.29 792.606C2182.05 779.659 2180.91 768.938 2180.02 760.934C2181.56 762.969 2183.11 764.994 2184.61 767.067C2187.32 770.724 2190.03 774.505 2192.68 778.287C2192.68 778.287 2192.69 778.431 2192.74 778.623C2192.7 778.431 2192.68 778.287 2192.68 778.287C2190.03 774.505 2187.32 770.724 2184.61 767.067C2182.65 764.351 2180.63 761.702 2178.62 759.053C2177.93 758.045 2177.23 757.095 2176.41 756.154C2174.59 753.63 2172.63 751.106 2170.67 748.649C2163.98 740.011 2157.11 731.68 2150.11 723.551C2147.21 720.076 2144.25 716.736 2141.22 713.396C2137.68 709.355 2134.09 705.449 2130.43 701.543C2127.21 698.078 2124 694.728 2120.78 691.388C2120.28 690.947 2119.84 690.438 2119.39 689.997C2115.92 686.465 2112.45 682.99 2108.92 679.593C2108.73 679.343 2108.48 679.151 2108.23 678.902C1657.31 239.899 818.392 666.041 818.392 666.041C818.392 666.041 774.559 803.654 751.419 968.063C881.085 986.222 1103.71 998.968 1319.4 924.23C1545.1 846.085 1812.01 759.36 2043.21 798.749C2087.69 806.331 2120.65 844.473 2121.66 889.582C2122.01 904.948 2122.21 920.641 2122.24 936.535C2122.37 1067.46 2115.05 1210.56 2016.42 1310.9C1824.95 1505.58 998.715 1517.32 764.04 1343.75V1343.74Z" fill="#1C1C25"/>
</g>
<path d="M1443.25 1612.32C1190.18 1612.32 940.956 1567.71 830.64 1475.75C605.783 1288.41 794.648 685.479 802.806 659.891C804.121 655.716 807.067 652.251 810.964 650.284C820.619 645.36 1782.64 166.201 2206.02 767.674C2207.57 769.853 2208.55 772.358 2208.88 775.007C2209.07 776.37 2226.31 912.197 2226.45 1064.49C2226.55 1202.76 2218.11 1346.42 2115.9 1450.32C2010.92 1557.07 1724.72 1612.3 1443.26 1612.3L1443.25 1612.32ZM831.906 676.438C811.895 742.777 655.365 1287.14 851.544 1450.63C1070.58 1633.12 1905.66 1617.49 2092.55 1427.42C2186.09 1332.33 2193.83 1196 2193.73 1064.54C2193.59 928.821 2179.72 806.555 2176.91 783.194C1786.06 234.527 913.967 636.837 831.906 676.438Z" fill="#1C1C25"/>
<path d="M889.714 730.589C1028.54 730.589 1141.08 618.049 1141.08 479.223C1141.08 340.398 1028.54 227.857 889.714 227.857C750.889 227.857 638.349 340.398 638.349 479.223C638.349 618.049 750.889 730.589 889.714 730.589Z" fill="#35313F"/>
<g opacity="0.45">
<path d="M1121.63 382.19C1075.59 324.488 1004.64 287.527 925.112 287.527C786.299 287.527 673.727 400.042 673.727 538.912C673.727 573.282 680.599 606.01 693.085 635.849C658.841 592.899 638.34 538.47 638.34 479.252C638.34 340.382 750.912 227.867 889.725 227.867C994.168 227.867 1083.66 291.568 1121.62 382.19H1121.63Z" fill="white"/>
</g>
<g opacity="0.25">
<path d="M1141.05 480.422C1141.05 619.235 1028.54 731.74 889.734 731.74C750.93 731.74 638.349 619.225 638.349 480.422C638.349 477.082 638.416 473.8 638.541 470.517C643.455 470.834 648.445 470.959 653.484 470.959C788.947 470.959 899.447 363.684 904.677 229.479C1036.55 237.234 1141.05 346.591 1141.05 480.422Z" fill="#1C1C25"/>
</g>
<path d="M889.734 746.942C742.11 746.942 621.994 626.855 621.994 479.232C621.994 331.608 742.11 211.492 889.734 211.492C1037.36 211.492 1157.43 331.608 1157.43 479.232C1157.43 626.855 1037.36 746.942 889.734 746.942ZM889.734 244.211C760.154 244.211 654.713 349.633 654.713 479.232C654.713 608.831 760.154 714.233 889.734 714.233C1019.31 714.233 1124.71 608.811 1124.71 479.232C1124.71 349.652 1019.31 244.211 889.734 244.211Z" fill="#1C1C25"/>
<path d="M963.293 552.809C1003.93 512.172 1003.93 446.285 963.293 405.648C922.656 365.01 856.769 365.01 816.132 405.648C775.494 446.285 775.494 512.172 816.132 552.809C856.769 593.447 922.656 593.447 963.293 552.809Z" fill="#1C1C25"/>
<path d="M1045.58 1013.44C1085.13 1013.44 1117.18 972.979 1117.18 923.062C1117.18 873.145 1085.13 832.68 1045.58 832.68C1006.04 832.68 973.983 873.145 973.983 923.062C973.983 972.979 1006.04 1013.44 1045.58 1013.44Z" fill="#1C1C25"/>
<path d="M1072.13 933.638C1083.26 933.638 1092.27 922.199 1092.27 908.088C1092.27 893.978 1083.26 882.539 1072.13 882.539C1061 882.539 1051.98 893.978 1051.98 908.088C1051.98 922.199 1061 933.638 1072.13 933.638Z" fill="white"/>
<path d="M1141.07 904.355C1138.68 904.355 1136.29 903.962 1133.9 903.136L966.833 844.955C955.44 840.991 949.442 828.552 953.434 817.188C957.417 805.796 969.789 799.826 981.182 803.761L1148.25 861.943C1159.64 865.907 1165.64 878.345 1161.65 889.709C1158.51 898.712 1150.07 904.355 1141.07 904.355Z" fill="#1C1C25"/>
<path d="M1604.23 1007.09C1642.81 1007.09 1674.08 967.61 1674.08 918.907C1674.08 870.204 1642.81 830.723 1604.23 830.723C1565.65 830.723 1534.38 870.204 1534.38 918.907C1534.38 967.61 1565.65 1007.09 1604.23 1007.09Z" fill="#1C1C25"/>
<path d="M1582.14 935.395C1594.34 935.395 1604.23 922.857 1604.23 907.389C1604.23 891.922 1594.34 879.383 1582.14 879.383C1569.93 879.383 1560.04 891.922 1560.04 907.389C1560.04 922.857 1569.93 935.395 1582.14 935.395Z" fill="white"/>
<path d="M2553.8 601.594C2533.55 746.588 2192.68 777.109 2192.68 777.109C2162.16 730.627 2129.54 698.023 2097.57 675.324C1996.16 603.427 1901.43 631.491 1901.43 631.491C1901.43 631.491 1585.92 752.826 1124.77 837.786C698.065 916.363 375.359 735.243 353.534 597.189C351.768 586.026 351.96 575.181 354.225 564.777C357.882 547.808 367.911 534.947 382.606 525.426C480.676 462.234 788.687 549.708 833.97 563.136C837.626 564.211 839.584 564.777 839.584 564.777C839.584 564.777 851.255 528.133 870.739 474.779C884.176 437.885 901.452 393.044 921.252 346.754C926.742 333.826 932.481 320.83 938.346 307.844C979.213 217.664 1028.22 129.364 1076.21 91.4626C1191.5 0.456523 1428.12 103.633 1428.12 103.633C1428.12 103.633 1598.02 -48.041 1786.15 49.0213C1909.56 112.722 1991.17 309.678 2032.73 437.578C2038.6 455.679 2043.7 472.456 2047.93 487.208C2059.48 527.067 2065.22 552.607 2065.22 552.607C2065.22 552.607 2065.28 552.54 2065.35 552.54C2074.18 549.008 2502.58 378.542 2550.64 558.654C2554.74 573.981 2555.62 588.291 2553.8 601.604V601.594Z" fill="#AD5833"/>
<g opacity="0.45">
<path d="M2553.8 601.594C2435.99 470.105 2065.22 552.588 2065.22 552.588C2065.22 552.588 2065.28 552.521 2065.35 552.521C2074.18 548.989 2502.58 378.523 2550.64 558.635C2554.74 573.962 2555.62 588.273 2553.8 601.585V601.594Z" fill="white"/>
</g>
<g opacity="0.45">
<path d="M840.353 583.299C840.353 583.299 709.804 590.363 512.474 566.023C424.808 555.235 378.268 573.528 353.545 597.177C351.779 586.015 351.971 575.169 354.236 564.765C357.892 547.797 367.922 534.936 382.616 525.415C480.686 462.223 788.698 549.697 833.98 563.124C837.954 575.419 840.353 583.308 840.353 583.308V583.299Z" fill="white"/>
</g>
<g opacity="0.45">
<path d="M2047.94 487.19C1923.89 170.473 1761.18 93.0287 1674.09 76.8181C1615.52 65.915 1529.97 113.501 1480.24 145.836C1448.3 166.596 1409.24 173.496 1372.3 164.235C1302.32 146.69 1235.16 112.57 1153.04 131.621C1085.5 147.323 986.229 262.545 921.271 346.736C926.761 333.808 932.501 320.813 938.365 307.827C979.233 217.646 1028.24 129.347 1076.23 91.4451C1191.52 0.438952 1428.14 103.615 1428.14 103.615C1428.14 103.615 1598.04 -48.0586 1786.17 49.0037C1909.58 112.704 1991.19 309.66 2032.75 437.56C2038.62 455.661 2043.72 472.438 2047.95 487.19H2047.94Z" fill="white"/>
</g>
<path d="M919.727 873.192C675.943 873.192 483.469 791.371 392.55 697.475C348.362 651.828 329.051 603.446 338.236 561.264C343.016 539.285 356.232 521.807 377.558 509.34C479.765 449.584 759.309 524.456 828.951 544.535C853.272 471.074 960.268 162.217 1066.13 78.6398C1175.7 -7.82659 1379.05 66.1243 1425.4 84.7823C1462.56 55.7011 1621.56 -54.3374 1793.65 34.4708C1965.17 123.02 2056.23 448.442 2076.76 530.618C2144.85 505.146 2387.98 421.799 2505.14 480.383C2536.96 496.297 2557.59 521.222 2566.45 554.449C2576.24 591.19 2570.38 625.281 2549.05 655.792C2470.98 767.395 2205.4 792.378 2194.11 793.386C2188.3 793.991 2182.3 791.14 2178.97 786.073C2060.27 605.203 1912.27 645.388 1906.03 647.193C1904.16 647.97 1585.06 769.603 1127.76 853.862C1055.3 867.222 985.663 873.192 919.727 873.192ZM492.424 519.187C451.461 519.187 416.554 524.389 394.057 537.557C380.792 545.341 373.018 555.361 370.206 568.203C363.411 599.367 379.717 637.192 416.083 674.729C525.7 787.925 793.343 882.079 1121.86 821.719C1576.2 737.997 1892.44 617.44 1895.58 616.24C1898.49 615.299 2068.89 567.55 2200.71 759.813C2248.42 754.333 2460.48 725.347 2522.25 637.048C2538.05 614.484 2542.16 590.23 2534.85 562.886C2528.43 538.747 2513.9 521.337 2490.52 509.647C2369.47 449.056 2074.32 566.591 2071.32 567.762C2066.86 569.585 2061.85 569.288 2057.63 567.08C2053.37 564.834 2050.32 560.851 2049.29 556.187C2048.35 552.184 1957.72 155.969 1778.65 63.5233C1602.63 -27.3197 1440.71 114.391 1439.02 115.822C1434.29 120.083 1427.4 121.168 1421.63 118.615C1419.39 117.588 1192.51 20.4581 1086.36 104.323C976.325 191.183 856.353 565.909 855.182 569.681C852.417 578.214 843.232 582.897 834.796 580.363C765.807 559.229 605.956 519.178 492.405 519.178L492.424 519.187Z" fill="#1C1C25"/>
<path d="M2047.97 487.178C2047.97 487.178 1448.04 339.842 866.228 487.178L818.364 664.852C818.364 664.852 1491.86 573.836 1898.38 634.513L2062.21 543.498L2047.96 487.168L2047.97 487.178Z" fill="#504663"/>
<path d="M818.354 675.756C815.264 675.756 812.26 674.422 810.158 672.052C807.768 669.307 806.875 665.535 807.816 662.022L855.709 484.338C856.736 480.519 859.74 477.562 863.579 476.603C1441.23 330.265 2044.56 475.077 2050.56 476.583C2054.49 477.543 2057.54 480.586 2058.57 484.502L2072.81 540.831C2073.98 545.611 2071.82 550.63 2067.51 553.039L1903.68 644.045C1901.57 645.197 1899.18 645.754 1896.79 645.283C1496.38 585.652 826.551 674.758 819.804 675.651C819.333 675.718 818.815 675.747 818.354 675.747V675.756ZM875.116 496.201L833.125 651.973C938.144 638.805 1527.75 569.212 1896.33 623.199L2049.62 538.048L2039.03 496.288C1973.42 481.334 1413.91 361.717 875.106 496.192L875.116 496.201Z" fill="#1C1C25"/>
<g opacity="0.2">
<path d="M2192.68 778.288C2192.68 778.288 2568.03 657.5 2481.68 598.359C2434.2 565.842 2290.28 677.339 2097.57 676.494C1996.16 604.597 1901.43 632.661 1901.43 632.661C1901.43 632.661 1585.92 753.996 1124.77 838.956C663.629 923.906 323.896 705.441 354.225 565.937C357.882 548.969 367.912 536.108 382.606 526.587C385.572 532.077 388.72 537.682 392.252 543.364C392.297 543.408 392.319 543.45 392.319 543.488V543.556C394.335 551.253 459.043 780.371 979.972 759.112C1509.86 737.479 1707.13 621.25 1707.13 621.25C1707.13 621.25 1246.3 626.653 818.364 687.465C761.872 695.488 703.114 694.26 660.02 683.961C643.234 679.95 644.222 655.859 661.191 652.701C759.396 634.437 840.343 584.48 840.343 584.48C840.343 584.48 852.638 534.783 870.739 475.939C889.474 414.888 914.448 344.066 938.346 309.005C938.413 308.938 938.471 308.813 938.538 308.756C938.538 308.756 969.251 548.278 1271.97 532.077C1574.69 515.866 1647.66 238.692 1793.66 229.046C1918.72 220.782 1937.64 391.383 2032.74 438.738C2054.44 505.711 2065.22 553.768 2065.22 553.768C2065.22 553.768 2502.08 377.812 2550.64 559.824C2599.2 741.894 2192.67 778.288 2192.67 778.288H2192.68Z" fill="#1C1C25"/>
</g>
<path d="M1433.96 88.3238C1477.21 105.974 1524.6 123.049 1570.42 122.444C1575.12 122.396 1578.97 126.168 1579.02 130.871C1579.06 135.199 1575.87 138.808 1571.69 139.384C1520.07 145.363 1471.42 132.867 1422.37 118.902C1400.68 111.934 1413.03 79.1579 1433.97 88.3238H1433.96Z" fill="#1C1C25"/>
<path d="M1511.06 901.198C1502.05 901.198 1493.63 895.555 1490.48 886.552C1486.49 875.188 1492.49 862.75 1503.88 858.786L1666.91 802.005C1678.31 798.07 1690.68 804.021 1694.66 815.432C1698.64 826.796 1692.64 839.235 1681.26 843.199L1518.22 899.979C1515.83 900.795 1513.44 901.198 1511.06 901.198Z" fill="#1C1C25"/>
<path d="M1215.41 1072.12C1233.07 1032.86 1373.34 1035.82 1387.43 1079.76C1397.55 1111.34 1343 1136.49 1311.47 1148.15C1297.5 1153.32 1281.77 1152.65 1268.46 1146.51C1241.01 1133.85 1199.31 1107.91 1215.41 1072.12Z" fill="#1C1C25"/>
<path d="M1291.92 1081.58C1317.67 1081.58 1338.54 1076.36 1338.54 1069.93C1338.54 1063.49 1317.67 1058.28 1291.92 1058.28C1266.17 1058.28 1245.29 1063.49 1245.29 1069.93C1245.29 1076.36 1266.17 1081.58 1291.92 1081.58Z" fill="white"/>
<path d="M1300.22 1235.27C1291.18 1235.27 1283.87 1227.93 1283.87 1218.91V1150.73C1283.87 1141.71 1291.18 1134.38 1300.22 1134.38C1309.26 1134.38 1316.58 1141.71 1316.58 1150.73V1218.91C1316.58 1227.93 1309.26 1235.27 1300.22 1235.27Z" fill="#1C1C25"/>
<path d="M1437.06 1295.74C1433.73 1295.74 1430.36 1294.74 1427.45 1292.63C1296.75 1197.66 1213.79 1273.9 1212.95 1274.68C1206.43 1280.89 1196.08 1280.63 1189.85 1274.09C1183.62 1267.53 1183.9 1257.2 1190.45 1250.96C1191.44 1250.02 1294.16 1155.34 1446.65 1266.15C1453.97 1271.46 1455.61 1281.68 1450.26 1288.99C1447.08 1293.39 1442.1 1295.74 1437.05 1295.74L1437.06 1295.74Z" fill="#1C1C25"/>
<path d="M797.748 2326.56C760.413 2443.84 820.61 2479.15 852.561 2506.23L843.818 2645.66C842.57 2666.25 857.178 2684.46 877.583 2687.62L947.541 2698.5C965.978 2701.37 983.945 2691.17 990.875 2673.81L1091.68 2420.21L1136.49 2307.5L1122.59 2278.71C1122.59 2278.71 1169.88 2237.14 1128.56 2161.36C1128.56 2161.36 1097.67 2242.25 1036.01 2218.4C1036.01 2218.4 1059.35 2046.36 929.689 1978.35C910.129 1968.01 885.779 1973.75 873.292 1992.09C856.506 2016.56 834.23 2053.1 824.881 2085.97C819.823 2103.79 826.465 2122.76 841.495 2133.56C873.782 2156.68 932.232 2204.66 931.253 2248.97C931.253 2248.97 841.236 2198.32 799.745 2320.46C799.034 2322.52 798.382 2324.6 797.739 2326.55L797.748 2326.56ZM847.119 2330.83C850.104 2311.63 868.148 2298.39 887.411 2301.38C906.616 2304.36 919.794 2322.46 916.809 2341.66C913.824 2360.87 895.79 2374 876.594 2371.01C857.341 2368.02 844.144 2350.03 847.129 2330.83H847.119Z" fill="#9E9E9E"/>
<path d="M951.534 2159.18L958.329 2158.12C964.769 2157.12 969.367 2151.39 968.906 2144.89C967.169 2120.49 958.876 2063.68 919.698 2037.08C913.719 2033.02 905.59 2034.63 901.818 2040.79L883.159 2071.26C879.867 2076.64 881.058 2083.61 885.972 2087.53C899.62 2098.43 925.668 2121.99 937.963 2151.36C940.228 2156.76 945.737 2160.06 951.524 2159.17L951.534 2159.18Z" fill="#42477F"/>
<path d="M797.748 2326.56C760.413 2443.84 820.61 2479.15 852.561 2506.23L843.818 2645.66C842.57 2666.25 857.178 2684.46 877.583 2687.62L947.541 2698.5C965.978 2701.37 983.945 2691.17 990.875 2673.81L1091.68 2420.21L1136.49 2307.5L1122.59 2278.71C1122.59 2278.71 1169.88 2237.14 1128.56 2161.36C1128.56 2161.36 1097.67 2242.25 1036.01 2218.4C1036.01 2218.4 1059.35 2046.36 929.689 1978.35C910.129 1968.01 885.779 1973.75 873.292 1992.09C856.506 2016.56 834.23 2053.1 824.881 2085.97C819.823 2103.79 826.465 2122.76 841.495 2133.56C873.782 2156.68 932.232 2204.66 931.253 2248.97C931.253 2248.97 841.236 2198.32 799.745 2320.46C799.034 2322.52 798.382 2324.6 797.739 2326.55L797.748 2326.56ZM847.119 2330.83C850.104 2311.63 868.148 2298.39 887.411 2301.38C906.616 2304.36 919.794 2322.46 916.809 2341.66C913.824 2360.87 895.79 2374 876.594 2371.01C857.341 2368.02 844.144 2350.03 847.129 2330.83H847.119Z" stroke="#1C1C25" stroke-width="22.72" stroke-linecap="round" stroke-linejoin="round"/>
<path d="M1022.6 2472.15C1019.74 2472.15 1016.79 2471.63 1013.98 2470.56L948.184 2445.35C935.62 2440.52 929.343 2426.41 934.123 2413.88L973.772 2310.4C976.065 2304.34 980.663 2299.53 986.613 2296.86C992.468 2294.21 999.129 2294.05 1005.26 2296.37L1071.02 2321.56C1077.16 2323.91 1081.99 2328.47 1084.61 2334.45C1087.23 2340.4 1087.42 2347.02 1085.08 2353.08L1045.48 2456.51C1041.72 2466.21 1032.45 2472.16 1022.6 2472.16L1022.6 2472.15ZM1019.78 2455.28C1024 2456.87 1028.59 2454.76 1030.19 2450.62L1069.79 2347.19C1070.58 2345.17 1070.54 2343.01 1069.64 2341.08C1068.8 2339.11 1067.21 2337.61 1065.19 2336.83L999.398 2311.64C997.382 2310.8 995.184 2310.94 993.255 2311.78C991.287 2312.68 989.79 2314.24 989.041 2316.24L949.393 2419.71C947.8 2423.84 949.911 2428.5 954.029 2430.07L1019.78 2455.28Z" fill="#1C1C25"/>
<path d="M968.042 2453.45C967.015 2453.45 965.978 2453.26 964.951 2452.85C960.776 2451.16 958.761 2446.41 960.45 2442.22L1014.25 2309.47C1015.93 2305.27 1020.67 2303.21 1024.93 2304.97C1029.1 2306.66 1031.12 2311.41 1029.43 2315.6L975.634 2448.35C974.319 2451.54 971.276 2453.45 968.042 2453.45Z" fill="#1C1C25"/>
<path d="M1000.42 2458.49C999.398 2458.49 998.409 2458.3 997.382 2457.91C993.207 2456.25 991.153 2451.49 992.833 2447.29L1043.26 2320.62C1044.9 2316.38 1049.54 2314.36 1053.89 2316.05C1058.07 2317.71 1060.12 2322.47 1058.44 2326.67L1008.02 2453.34C1006.75 2456.55 1003.66 2458.49 1000.42 2458.49Z" fill="#1C1C25"/>
<path d="M1122.6 2289.62H1122.37C1062.29 2288.31 1032.82 2244.59 1025.65 2221.67C1023.86 2215.95 1027.05 2209.86 1032.77 2208.06C1038.49 2206.32 1044.62 2209.44 1046.46 2215.11C1047.11 2217.23 1063.7 2266.52 1122.84 2267.83C1128.89 2267.98 1133.62 2272.94 1133.53 2278.97C1133.38 2284.92 1128.52 2289.63 1122.6 2289.63V2289.62Z" fill="#1C1C25"/>
<path d="M1091.66 2420.2L990.846 2673.83C983.965 2691.17 965.988 2701.39 947.512 2698.52L877.573 2687.66C857.178 2684.49 842.541 2666.28 843.847 2645.65L852.561 2506.23C820.639 2479.18 760.404 2443.85 797.739 2326.59C797.739 2326.59 909.956 2406.95 1091.66 2420.21V2420.2Z" fill="#AD5833"/>
<g opacity="0.6">
<path d="M960.297 2665.17L949.825 2698.85C967.361 2700.43 983.946 2690.34 990.501 2673.81L1009.24 2626.71V2626.64L1091.34 2420.22C909.649 2406.97 797.394 2326.56 797.394 2326.56C791.021 2346.68 787.489 2364.41 786.231 2380.04C834.633 2406.26 906.127 2438.18 993.803 2457.29C1009.36 2460.67 1018.8 2476.5 1014.08 2491.7L960.287 2665.11V2665.17H960.297Z" fill="white"/>
</g>
<g opacity="0.2">
<path d="M852.494 2507.57L843.789 2647.01C842.532 2667.63 857.159 2685.79 877.535 2689.01L947.474 2699.85C965.95 2702.75 983.926 2692.47 990.798 2675.13L1009.53 2628.02V2627.96C915.12 2669.07 913.479 2538.22 938.769 2503.78C964.059 2469.34 923.633 2461.21 877.852 2451.62C845.939 2445 806.78 2409.12 786.087 2388.05C782.93 2458.75 826.83 2485.8 852.494 2507.56V2507.57Z" fill="#1C1C25"/>
</g>
<path d="M953.847 2709.92C951.179 2709.92 948.549 2709.71 945.833 2709.31L875.913 2698.44C849.759 2694.39 831.303 2671.4 832.982 2644.94L841.323 2511.1L837.196 2507.72C804.909 2481.6 750.873 2437.85 787.335 2323.29C788.41 2319.96 790.992 2317.36 794.323 2316.27C797.605 2315.16 801.214 2315.66 804.074 2317.74C805.197 2318.52 916.262 2396.47 1092.48 2409.34C1095.94 2409.59 1099.08 2411.47 1100.91 2414.42C1102.74 2417.38 1103.11 2421.01 1101.81 2424.24L1001 2677.87C993.179 2697.53 974.473 2709.93 953.857 2709.93L953.847 2709.92ZM804.064 2343.74C780.214 2433.56 820.841 2466.46 850.93 2490.75L859.597 2497.9C862.217 2500.13 863.676 2503.46 863.436 2506.91L854.721 2646.32C853.781 2661.44 864.329 2674.58 879.282 2676.88L949.202 2687.76C963.119 2689.94 975.73 2682.49 980.74 2669.81L1076.11 2429.85C934.258 2416.53 837.436 2364.33 804.064 2343.75V2343.74Z" fill="#1C1C25"/>
<path d="M2211.47 2320.62C2169.98 2198.48 2079.96 2249.13 2079.96 2249.13C2078.98 2204.82 2137.43 2156.85 2169.72 2133.72C2184.76 2122.92 2191.39 2103.95 2186.33 2086.13C2177 2053.26 2154.71 2016.72 2137.92 1992.25C2125.44 1973.91 2101.09 1968.17 2081.52 1978.51C1951.85 2046.52 1975.19 2218.56 1975.19 2218.56C1913.55 2242.4 1882.64 2161.52 1882.64 2161.52C1841.32 2237.3 1888.62 2278.87 1888.62 2278.87L1874.71 2307.66L1919.53 2420.37L2020.33 2673.97C2027.26 2691.34 2045.23 2701.53 2063.67 2698.66L2133.62 2687.78C2154.03 2684.62 2168.64 2666.41 2167.39 2645.82L2158.65 2506.4C2190.6 2479.31 2250.79 2443.99 2213.46 2326.73C2212.82 2324.77 2212.16 2322.69 2211.45 2320.63L2211.47 2320.62ZM2134.64 2371.17C2115.44 2374.16 2097.41 2361.03 2094.43 2341.82C2091.44 2322.62 2104.62 2304.53 2123.82 2301.54C2143.08 2298.55 2161.13 2311.79 2164.12 2331C2167.1 2350.2 2153.9 2368.19 2134.65 2371.17H2134.64Z" fill="#9E9E9E"/>
<path d="M2056.17 2164.91L2049.1 2163.81C2042.4 2162.78 2037.61 2156.8 2038.09 2150.03C2039.9 2124.64 2048.52 2065.5 2089.31 2037.81C2095.53 2033.59 2104 2035.27 2107.92 2041.68L2127.34 2073.4C2130.76 2078.99 2129.53 2086.25 2124.41 2090.33C2110.21 2101.68 2083.08 2126.2 2070.29 2156.77C2067.93 2162.4 2062.2 2165.83 2056.17 2164.9V2164.91Z" fill="#42477F"/>
<path d="M2211.47 2320.62C2169.98 2198.48 2079.96 2249.13 2079.96 2249.13C2078.98 2204.82 2137.43 2156.85 2169.72 2133.72C2184.76 2122.92 2191.39 2103.95 2186.33 2086.13C2177 2053.26 2154.71 2016.72 2137.92 1992.25C2125.44 1973.91 2101.09 1968.17 2081.52 1978.51C1951.85 2046.52 1975.19 2218.56 1975.19 2218.56C1913.55 2242.4 1882.64 2161.52 1882.64 2161.52C1841.32 2237.3 1888.62 2278.87 1888.62 2278.87L1874.71 2307.66L1919.53 2420.37L2020.33 2673.97C2027.26 2691.34 2045.23 2701.53 2063.67 2698.66L2133.62 2687.78C2154.03 2684.62 2168.64 2666.41 2167.39 2645.82L2158.65 2506.4C2190.6 2479.31 2250.79 2443.99 2213.46 2326.73C2212.82 2324.77 2212.16 2322.69 2211.45 2320.63L2211.47 2320.62ZM2134.64 2371.17C2115.44 2374.16 2097.41 2361.03 2094.43 2341.82C2091.44 2322.62 2104.62 2304.53 2123.82 2301.54C2143.08 2298.55 2161.13 2311.79 2164.12 2331C2167.1 2350.2 2153.9 2368.19 2134.65 2371.17H2134.64Z" stroke="#1C1C25" stroke-width="22.72" stroke-linecap="round" stroke-linejoin="round"/>
<path d="M1988.51 2472.31C1985.13 2472.31 1981.81 2471.61 1978.62 2470.2C1972.67 2467.55 1968.12 2462.73 1965.78 2456.66L1926.13 2353.21C1921.35 2340.62 1927.63 2326.5 1940.19 2321.72L2005.98 2296.5C2018.26 2291.7 2032.65 2298 2037.47 2310.53L2077.07 2413.99C2079.42 2420.05 2079.23 2426.69 2076.6 2432.64C2073.94 2438.59 2069.16 2443.16 2063.01 2445.5L1997.22 2470.69C1994.41 2471.77 1991.45 2472.3 1988.51 2472.3V2472.31ZM2014.66 2311.24C2013.72 2311.24 2012.79 2311.41 2011.85 2311.78L1946.01 2337C1941.88 2338.57 1939.82 2343.22 1941.41 2347.38L1981.06 2450.81C1981.81 2452.82 1983.3 2454.4 1985.27 2455.26C1987.24 2456.15 1989.48 2456.17 1991.37 2455.42H1991.41L2057.21 2430.23C2059.22 2429.45 2060.82 2427.95 2061.66 2425.99C2062.55 2424.04 2062.6 2421.86 2061.8 2419.87L2022.2 2316.42C2020.98 2313.21 2017.89 2311.23 2014.66 2311.23V2311.24Z" fill="#1C1C25"/>
<path d="M2043.16 2453.62C2039.92 2453.62 2036.88 2451.7 2035.56 2448.51L1981.81 2315.77C1980.12 2311.57 1982.13 2306.81 1986.36 2305.13C1990.44 2303.33 1995.26 2305.41 1996.99 2309.63L2050.75 2442.38C2052.44 2446.57 2050.42 2451.34 2046.2 2453.02C2045.21 2453.44 2044.18 2453.62 2043.16 2453.62Z" fill="#1C1C25"/>
<path d="M2010.82 2458.63C2007.59 2458.63 2004.5 2456.68 2003.23 2453.47L1952.8 2326.82C1951.11 2322.63 1953.18 2317.87 1957.35 2316.21C1961.61 2314.57 1966.31 2316.53 1967.99 2320.78L2018.41 2447.43C2020.1 2451.62 2018.04 2456.38 2013.86 2458.04C2012.84 2458.45 2011.85 2458.63 2010.82 2458.63Z" fill="#1C1C25"/>
<path d="M1888.64 2289.76C1882.74 2289.76 1877.86 2285.04 1877.72 2279.09C1877.62 2273.07 1882.4 2268.08 1888.4 2267.96C1947.54 2266.67 1964.14 2217.35 1964.79 2215.24C1966.61 2209.55 1972.85 2206.41 1978.48 2208.18C1984.2 2209.99 1987.38 2216.08 1985.6 2221.79C1978.43 2244.73 1948.95 2288.46 1888.87 2289.75H1888.64V2289.76Z" fill="#1C1C25"/>
<path d="M2158.68 2506.39L2167.39 2645.82C2168.65 2666.45 2154.02 2684.61 2133.64 2687.82L2063.7 2698.67C2045.23 2701.57 2027.25 2691.29 2020.38 2673.94L2001.65 2626.84V2626.77L1919.54 2420.35C2101.23 2407.11 2213.49 2326.7 2213.49 2326.7C2220.8 2349.71 2224.33 2369.65 2225.09 2386.87C2228.25 2457.56 2184.35 2484.62 2158.68 2506.38V2506.39Z" fill="#AD5833"/>
<g opacity="0.6">
<path d="M2050.59 2665.32L2061.07 2699C2043.53 2700.57 2026.95 2690.48 2020.39 2673.96L2001.65 2626.85V2626.78L1919.55 2420.36C2101.24 2407.12 2213.5 2326.71 2213.5 2326.71C2219.87 2346.83 2223.4 2364.55 2224.66 2380.19C2176.26 2406.41 2104.76 2438.32 2017.09 2457.43C2001.53 2460.82 1992.09 2476.65 1996.81 2491.85L2050.6 2665.25V2665.32H2050.59Z" fill="white"/>
</g>
<g opacity="0.2">
<path d="M2158.68 2507.57L2167.39 2647.01C2168.65 2667.63 2154.02 2685.79 2133.64 2689.01L2063.7 2699.85C2045.23 2702.75 2027.25 2692.47 2020.38 2675.13L2001.64 2628.02V2627.96C2096.06 2669.07 2097.7 2538.22 2072.41 2503.78C2047.12 2469.34 2087.54 2461.21 2133.33 2451.62C2165.24 2445 2204.4 2409.12 2225.09 2388.05C2228.25 2458.75 2184.35 2485.8 2158.68 2507.56V2507.57Z" fill="#1C1C25"/>
</g>
<path d="M2057.4 2710.06C2036.74 2710.06 2018.03 2697.66 2010.26 2678.01L1909.45 2424.37C1908.13 2421.14 1908.51 2417.51 1910.34 2414.56C1912.17 2411.6 1915.31 2409.73 1918.78 2409.47C2094.98 2396.63 2206.06 2318.65 2207.18 2317.88C2210.04 2315.84 2213.65 2315.3 2216.93 2316.4C2220.26 2317.5 2222.84 2320.1 2223.92 2323.43C2260.33 2437.98 2208.41 2480.04 2174.06 2507.86L2169.93 2511.25L2178.27 2645.12C2179.92 2671.53 2161.45 2694.51 2135.34 2698.59L2065.42 2709.44C2062.71 2709.86 2060.03 2710.04 2057.41 2710.04L2057.4 2710.06ZM1935.13 2429.98L2030.51 2669.94C2035.56 2682.67 2048.83 2690.26 2062.04 2687.89L2131.96 2677.05C2146.87 2674.72 2157.46 2661.58 2156.53 2646.49L2147.81 2507.07C2147.58 2503.62 2149.03 2500.29 2151.65 2498.07L2160.32 2490.92C2190.36 2466.6 2230.98 2433.72 2207.18 2343.88C2173.81 2364.46 2077 2416.66 1935.13 2429.97V2429.98Z" fill="#1C1C25"/>
<g opacity="0.25">
<path d="M785.54 2020.2C815.668 1967.59 822.031 1887.44 773.956 1861.7C773.946 1861.7 773.956 1861.7 773.937 1861.71C785.032 1919.36 757.601 1979.06 744.299 2003.64C740.594 2010.49 740.728 2018.76 744.769 2025.43C776.787 2078.18 764.761 2179.33 680.848 2198.86C569.6 2224.71 522.36 2118.57 522.36 2118.57C453.112 2130.24 412.561 2111.13 389.603 2090.26C380.581 2159.19 460.675 2183.41 460.675 2183.41C430.279 2207.37 405.363 2245.71 454.935 2290.87C504.441 2335.96 563.976 2280.91 563.976 2280.91C563.976 2280.91 715.333 2325.06 800.474 2216.77C886.941 2106.84 785.531 2020.19 785.531 2020.19L785.54 2020.2ZM481.694 2254.23C461.011 2254.23 444.234 2238.77 444.234 2219.73C444.234 2200.69 461.011 2185.3 481.694 2185.3C502.377 2185.3 519.221 2200.68 519.221 2219.73C519.221 2238.78 502.444 2254.23 481.694 2254.23Z" fill="#1C1C25"/>
</g>
<g opacity="0.25">
<path d="M2450.31 2251.4C2587.22 2266.57 2661.82 2127.66 2661.82 2127.66C2661.82 2127.66 2742.81 2123.78 2745.35 2056.87C2747.88 1989.86 2703.07 1980.76 2664.67 1985.64C2664.67 1985.64 2703.53 1911.54 2648.04 1869.66C2646.84 1900.67 2632.05 1942.99 2575.19 1984.2C2575.19 1984.2 2617.79 2092.28 2521.37 2153.52C2448.63 2199.68 2368.07 2137.37 2352.87 2077.56C2350.95 2070.02 2345.14 2064.1 2337.65 2061.95C2310.79 2054.22 2248.99 2031.94 2215.64 1983.63C2215.63 1983.63 2215.64 1983.63 2215.62 1983.63C2200.29 2035.96 2261.92 2087.6 2320.55 2102.97C2320.55 2102.97 2311.29 2236.04 2450.29 2251.41L2450.31 2251.4ZM2649.56 2052.85C2635.98 2039.49 2636.76 2016.75 2651.3 2001.95C2665.8 1987.2 2688.53 1986.02 2702.12 1999.36C2715.71 2012.71 2714.97 2035.5 2700.47 2050.25C2685.93 2065.05 2663.15 2066.19 2649.56 2052.85Z" fill="#1C1C25"/>
</g>
<g opacity="0.25">
<path d="M2180.63 3015.57H1825.13C1792.46 3015.57 1680.33 2970.98 1722.46 2770.12C1722.46 2770.12 1730.59 2642.6 1625.14 2553.36L1603.39 2556.7C1552.8 2564.52 1501.34 2564.77 1450.7 2557.46L1422.45 2553.36C1317.06 2642.6 1325.14 2770.12 1325.14 2770.12C1334.6 2851.6 1339.77 3015.57 1222.46 3015.57H866.957C812.653 3015.57 773.686 2963.03 789.513 2911.14C793.544 2898.08 798.784 2886.73 804.84 2876.96C843.568 2900.73 915.33 2929.5 1036.04 2929.5C1323.93 2929.5 1123.81 2573.08 1388.2 2467.29C1585.51 2388.34 1750.38 2480.83 1799.02 2648.42C1841.89 2796.16 1791.89 2861.96 1865.74 2902.45C1922.18 2933.41 2137.43 2937.14 2247.92 2886.11C2251.83 2893.62 2255.3 2901.94 2258.08 2911.16C2273.97 2963.06 2235 3015.59 2180.63 3015.59V3015.57Z" fill="#1C1C25"/>
</g>
</svg>
