<svg width="3148" height="1640" viewBox="0 0 3148 1640" fill="none" xmlns="http://www.w3.org/2000/svg">
<g opacity="0.15">
<path d="M1573.84 1639.51C2443.05 1639.51 3147.68 1561.31 3147.68 1464.84C3147.68 1368.37 2443.05 1290.17 1573.84 1290.17C704.632 1290.17 0 1368.37 0 1464.84C0 1561.31 704.632 1639.51 1573.84 1639.51Z" fill="#1C1C25"/>
</g>
<path d="M2772.67 490.531C2772.67 490.531 2977.44 460.621 3041.28 632.941C3105.12 805.261 3011.24 929.151 2915.47 933.861C2819.71 938.571 2772.66 490.531 2772.66 490.531H2772.67Z" fill="#35313F"/>
<path d="M2913.86 955.521C2861.79 955.521 2821.43 880.011 2787.02 718.471C2763.33 607.221 2751.29 493.921 2751.18 492.791C2749.97 481.261 2758.07 470.821 2769.55 469.151C2771.81 468.821 2825.56 461.251 2888.04 476.091C2972.83 496.241 3032.83 547.881 3061.56 625.431C3095.74 717.711 3090.09 808.911 3046.04 875.641C3014.67 923.171 2966.26 953.001 2916.55 955.451C2915.66 955.491 2914.76 955.521 2913.87 955.521H2913.86ZM2796.72 510.211C2801.35 548.121 2812.27 629.551 2829.37 709.751C2871.7 908.301 2911.26 912.291 2914.3 912.291C2914.35 912.291 2914.4 912.291 2914.43 912.291C2950.44 910.521 2986.15 887.921 3009.96 851.841C3046.34 796.731 3050.37 719.681 3021.02 640.461C2974.91 516.001 2847.36 508.161 2796.72 510.221V510.211Z" fill="#1C1C25"/>
<path d="M458.38 885.251C458.38 885.251 437.62 704.791 337.24 681.471C234.74 657.651 114.33 710.581 107.71 885.251C107.71 885.251 128.88 1295.46 291.64 1306.05C454.4 1316.64 458.37 885.251 458.37 885.251H458.38Z" fill="#35313F"/>
<path d="M297.6 1327.86C295.17 1327.86 292.72 1327.78 290.25 1327.62C212.27 1322.55 154.21 1244.91 117.66 1096.86C91.8299 992.181 86.3499 890.641 86.1299 886.361C86.0999 885.721 86.0999 885.071 86.1299 884.431C90.1899 777.141 134.46 721.461 170.89 693.641C217.47 658.061 279.89 645.941 342.15 660.411C456.06 686.881 478.94 874.791 479.86 882.781C479.96 883.661 480.01 884.551 480 885.451C479.88 898.291 475.92 1200.98 372.58 1296.93C350.46 1317.47 325.26 1327.86 297.61 1327.86H297.6ZM129.35 885.101C135.19 994.581 175.74 1276.85 293.05 1284.48C311.51 1285.66 327.91 1279.4 343.14 1265.26C417.23 1196.49 435.78 969.861 436.75 886.421C430.99 839.431 401.66 718.621 332.35 702.521C282.71 690.991 233.41 700.271 197.11 728.001C155.65 759.671 132.23 813.981 129.35 885.111V885.101Z" fill="#1C1C25"/>
<path d="M1371.76 469.442C1311.22 391.722 1326.97 278.802 1406.77 221.052C1454.46 186.542 1521.72 159.772 1611.61 170.692C1823.99 196.492 1860.68 412.852 1860.68 412.852L1738.64 1043.57C1738.64 1043.57 1518.32 978.872 1506.41 753.422C1499.2 616.992 1426.04 539.132 1371.76 469.442Z" fill="#35313F"/>
<g opacity="0.3">
<path d="M1611.61 170.68C1521.72 159.76 1454.46 186.53 1406.77 221.04C1371.66 246.45 1348.96 282.54 1339.69 321.6C1350.9 304.59 1365.31 289.27 1382.81 276.61C1430.5 242.1 1497.76 215.33 1587.65 226.25C1800.04 252.05 1836.72 468.41 1836.72 468.41L1726.26 1039.26C1734.08 1042.21 1738.64 1043.56 1738.64 1043.56L1860.68 412.84C1860.68 412.84 1823.99 196.49 1611.61 170.68Z" fill="white"/>
</g>
<path d="M1738.65 1065.18C1736.61 1065.18 1734.56 1064.89 1732.56 1064.3C1730.15 1063.59 1672.81 1046.42 1613.66 1000.04C1534.59 938.041 1490.04 853.151 1484.83 754.551C1478.7 638.531 1421.71 566.991 1371.44 503.871C1365.73 496.701 1360.13 489.671 1354.71 482.721C1321.71 440.351 1307.7 387.681 1315.28 334.411C1322.83 281.331 1350.82 234.851 1394.1 203.531C1457.72 157.481 1531.77 139.211 1614.22 149.231C1707.77 160.591 1783.82 209.281 1834.14 290.011C1871.68 350.251 1881.6 406.851 1882 409.231C1882.43 411.791 1882.41 414.401 1881.91 416.951L1759.87 1047.67C1758.71 1053.65 1755.09 1058.86 1749.89 1062.02C1746.47 1064.1 1742.58 1065.17 1738.65 1065.17V1065.18ZM1388.81 456.151C1394.13 462.991 1399.64 469.901 1405.25 476.941C1456.88 541.761 1521.14 622.421 1527.99 752.271C1536.86 920.101 1668.34 992.001 1722.25 1014.54L1838.68 412.821C1832.88 384.771 1790.24 214.161 1609.01 192.141C1537.77 183.491 1473.97 199.101 1419.45 238.551C1385.76 262.931 1363.96 299.141 1358.08 340.501C1352.17 382.051 1363.08 423.121 1388.81 456.151Z" fill="#1C1C25"/>
<path d="M2864.37 1223.27C2820.55 1298.99 2758.87 1360.47 2686.34 1404.44C2605.03 1453.66 2510.22 1480.7 2412.08 1480.7H2189.2C1960.97 1480.7 1835.89 1454.94 1835.89 1454.94C1586.85 1476.29 1335.61 1482.86 1118.12 1482.67C958.741 1482.52 817.511 1478.74 708.571 1474.52C687.031 1473.69 665.931 1471.04 645.371 1466.67C582.171 1453.27 524.461 1423.93 477.101 1382.61C418.561 1331.58 375.821 1262.34 357.811 1182.5C328.511 1052.36 331.411 919.53 360.851 796.01C435.241 484.06 679.271 231.54 1003.59 231.54C1143.44 231.54 1252.48 259.66 1337.23 301.56C1440.03 352.35 1507.16 423.35 1550.54 489.06C1611.54 581.26 1625.52 662.921 1625.52 662.921C1748.59 107.141 2125.7 45.6005 2207.06 71.4105C2268.1 90.7405 2344.02 154.781 2378.17 185.551C2390 196.201 2404.42 203.46 2419.98 206.6C2524.21 227.5 2938.22 338.5 2956.72 785.94C2964.72 979.72 2923.6 1120.9 2864.37 1223.26V1223.27Z" fill="white"/>
<path d="M1859.39 1353.85C1854.43 1418.13 1835.88 1454.94 1835.88 1454.94C1586.84 1476.29 1335.6 1482.86 1118.11 1482.67C1106.14 1454.4 1095.98 1425.85 1087.44 1397.09C933.011 877.67 1314.98 303 1314.98 303L1337.21 301.58C1440.01 352.37 1507.14 423.37 1550.52 489.08C1535.99 606.21 1555.13 759.86 1685.02 913.06C1844.26 1100.81 1866.93 1257.93 1859.37 1353.87L1859.39 1353.85Z" fill="#35313F"/>
<path d="M2686.34 1404.44C2605.03 1453.66 2510.22 1480.7 2412.08 1480.7H2189.2C1960.97 1480.7 1835.89 1454.94 1835.89 1454.94C1835.89 1454.94 1854.44 1418.14 1859.4 1353.85C1859.84 1353.8 1860.23 1353.75 1860.68 1353.7C1860.68 1353.7 2359.15 1473.38 2686.35 1404.44H2686.34Z" fill="#DAE1F2"/>
<path d="M1118.12 1482.66C958.741 1482.51 817.511 1478.73 708.571 1474.51C687.031 1473.68 665.931 1471.03 645.371 1466.66C678.101 1467.74 707.691 1468.67 731.741 1469.46C777.821 1470.93 820.951 1445.76 841.321 1404.39C842.791 1401.35 844.311 1398.21 845.791 1394.97C920.921 1396.54 1001.93 1397.47 1087.47 1397.08C1096.01 1425.84 1106.17 1454.4 1118.14 1482.66H1118.12Z" fill="#DAE1F2"/>
<path d="M1905.38 434.68C1905.38 434.68 1884.87 385.72 1876.27 338.74C1867.67 291.76 1788.93 301.69 1738.65 370.5C1738.65 370.5 1886.86 152.82 1943.1 148.85C1943.1 148.85 1901.42 255.37 1921.27 310.95C1941.12 366.53 1945.71 426.88 1905.39 434.68H1905.38Z" fill="#DAE1F2"/>
<path d="M1859.39 1353.85C1854.43 1418.13 1835.88 1454.94 1835.88 1454.94C1586.84 1476.29 1335.6 1482.86 1118.11 1482.67C1106.14 1454.4 1095.98 1425.85 1087.44 1397.09C1320.87 1396.21 1587.62 1385.9 1859.38 1353.86L1859.39 1353.85Z" fill="#232029"/>
<path d="M1128.88 1504.38C970.551 1504.38 826.541 1500.73 707.701 1496.12C528.661 1489.17 376.121 1362.16 336.751 1187.26C308.241 1060.65 308.741 926.05 338.181 798C366.841 673.37 422.151 557.27 498.161 462.25C628.311 299.55 807.801 209.94 1003.58 209.94C1295.11 209.94 1454.46 331.61 1536.81 433.68C1580.18 487.44 1607.17 540.99 1623.55 582.43C1702.41 305.64 1845.14 172.42 1955.46 108.83C2070.29 42.6303 2172.77 37.8903 2213.63 50.8403C2277.25 71.0203 2353.1 133.87 2392.66 169.54C2401.56 177.57 2412.48 183.06 2424.23 185.42C2476.25 195.85 2610.48 229.74 2733.21 318.86C2887.7 431.05 2970.17 587.9 2978.33 785.07C2985.61 961.21 2953.57 1112.29 2883.09 1234.11C2787.37 1399.57 2606.89 1502.35 2412.09 1502.35H2189.24C1978.48 1502.35 1856.03 1480.81 1834.74 1476.73C1591.32 1497.5 1346.6 1504.4 1128.9 1504.4L1128.88 1504.38ZM1003.57 253.17C821.191 253.17 653.681 337.01 531.901 489.25C383.651 674.59 325.031 938.41 378.911 1177.76C413.991 1333.58 549.881 1446.72 709.371 1452.92C991.061 1463.86 1414.84 1469.35 1834.06 1433.38C1836.13 1433.21 1838.23 1433.33 1840.27 1433.75C1841.5 1434 1966.32 1459.11 2189.22 1459.11H2412.07C2591.5 1459.11 2757.64 1364.6 2845.65 1212.45C2911.96 1097.85 2942.06 954.65 2935.12 786.84C2917.52 361.24 2533.11 251.34 2415.72 227.79C2396.35 223.91 2378.37 214.86 2363.69 201.63C2333.94 174.8 2258.49 110.41 2200.55 92.0404C2173.3 83.3904 2082.82 85.3004 1977.03 146.28C1864.6 211.09 1716.02 354.14 1646.61 667.62C1644.37 677.7 1635.44 684.66 1624.99 684.56C1614.66 684.31 1605.96 676.79 1604.2 666.61C1604.02 665.6 1585.05 561.52 1501.86 459.23C1390.65 322.5 1223.01 253.18 1003.57 253.18V253.17Z" fill="#1C1C25"/>
<path d="M1232.49 1153.87C1060.69 1045.7 1161.03 578.252 1161.03 578.252C1039.29 447.252 1134.56 313.602 1343.64 300.362C1552.72 287.132 1609.62 484.292 1625.5 629.852C1641.38 775.412 1685.05 939.502 1685.05 939.502C1685.05 939.502 1750.55 1049.33 1685.05 1153.87C1619.55 1258.41 1321.81 1210.11 1232.49 1153.87Z" fill="#35313F"/>
<path d="M1193.38 339.071C1193.38 339.071 1115.13 454.751 1230.13 535.511C1241.36 543.401 1245.98 557.791 1241.68 570.821C1211.23 663.111 1113.85 1008.5 1307.19 1153.51C1319.91 1163.05 1310.59 1183.32 1295.05 1179.94C1243.97 1168.82 1176.73 1135.08 1148.97 1037.07C1101.48 869.371 1161.03 578.251 1161.03 578.251C1161.03 578.251 1020.62 453.201 1193.38 339.071Z" fill="#232029"/>
<g opacity="0.3">
<path d="M1165.01 369.172C1165.01 369.172 1262.93 346.672 1350.27 348.002C1437.61 349.322 1548.65 427.402 1573.85 578.252C1599.05 729.102 1655.95 959.352 1694.32 931.562C1694.32 931.562 1634.89 632.852 1603.74 513.582C1572.58 394.312 1441.58 187.882 1165.02 369.172H1165.01Z" fill="white"/>
</g>
<path d="M1673.48 942.592C1652.12 893.862 1642.79 842.292 1631.83 791.072C1621.4 739.722 1612.4 687.991 1606.13 635.561C1594.57 539.371 1570.19 432.872 1496.22 367.492C1460.13 336.382 1413.78 321.892 1366.19 321.792C1283.42 322.362 1155.33 350.452 1131.58 442.012C1121.78 486.562 1146.58 530.512 1176.87 563.552C1181.89 568.912 1183.61 576.352 1182.12 583.012C1171.51 631.452 1163.7 681.782 1157.67 731.232C1146.83 829.152 1140.31 931.812 1164.45 1027.45C1176.47 1072.08 1197.98 1117.74 1238.4 1142.58C1244.46 1146.26 1246.36 1154.18 1242.64 1160.21C1239.24 1165.71 1232.35 1167.74 1226.6 1165.19C1200.84 1153.81 1179.43 1133.59 1164.09 1110.78C1087.64 991.682 1106.6 785.092 1126.14 649.972C1130.13 624.412 1134.48 599.332 1139.96 573.512L1145.21 592.972C1078.48 523.792 1058.37 426.742 1133.54 354.992C1190.27 301.492 1270.25 282.812 1345.79 278.312C1443.08 272.172 1528.58 315.012 1578.28 399.532C1620.45 469.432 1637.35 551.962 1645.72 631.132C1651.2 682.062 1659.43 733.002 1669.11 783.702C1678.43 834.502 1691.92 884.462 1696.63 936.432C1697.91 949.932 1679.1 955.222 1673.48 942.592Z" fill="#1C1C25"/>
<path d="M2089.64 49.5313C2076.27 59.6913 2072.67 78.2613 2081.71 92.4013C2113.38 141.951 2191.09 250.011 2258.69 236.181C2346.03 218.321 2374.81 58.5313 2321.21 24.7913C2271.81 -6.31869 2178.55 -18.0187 2089.64 49.5313Z" fill="#1C1C25"/>
<g opacity="0.5">
<path d="M2227.61 62.3206C2221.51 37.3106 2244.87 15.1606 2269.54 22.5006C2279.54 25.4806 2288.56 30.7506 2293.81 39.7506C2311.06 69.3206 2284.78 146.101 2262.19 141.181C2248.71 138.241 2235.81 95.9406 2227.61 62.3206Z" fill="white"/>
</g>
<path d="M1948.89 576.42C1930.64 586.63 1903.65 592.86 1865.66 595.46C1778.31 601.4 1759.13 520.04 1812.76 480.98C1824.98 472.1 1838.42 462.19 1851.92 452.22C1897.56 418.46 1943.59 383.77 1943.59 383.77L1942.51 381.32C1975.49 440.65 1978.82 468.91 1980.54 516.56C1981.52 543.5 1972.59 563.28 1948.89 576.43V576.42Z" fill="#FF7D9C"/>
<path d="M1948.89 576.42C1930.64 586.63 1903.65 592.86 1865.66 595.46C1778.31 601.4 1759.13 520.04 1812.76 480.98C1824.98 472.1 1838.42 462.19 1851.92 452.22C1860.16 451.83 1865.02 451.88 1865.02 451.88C1865.02 451.88 1766.44 586.19 1927.19 576.91C1935.04 576.47 1942.25 576.32 1948.88 576.42H1948.89Z" fill="#E84B78"/>
<path d="M1974.86 569.44C1973.15 569.44 1971.42 569.24 1969.68 568.81C1958.09 565.96 1951 554.25 1953.85 542.66C1968.31 483.86 1954.96 456.76 1936.49 419.24C1920.45 386.66 1900.48 346.11 1895.71 277.38C1886.93 150.83 2004.35 80.2504 2067.67 60.6004C2079.08 57.0604 2091.18 63.4403 2094.72 74.8403C2098.26 86.2403 2091.88 98.3404 2080.49 101.88C2073.99 103.93 1930.25 150.68 1938.83 274.38C1943.01 334.63 1959.41 367.93 1975.27 400.14C1995.21 440.64 2014.04 478.88 1995.82 552.97C1993.4 562.83 1984.57 569.43 1974.85 569.43L1974.86 569.44Z" fill="#1C1C25"/>
<path d="M1857.9 525.93C1884.3 512.62 1910.15 495.9 1931.89 475.92C1938.91 469.37 1945.2 462.43 1950.71 455.38C1958.1 445.93 1971.76 444.25 1981.22 451.65C1992.07 459.92 1992.32 476.81 1981.78 485.44C1954.78 507.92 1925.89 521.22 1894.28 532.56C1884.11 536.1 1874.1 539.22 1863.46 541.92C1858.92 543.07 1854.3 540.33 1853.14 535.78C1852.1 531.71 1854.21 527.6 1857.89 525.94L1857.9 525.93Z" fill="#1C1C25"/>
<path d="M1856.72 617.381C1804.83 617.381 1775.91 589.571 1765.98 562.271C1753.27 527.301 1766.95 487.611 1800.03 463.521C1843.02 432.201 1901.99 388.011 1922.88 372.321C1924.73 368.281 1927.84 364.771 1932.02 362.451C1942.45 356.641 1955.61 360.401 1961.41 370.831C1995.63 432.331 2000.26 463.621 2002.15 515.761C2005.08 597.151 1931.55 612.631 1867.15 617.021C1863.58 617.261 1860.09 617.381 1856.72 617.381ZM1936.35 416.251C1909.68 436.241 1861.91 471.921 1825.48 498.461C1808.12 511.101 1800.54 530.811 1806.61 547.501C1813.35 566.031 1834.88 575.901 1864.22 573.891C1960.76 567.311 1959.67 537.231 1958.95 517.321C1957.62 480.551 1955.79 456.741 1936.36 416.251H1936.35Z" fill="#1C1C25"/>
<path d="M2106.78 882.791C2129.4 837.791 2138.41 787.201 2135 736.951C2128.51 641.301 2148.67 498.881 2318.23 470.411C2578.25 426.741 2671.54 666.761 2643.75 892.121C2615.96 1117.49 2344.53 1264.86 2179.28 1179.02C2058.28 1116.16 2061.69 972.451 2106.77 882.791H2106.78Z" fill="#35313F"/>
<path d="M2483.04 615.381C2448.74 728.601 2372.95 847.261 2284.83 926.131C2262.6 945.421 2230.96 917.811 2246.83 893.251C2280.08 844.201 2313.77 796.291 2345.15 746.171C2376.12 697.831 2407.31 645.101 2437.66 596.391C2452.52 571.641 2490.32 587.661 2483.03 615.381H2483.04Z" fill="#1C1C25"/>
<path d="M2264.02 600.301C2361.52 667.311 2451.61 775.511 2500.05 883.391C2511.57 910.571 2475.98 932.161 2457.2 909.631C2420.54 863.071 2385.1 816.451 2346.85 771.351C2310.17 727.181 2269.38 681.471 2232.17 637.781C2213.08 616.121 2239.81 584.961 2264.02 600.301Z" fill="#1C1C25"/>
<path d="M2526.65 1425.14C2526.65 1425.14 2731.1 1558.13 2915.69 1395.37C3097.55 1235.02 3022.87 1000.37 2814.46 956.711C2814.46 956.711 2657.65 1027.42 2583.55 1203.79C2509.45 1380.16 2526.65 1425.15 2526.65 1425.15V1425.14Z" fill="#35313F"/>
<path d="M3024.86 1203.78C3024.86 1203.78 2933.33 1466.75 2547.38 1300.06C2547.38 1300.06 2502.78 1415.79 2540.53 1433.12C2578.27 1450.45 2722.17 1522.48 2869.05 1433.12C3015.93 1343.76 3024.87 1203.78 3024.87 1203.78H3024.86Z" fill="#232029"/>
<path d="M2536.36 1410.22C2607.1 1435.58 2684.79 1457.38 2759.65 1442.34C2851.15 1423.99 2933 1357.59 2972.39 1273.52C3031.95 1138.61 2945.87 1011.37 2810.79 974.231C2801.09 971.601 2795.42 961.421 2798.32 951.791C2800.91 943.141 2809.45 937.901 2818.13 939.201C2906.84 950.791 2990.99 1009.02 3025.92 1093.83C3078.4 1216.67 3022.02 1348.96 2922.09 1428.27C2878.59 1464.08 2826.22 1490.12 2770.43 1499.85C2687.59 1514.32 2599.3 1499.54 2530.47 1450.81C2525.86 1447.48 2521.76 1444.28 2516.94 1440.07C2509.47 1433.56 2508.7 1422.22 2515.22 1414.76C2520.65 1408.51 2529.21 1407.13 2536.36 1410.22Z" fill="#1C1C25"/>
<path d="M2760.55 1053.65C2774.39 1042.41 2793.62 1040.38 2809.51 1048.47C2841.91 1064.96 2892.72 1099.73 2897.63 1157.28C2904.39 1236.51 2780.75 1324.73 2671.52 1229.41C2655.82 1215.71 2651.28 1193.05 2660.83 1174.53C2676.21 1144.7 2706.59 1097.48 2760.55 1053.65Z" fill="#FF7D9C"/>
<path d="M2741.59 1092.98C2752.92 1083.77 2768.67 1082.11 2781.69 1088.74C2808.23 1102.24 2849.83 1130.72 2853.86 1177.85C2859.4 1242.74 2758.14 1314.99 2668.69 1236.92C2655.83 1225.7 2652.11 1207.15 2659.93 1191.98C2672.53 1167.55 2697.4 1128.88 2741.59 1092.99V1092.98Z" fill="#E84B78"/>
<path d="M2773.4 1292.53C2733.3 1292.53 2692.74 1276.62 2657.31 1245.7C2633.97 1225.32 2627.52 1191.99 2641.63 1164.63C2658.71 1131.5 2690.85 1082.43 2746.93 1036.88C2767.4 1020.26 2795.82 1017.25 2819.32 1029.21C2854.1 1046.91 2913.31 1086.85 2919.17 1155.44C2923.16 1202.18 2892.39 1250.54 2842.61 1275.79C2820.47 1287.01 2797.02 1292.53 2773.41 1292.53H2773.4ZM2789.01 1065.17C2783.71 1065.17 2778.45 1066.96 2774.17 1070.43C2723.89 1111.27 2695.23 1154.97 2680.03 1184.44C2675.06 1194.07 2677.4 1205.87 2685.72 1213.13C2747.03 1266.63 2802.17 1247.81 2823.04 1237.23C2856.74 1220.15 2878.55 1188.03 2876.08 1159.12C2872 1111.36 2826.47 1081.37 2799.69 1067.74C2796.31 1066.02 2792.65 1065.18 2789 1065.18L2789.01 1065.17Z" fill="#1C1C25"/>
<path d="M845.771 1394.97C844.301 1398.21 842.781 1401.35 841.301 1404.39C820.941 1445.76 777.801 1470.93 731.721 1469.46C707.671 1468.68 678.091 1467.74 645.351 1466.66C521.941 1462.59 353.671 1456.85 269.121 1452.92C126.221 1446.3 85.3506 1169.73 83.2406 978.551C82.3606 897.931 112.291 833.591 155.821 794.631C155.971 794.531 156.021 794.481 156.021 794.481C213.921 742.861 295.821 736.181 360.841 796.001C385.181 818.331 407.161 850.031 424.631 892.131C424.631 892.131 552.311 771.411 757.431 874.661C757.431 874.661 881.141 958.671 885.111 1175.03C886.971 1276.26 867.251 1347.66 845.751 1394.97H845.771Z" fill="#35313F"/>
<path d="M845.771 1394.97C844.301 1398.21 842.781 1401.35 841.301 1404.39C820.941 1445.76 777.801 1470.93 731.721 1469.46C707.671 1468.68 678.091 1467.74 645.351 1466.66C521.941 1462.59 353.671 1456.85 269.121 1452.92C126.221 1446.3 85.3506 1169.73 83.2406 978.552C82.3606 897.932 112.291 833.591 155.821 794.631C155.971 794.531 156.021 794.481 156.021 794.481C156.021 794.481 143.461 887.222 156.021 1065.84C168.581 1244.51 180.511 1379.5 363.101 1379.5C390.921 1379.5 429.441 1380.73 477.091 1382.59C569.341 1386.12 695.901 1391.82 845.761 1394.96L845.771 1394.97Z" fill="#232029"/>
<g opacity="0.3">
<path d="M431.25 900.471C431.25 900.471 521.89 934.211 644.3 950.091C766.7 965.971 851.39 924.291 736.93 866.721C622.47 809.161 463.67 844.891 431.25 900.461V900.471Z" fill="white"/>
</g>
<path d="M793.82 1493.06C707.59 1490.12 354.11 1477.48 275.16 1474.77C268.57 1474.77 260.51 1473.72 253.88 1473.01C98.7903 1445.69 71.1603 1167.91 63.5803 1040.29C60.9103 987.401 58.4603 933.001 75.9303 882.101C103.28 791.531 191.14 714.901 289.91 735.021C365.04 750.051 417.42 817.031 444.6 883.841L409.79 876.411C422.22 865.031 435.88 856.241 450.37 848.051C491.99 825.041 539.79 813.051 587.1 812.781C650.07 812.551 712.12 830.341 763.02 863.561C775.14 871.751 765.85 890.681 751.94 885.811C698.92 866.671 644.39 850.471 588.15 853.331C534.01 856.131 480.01 874.201 438.14 908.901C427.26 918.001 409.9 913.501 404.66 900.401C386.44 857.501 360.78 817.331 321.29 793.251C243.67 746.001 157.95 797.301 125.12 873.901C114.39 898.631 107.87 925.381 105.86 952.421C103.7 980.791 105.57 1009.63 106.73 1038.04C112.61 1142.77 136.27 1384.13 246.04 1426.52C255.83 1430.3 266.66 1431.26 277.13 1431.58C354.24 1434.31 711.39 1446.89 795.14 1449.85C823.35 1451.29 822.92 1493.04 793.79 1493.06H793.82Z" fill="#1C1C25"/>
</svg>
