<svg width="2922" height="2971" viewBox="0 0 2922 2971" fill="none" xmlns="http://www.w3.org/2000/svg">
<circle cx="1461" cy="1461" r="1461" fill="#F34121"/>
<path fill-rule="evenodd" clip-rule="evenodd" d="M1940.22 1480.85H1940.14L1935.38 1483.38C1931.57 1485.37 1927.75 1487.32 1923.92 1489.27L1918.56 1491.94C1914.99 1493.72 1911.39 1495.47 1907.78 1497.19L1901.47 1500.18C1897.64 1501.98 1893.8 1503.75 1889.92 1505.5L1885.8 1507.35C1881.31 1509.35 1876.81 1511.32 1872.25 1513.24L1867.78 1515.11C1863.7 1516.82 1859.57 1518.49 1855.45 1520.16L1849.67 1522.46C1845.65 1524.03 1841.59 1525.6 1837.53 1527.13L1832.02 1529.18C1827.7 1530.76 1823.37 1532.33 1819.01 1533.86L1814.93 1535.29C1810.12 1536.94 1805.32 1538.56 1800.45 1540.15L1796.05 1541.58C1791.2 1543.13 1786.35 1544.66 1781.46 1546.14L1777.82 1547.22C1772.78 1548.73 1767.7 1550.21 1762.6 1551.63L1759.67 1552.45C1754.72 1553.82 1749.72 1555.16 1744.7 1556.46L1740.53 1557.53C1735.22 1558.88 1729.88 1560.19 1724.52 1561.44L1722.2 1561.97C1716.57 1563.3 1710.87 1564.57 1705.17 1565.78L1702.47 1566.35C1696.67 1567.57 1690.84 1568.74 1684.97 1569.86L1683.4 1570.16C1677.66 1571.23 1671.92 1572.27 1666.13 1573.25L1664.05 1573.61C1658.03 1574.62 1651.97 1575.57 1645.89 1576.46L1644.21 1576.72C1638.24 1577.59 1632.24 1578.41 1626.2 1579.18L1623.52 1579.51C1617.52 1580.27 1611.48 1580.96 1605.45 1581.58L1603.6 1581.77C1597.5 1582.41 1591.37 1582.99 1585.21 1583.5L1584.42 1583.57L1583.95 1583.61C1577.44 1584.14 1570.87 1584.62 1564.3 1585.04L1563.64 1585.08C1557.07 1585.49 1550.48 1585.84 1543.87 1586.11L1542.7 1586.16C1536.07 1586.43 1529.41 1586.65 1522.71 1586.78H1522.29C1515.44 1586.93 1508.58 1587.01 1501.69 1587.01C1494.8 1587.01 1487.85 1586.92 1480.96 1586.79H1480.71C1473.84 1586.65 1467 1586.43 1460.19 1586.14H1459.96C1446.33 1585.55 1432.79 1584.71 1419.35 1583.6L1418.56 1583.53C1412.22 1583 1405.87 1582.39 1399.55 1581.74L1397.74 1581.55C1391.57 1580.9 1385.41 1580.19 1379.28 1579.43L1377.6 1579.22C1371.26 1578.42 1364.95 1577.56 1358.66 1576.64L1358.09 1576.56C1351.71 1575.63 1345.37 1574.63 1339.04 1573.56L1337.93 1573.37C1331.66 1572.31 1325.43 1571.18 1319.2 1570L1318.5 1569.87C1312.21 1568.68 1305.95 1567.42 1299.73 1566.11L1299.43 1566.05L1298.96 1565.94C1292.65 1564.6 1286.37 1563.21 1280.14 1561.74L1279.8 1561.67C1273.91 1560.29 1268.04 1558.84 1262.21 1557.35L1260.17 1556.83C1254.32 1555.33 1248.52 1553.78 1242.73 1552.17L1241.67 1551.87C1235.89 1550.27 1230.17 1548.6 1224.45 1546.88L1222.51 1546.3C1217.02 1544.63 1211.56 1542.93 1206.14 1541.17L1203.93 1540.46C1198.38 1538.65 1192.87 1536.79 1187.39 1534.89L1185.9 1534.38C1180.43 1532.47 1175.01 1530.52 1169.61 1528.52L1167.42 1527.7C1162.13 1525.72 1156.85 1523.69 1151.62 1521.62L1149.71 1520.86C1144.52 1518.79 1139.33 1516.67 1134.21 1514.51L1131.89 1513.52C1126.7 1511.33 1121.51 1509.09 1116.41 1506.8L1115.13 1506.24C1109.96 1503.91 1104.82 1501.54 1099.69 1499.13L1098.03 1498.34C1092.97 1495.94 1087.93 1493.49 1082.93 1491L1081.51 1490.28L1081.45 1490.26C1012.69 1490.95 932.972 1550.21 842.262 1668.05C862.932 1738.92 843.322 1815.42 791.122 1867.62C738.922 1919.84 662.422 1939.43 591.552 1918.79C619.622 1979.84 649.582 2012.31 681.402 2016.21C759.332 2090.8 838.132 2104.64 917.802 2057.74C884.542 2307.75 914.762 2439.65 1008.44 2453.45C1161.7 2488.26 1299.15 2500.34 1420.81 2489.7C1458.34 2467 1478.96 2430.25 1482.75 2379.43C1511.26 2455.21 1555.06 2493.48 1614.2 2494.24C2092.49 2543.71 2109.2 2423.42 2020.55 2009.38C2086.44 1932.51 2194.1 1906.35 2287.93 1944.4C2246.47 1745.98 2119.1 1576.17 1940.22 1480.81V1480.85Z" fill="white"/>
<g opacity="0.3">
<path fill-rule="evenodd" clip-rule="evenodd" d="M1811.15 1739.05C1637.67 1735.54 1529.4 1861.4 1486.34 2116.6C1556 1910.01 1664.71 1791.14 1816.64 1766.23C1839.63 1738.64 1845.66 1708.68 1834.76 1676.35C1863.4 1679.27 1879.52 1672.98 1883.09 1657.47C1848.81 1630.8 1818.03 1622.33 1790.73 1632.09C1793.09 1679.95 1799.89 1715.61 1811.16 1739.04" fill="#1C1C25"/>
</g>
<path d="M1787.05 2525.57C1737.29 2525.57 1679.68 2522.04 1612.95 2515.16C1561.73 2514.2 1520.46 2489.34 1489.72 2441.09C1477.7 2469.23 1458.28 2491.5 1431.62 2507.62C1428.89 2509.28 1425.81 2510.28 1422.63 2510.56C1299.59 2521.32 1158.93 2509.03 1004.57 2474.04C902.242 2458.33 865.412 2333.63 892.382 2093.3C817.792 2121.87 743.722 2102.62 671.632 2035.77C634.722 2027.65 602.252 1992.14 572.562 1927.57C569.142 1920.13 570.382 1911.39 575.722 1905.19C581.072 1898.99 589.542 1896.47 597.392 1898.77C660.982 1917.29 729.532 1899.71 776.342 1852.89C823.162 1806.07 840.732 1737.5 822.192 1673.95C820.322 1667.55 821.622 1660.63 825.692 1655.35C921.412 1531 1005 1470.17 1081.23 1469.41C1083.68 1469.45 1086.02 1469.78 1088.28 1470.56C1089.17 1470.87 1090.11 1471.26 1090.96 1471.69L1092.39 1472.41C1097.14 1474.77 1102.06 1477.16 1107 1479.5L1108.67 1480.29C1113.62 1482.62 1118.66 1484.95 1123.72 1487.22L1124.87 1487.73C1129.92 1489.99 1134.98 1492.18 1140.02 1494.31L1142.41 1495.33C1147.33 1497.4 1152.4 1499.47 1157.47 1501.49L1159.31 1502.22C1164.44 1504.25 1169.58 1506.23 1174.75 1508.16L1176.93 1508.98C1182.15 1510.91 1187.46 1512.82 1192.81 1514.69L1194.16 1515.15C1199.6 1517.04 1204.98 1518.85 1210.4 1520.62L1212.55 1521.32C1217.88 1523.05 1223.22 1524.71 1228.59 1526.34L1230.48 1526.91C1236.02 1528.57 1241.61 1530.2 1247.26 1531.77L1248.36 1532.08C1253.97 1533.64 1259.64 1535.15 1265.36 1536.62L1267.37 1537.13C1272.97 1538.56 1278.59 1539.95 1284.23 1541.27C1284.48 1541.32 1284.76 1541.38 1284.92 1541.42C1291 1542.85 1297.12 1544.21 1303.28 1545.52C1303.41 1545.55 1304 1545.68 1304.13 1545.71C1310.12 1546.97 1316.22 1548.2 1322.38 1549.36L1322.93 1549.46C1329.18 1550.64 1335.27 1551.75 1341.41 1552.79L1342.63 1553C1348.69 1554.02 1354.88 1554.99 1361.12 1555.91L1361.66 1555.99C1367.85 1556.9 1374.02 1557.74 1380.21 1558.52L1381.9 1558.73C1387.86 1559.47 1393.89 1560.17 1399.92 1560.81L1401.73 1561C1407.87 1561.63 1414.09 1562.23 1420.3 1562.75L1421.01 1562.81C1434.05 1563.89 1447.43 1564.73 1460.83 1565.29C1467.71 1565.58 1474.4 1565.8 1481.11 1565.93C1495.09 1566.2 1508.4 1566.2 1521.86 1565.93C1528.86 1565.8 1535.37 1565.57 1541.86 1565.31L1542.96 1565.26C1549.47 1564.99 1555.92 1564.64 1562.36 1564.25L1562.98 1564.21C1569.43 1563.8 1575.87 1563.33 1582.25 1562.81L1583.27 1562.72C1589.5 1562.2 1595.47 1561.63 1601.43 1561.01L1603.28 1560.82C1609.17 1560.21 1615.06 1559.54 1620.9 1558.8L1623.65 1558.46C1629.46 1557.71 1635.33 1556.91 1641.19 1556.06L1642.73 1555.82C1648.78 1554.93 1654.7 1554.01 1660.58 1553.02L1662.56 1552.68C1668.28 1551.7 1673.92 1550.69 1679.55 1549.64L1681.07 1549.35C1686.79 1548.26 1692.49 1547.12 1698.16 1545.92L1700.82 1545.36C1706.37 1544.18 1711.91 1542.95 1717.39 1541.66L1719.83 1541.1C1724.98 1539.89 1730.19 1538.62 1735.39 1537.3L1739.48 1536.25C1744.37 1534.99 1749.25 1533.68 1754.09 1532.34L1756.99 1531.53C1761.96 1530.14 1766.91 1528.7 1771.83 1527.23L1775.48 1526.14C1780.19 1524.72 1784.93 1523.22 1789.67 1521.7L1793.98 1520.3C1798.73 1518.75 1803.44 1517.16 1808.14 1515.54L1812.08 1514.16C1816.35 1512.66 1820.6 1511.13 1824.82 1509.58L1830.22 1507.57C1834.13 1506.1 1838.11 1504.56 1842.05 1503.02L1847.73 1500.76C1851.66 1499.17 1855.7 1497.53 1859.7 1495.86L1864.16 1493.99C1868.54 1492.14 1872.92 1490.23 1877.28 1488.28L1881.37 1486.45C1885.1 1484.77 1888.85 1483.04 1892.57 1481.29L1898.84 1478.33C1902.29 1476.68 1905.78 1474.98 1909.26 1473.25L1914.59 1470.59C1918.2 1468.76 1921.96 1466.84 1925.69 1464.88L1930.29 1462.44C1936.32 1459.21 1943.98 1459.19 1950.05 1462.42C2134.93 1560.98 2265.54 1735.12 2308.39 1940.18C2309.97 1947.74 2307.25 1955.55 2301.33 1960.5C2295.4 1965.44 2287.23 1966.72 2280.08 1963.83C2197.6 1930.39 2103.74 1951.24 2043.21 2015.49C2091.94 2245.28 2103.52 2376.56 2035.11 2452.77C1990.63 2502.32 1914.78 2525.59 1787.04 2525.59L1787.05 2525.57ZM1482.76 2358.57C1491.35 2358.57 1499.22 2363.88 1502.31 2372.11C1527.72 2439.61 1564.4 2472.74 1614.47 2473.38C1615.09 2473.38 1615.72 2473.42 1616.35 2473.49C1836.98 2496.3 1952.91 2481.75 2004.01 2424.83C2061.41 2360.87 2047.74 2236.23 2000.11 2013.8C1998.75 2007.42 2000.44 2000.77 2004.68 1995.82C2068.03 1921.92 2166.5 1891.09 2259.06 1913.29C2212.72 1739.35 2098.19 1592.2 1940.01 1504.53C1937.79 1505.67 1935.59 1506.79 1933.39 1507.91L1927.88 1510.65C1924.18 1512.49 1920.49 1514.29 1916.78 1516.06L1910.4 1519.08C1906.43 1520.95 1902.48 1522.77 1898.5 1524.56L1894.34 1526.42C1889.69 1528.49 1885.06 1530.51 1880.39 1532.49L1875.87 1534.38C1871.7 1536.13 1867.49 1537.83 1863.28 1539.53L1857.39 1541.87C1853.19 1543.52 1849.04 1545.11 1844.89 1546.67L1839.31 1548.75C1834.8 1550.4 1830.37 1552 1825.93 1553.56L1821.84 1555C1816.79 1556.73 1811.88 1558.39 1806.91 1560.01L1802.49 1561.45C1797.44 1563.07 1792.49 1564.63 1787.49 1566.14L1783.78 1567.25C1778.63 1568.79 1773.43 1570.3 1768.2 1571.76L1765.25 1572.58C1760.15 1573.99 1755.04 1575.36 1749.9 1576.69L1745.72 1577.77C1740.2 1579.17 1734.74 1580.51 1729.25 1581.79L1726.85 1582.34C1721.19 1583.68 1715.33 1584.98 1709.48 1586.22L1706.78 1586.79C1700.8 1588.05 1694.84 1589.25 1688.84 1590.39L1687.26 1590.69C1681.36 1591.79 1675.52 1592.84 1669.63 1593.85L1667.59 1594.2C1661.32 1595.25 1655.12 1596.22 1648.9 1597.13L1647.34 1597.37C1641.11 1598.28 1635 1599.11 1628.84 1599.9L1626.04 1600.24C1619.96 1601.01 1613.77 1601.71 1607.58 1602.36L1605.73 1602.55C1599.48 1603.2 1593.22 1603.8 1586.9 1604.32L1586.32 1604.37C1586.32 1604.37 1585.79 1604.42 1585.76 1604.42C1578.99 1604.97 1572.28 1605.46 1565.58 1605.88L1564.93 1605.92C1558.19 1606.34 1551.46 1606.69 1544.71 1606.97L1543.57 1607.02C1536.72 1607.3 1529.91 1607.52 1523.07 1607.65C1508.25 1607.95 1494.5 1607.94 1480.49 1607.65C1473.22 1607.51 1466.22 1607.28 1459.26 1606.99C1445.07 1606.39 1431.12 1605.52 1417.56 1604.39L1416.82 1604.33C1410.29 1603.78 1403.8 1603.17 1397.36 1602.5L1395.5 1602.3C1389.2 1601.64 1382.9 1600.91 1376.64 1600.13L1374.93 1599.91C1368.47 1599.1 1362.01 1598.22 1355.56 1597.27L1355.02 1597.19C1348.48 1596.23 1341.99 1595.21 1335.51 1594.12L1334.27 1593.9C1327.97 1592.84 1321.6 1591.69 1315.24 1590.48L1314.7 1590.38C1308.11 1589.13 1301.71 1587.85 1295.33 1586.5C1295.2 1586.47 1294.77 1586.38 1294.64 1586.35C1288.21 1584.98 1281.9 1583.58 1275.63 1582.11C1275.38 1582.06 1275.12 1582 1274.97 1581.97C1268.94 1580.56 1262.94 1579.08 1256.98 1577.55L1254.95 1577.03C1248.94 1575.49 1243 1573.9 1237.09 1572.26L1235.98 1571.95C1230.1 1570.32 1224.25 1568.61 1218.4 1566.86L1216.41 1566.26C1210.76 1564.54 1205.17 1562.8 1199.64 1561.01L1197.46 1560.3C1191.72 1558.43 1186.09 1556.53 1180.48 1554.58L1179.07 1554.1C1173.35 1552.1 1167.82 1550.11 1162.3 1548.07L1160.04 1547.23C1154.62 1545.2 1149.22 1543.13 1143.86 1541L1141.97 1540.25C1136.59 1538.1 1131.28 1535.94 1126.04 1533.73L1123.63 1532.7C1118.37 1530.48 1113.04 1528.18 1107.8 1525.83L1106.61 1525.31C1101.21 1522.88 1095.96 1520.46 1090.73 1517.99L1089.01 1517.17C1084.93 1515.23 1080.86 1513.27 1076.81 1511.27C1017.57 1514.62 946.392 1568.87 865.062 1672.65C883.082 1747.84 860.902 1827.31 805.852 1882.35C759.012 1929.2 694.402 1952.27 629.932 1946.98C648.112 1976.71 666.472 1993.28 683.892 1995.41C688.362 1995.96 692.542 1997.94 695.802 2001.06C766.762 2068.99 835.912 2081.62 907.142 2039.67C914.032 2035.62 922.632 2035.84 929.292 2040.26C935.962 2044.68 939.512 2052.51 938.462 2060.44C916.942 2222.2 912.142 2418.09 1011.43 2432.72C1011.96 2432.8 1012.49 2432.9 1013.01 2433.02C1161.33 2466.71 1296.17 2478.89 1413.9 2469.26C1443.01 2449.98 1458.7 2420.02 1461.84 2377.83C1462.57 2368.05 1470 2360.09 1479.71 2358.69C1480.71 2358.55 1481.71 2358.48 1482.69 2358.48L1482.76 2358.57Z" fill="#1C1C25"/>
<path d="M913.002 2118.17C911.802 2118.17 910.592 2118.07 909.382 2117.85C898.012 2115.86 890.402 2105.04 892.392 2093.66C925.012 1906.98 968.882 1770.11 1022.78 1686.85C1029.05 1677.16 1041.99 1674.4 1051.68 1680.66C1061.37 1686.93 1064.14 1699.87 1057.87 1709.56C1007.04 1788.08 965.222 1919.73 933.582 2100.85C931.802 2111 922.982 2118.16 913.012 2118.16L913.002 2118.17Z" fill="#1C1C25"/>
<path d="M2026.78 2059.88C2016.7 2059.88 2007.82 2052.58 2006.17 2042.31C1994.42 1969.45 1961.21 1861.8 1907.47 1722.34C1903.32 1711.57 1908.69 1699.47 1919.46 1695.32C1930.23 1691.18 1942.33 1696.54 1946.48 1707.31C2001.26 1849.47 2035.23 1959.93 2047.44 2035.65C2049.28 2047.05 2041.53 2057.78 2030.14 2059.61C2029.01 2059.79 2027.89 2059.88 2026.79 2059.88H2026.78Z" fill="#1C1C25"/>
<path fill-rule="evenodd" clip-rule="evenodd" d="M1047.92 2947.38C1354.83 2966.85 1481.17 2828.59 1431.5 2482.55C1428.1 2485.08 1424.55 2487.47 1420.81 2489.74C1299.14 2500.38 1161.7 2488.29 1008.44 2453.49C997.472 2451.87 987.372 2448.63 978.142 2443.77C1006.36 2584.88 997.402 2682.76 951.272 2737.42C869.922 2817.8 933.812 2940.14 1047.93 2947.38H1047.92Z" fill="#35313F"/>
<path d="M1102.21 2970.07C1084.38 2970.07 1065.85 2969.46 1046.6 2968.24C980.422 2964.04 923.802 2924.27 902.342 2866.92C883.552 2816.69 896.082 2763.06 935.862 2723.27C976.972 2673.82 984.312 2581.17 957.652 2447.87C956.072 2439.96 959.172 2431.86 965.632 2427.03C972.082 2422.2 980.732 2421.51 987.882 2425.27C994.982 2429.01 1002.93 2431.54 1011.5 2432.8C1012.03 2432.88 1012.56 2432.98 1013.08 2433.1C1161.39 2466.78 1296.23 2478.97 1413.97 2469.34C1415.7 2468.19 1417.4 2467 1419.05 2465.77C1424.97 2461.37 1432.77 2460.42 1439.55 2463.25C1446.35 2466.08 1451.16 2472.28 1452.21 2479.58C1478.82 2664.96 1455.9 2793.89 1382.14 2873.74C1322.45 2938.35 1230.55 2970.07 1102.22 2970.07H1102.21ZM1049.25 2926.52C1193.66 2935.68 1292.53 2909.14 1351.42 2845.38C1412.82 2778.91 1433.44 2669.45 1414.23 2511.26C1293.29 2520.75 1155.67 2508.26 1004.95 2474.13C1026.57 2604.6 1014.15 2695.33 967.242 2750.91C966.832 2751.39 966.412 2751.85 965.962 2752.29C937.252 2780.66 928.332 2817.1 941.502 2852.28C957.192 2894.23 999.492 2923.37 1049.25 2926.53V2926.52Z" fill="#1C1C25"/>
<g opacity="0.5">
<path fill-rule="evenodd" clip-rule="evenodd" d="M982.122 2464.86C1005.36 2594.67 995.072 2685.53 951.272 2737.42C897.052 2790.99 907.362 2863.19 954.052 2907.54C956.502 2909.23 958.902 2910.94 961.412 2912.64C941.322 2855.78 943.722 2814.11 968.662 2787.63C1044.63 2705.56 1057.88 2594.17 1008.44 2453.48C999.402 2457.24 990.642 2461.04 982.122 2464.86Z" fill="white"/>
</g>
<path fill-rule="evenodd" clip-rule="evenodd" d="M1580.62 2489.34C1591.21 2492.48 1602.39 2494.13 1614.19 2494.28C1839.58 2517.58 1962.43 2503.19 2020.1 2438.14H2020.12C2020.44 2533.93 2016.95 2609.82 2046.36 2642.22C2177.83 2787.09 2135.81 2885.37 1881.72 2924.68C1668.86 2957.62 1566.75 2798.22 1580.62 2489.32V2489.34Z" fill="#35313F"/>
<path d="M1828.83 2949.86C1764.73 2949.86 1710.84 2930.59 1668.11 2892.27C1587.42 2819.9 1550.96 2684.02 1559.74 2488.4C1560.03 2481.98 1563.26 2476.04 1568.49 2472.31C1573.73 2468.57 1580.4 2467.47 1586.55 2469.29C1595.28 2471.88 1604.67 2473.25 1614.45 2473.37C1615.08 2473.37 1615.71 2473.41 1616.33 2473.48C1837.5 2496.35 1953.59 2481.63 2004.45 2424.27C2010.72 2417.19 2020.98 2415.2 2029.44 2419.44C2036.5 2422.97 2040.99 2430.18 2041.02 2438.08C2041.05 2448.08 2041.04 2457.87 2041.03 2467.42C2040.97 2541.31 2040.91 2605.13 2061.83 2628.17C2129.15 2702.36 2152.72 2764.3 2133.88 2817.53C2111.38 2881.09 2029.94 2922.89 1884.9 2945.33C1865.43 2948.35 1846.72 2949.85 1828.82 2949.85L1828.83 2949.86ZM1600.66 2514.44C1596.47 2681.71 1629.29 2801.3 1696.03 2861.16C1740.9 2901.41 1802.31 2915.83 1878.53 2904.04C2003.4 2884.72 2078.08 2849.99 2094.5 2803.6C2107.55 2766.73 2086.15 2717.17 2030.9 2656.28C2000.98 2623.31 1999.28 2564.14 1999.25 2482.76C1929.68 2526.41 1811.53 2535.64 1612.97 2515.17C1608.82 2515.09 1604.72 2514.85 1600.67 2514.44H1600.66Z" fill="#1C1C25"/>
<g opacity="0.5">
<path fill-rule="evenodd" clip-rule="evenodd" d="M2020.15 2469.61C2020.08 2550.42 2020.25 2613.46 2046.37 2642.23C2150.66 2757.15 2145.73 2842.76 2012.41 2892.88C2009.71 2891.71 2006.99 2890.54 2004.24 2889.31C2085.17 2825.28 2076.02 2762.19 2004.54 2674.69C1968.22 2630.24 1968.39 2557.82 1973.37 2477.99C1989.61 2474.61 2005.18 2471.85 2020.15 2469.61Z" fill="white"/>
</g>
<path fill-rule="evenodd" clip-rule="evenodd" d="M2257.86 2153.12C2306.57 2094.85 2318.2 2014.09 2287.93 1944.45C2194.37 1906.52 2087.1 1932.41 2021.15 2008.74C2023.38 2019.37 2025.25 2029.45 2026.8 2038.98C2041.09 2107.55 2052.02 2167.58 2057.82 2219.67C2131.73 2237.13 2209.15 2211.38 2257.86 2153.12Z" fill="#35313F"/>
<path d="M2104.53 2246.04C2087.45 2246.04 2070.18 2244.06 2053.02 2240.01C2044.42 2237.98 2038.03 2230.76 2037.05 2221.98C2031.85 2175.36 2022.39 2120.23 2006.34 2043.24C2006.28 2042.94 2006.22 2042.64 2006.17 2042.33C2004.63 2032.87 2002.79 2023.01 2000.69 2013.02C1999.35 2006.64 2001.07 2000 2005.33 1995.06C2077.2 1911.89 2193.94 1883.77 2295.78 1925.06C2300.85 1927.12 2304.92 1931.08 2307.1 1936.1C2340.74 2013.49 2328.02 2101.77 2273.9 2166.51C2231.09 2217.71 2169.18 2246.03 2104.53 2246.03V2246.04ZM2076.78 2202.09C2138.83 2211.68 2201.02 2188.51 2241.83 2139.71C2283.9 2089.39 2295.13 2021.54 2272 1960.73C2191.88 1931.91 2102.29 1953.23 2043.73 2014.93C2045.07 2021.79 2046.28 2028.56 2047.36 2035.16C2061.93 2105.12 2071.18 2157.51 2076.78 2202.09Z" fill="#1C1C25"/>
<g opacity="0.5">
<path fill-rule="evenodd" clip-rule="evenodd" d="M2304.28 2034.86L2304.34 2034.14C2306.13 1995.81 2286.61 1961.7 2245.74 1931.79H2245.72C2273.19 2009.31 2251.12 2102.15 2179.51 2210.28C2181.74 2209.37 2183.98 2208.41 2186.19 2207.42C2262.21 2142.68 2301.58 2085.15 2304.29 2034.86" fill="white"/>
</g>
<path d="M2004.49 1956.65C2001.33 1956.65 1998.15 1955.66 1995.44 1953.6C1988.84 1948.6 1987.54 1939.19 1992.55 1932.59C2060.09 1843.5 2184.04 1818.43 2280.89 1874.3C2288.07 1878.44 2290.53 1887.61 2286.39 1894.79C2282.25 1901.97 2273.07 1904.43 2265.9 1900.29C2182.11 1851.96 2074.88 1873.64 2016.46 1950.71C2013.51 1954.6 2009.03 1956.65 2004.5 1956.65H2004.49Z" fill="#1C1C25"/>
<path fill-rule="evenodd" clip-rule="evenodd" d="M842.252 1668.09C761.052 1415.81 648.912 1327.13 505.772 1402.08C300.012 1598.77 267.292 1716.09 407.602 1754.02C397.592 1785.7 412.192 1819.97 441.982 1834.67C471.792 1849.38 507.852 1840.16 526.932 1812.93C529.782 1844.66 557.022 1868.58 588.872 1867.31C579.752 1886.03 583.562 1909.19 600.272 1936.78C597.342 1931.1 594.422 1925.12 591.552 1918.83C662.422 1939.48 738.922 1919.88 791.122 1867.66C843.322 1815.46 862.932 1738.95 842.262 1668.09H842.252Z" fill="#35313F"/>
<path d="M600.282 1957.68C593.202 1957.68 586.312 1954.08 582.382 1947.61C568.622 1924.89 562.212 1903.89 563.202 1884.86C544.162 1879.14 527.962 1866.55 517.672 1849.79C492.592 1865.15 460.762 1867.25 432.732 1853.42C399.872 1837.2 381.242 1803.51 383.702 1768.47C339.722 1752.81 313.062 1727.65 304.372 1693.51C286.752 1624.34 347.912 1524.08 491.322 1386.98C492.742 1385.62 494.332 1384.48 496.072 1383.57C555.752 1352.32 611.902 1347.08 662.982 1367.99C744.072 1401.18 809.222 1497.25 862.142 1661.69C862.202 1661.87 862.252 1662.06 862.312 1662.24C885.122 1740.45 863.502 1824.83 805.892 1882.45C756.412 1931.94 687.182 1954.88 619.052 1945.92C617.252 1949.64 614.332 1952.85 610.472 1955.02C607.242 1956.83 603.732 1957.69 600.272 1957.69L600.282 1957.68ZM606.812 1901.24C667.682 1915.48 731.842 1897.4 776.332 1852.89C823.082 1806.13 840.672 1737.7 822.262 1674.22C774.042 1524.52 715.122 1434.51 647.142 1406.68C608.142 1390.72 565.892 1394.84 518.042 1419.27C358.422 1572.33 335.722 1647.26 344.872 1683.19C350.722 1706.16 373.662 1723.2 413.042 1733.85C418.542 1735.33 423.192 1739 425.932 1744C428.662 1749 429.242 1754.9 427.522 1760.33C420.572 1782.34 430.532 1805.72 451.232 1815.94C471.922 1826.15 496.562 1819.85 509.802 1800.95C514.832 1793.76 523.822 1790.48 532.302 1792.75C540.782 1795.01 546.942 1802.33 547.732 1811.08C549.592 1831.73 567.272 1847.2 588.022 1846.45C595.362 1846.11 602.332 1849.74 606.352 1855.91C610.372 1862.06 610.862 1869.88 607.642 1876.49C604.362 1883.22 604.092 1891.5 606.802 1901.26L606.812 1901.24Z" fill="#1C1C25"/>
<g opacity="0.5">
<path fill-rule="evenodd" clip-rule="evenodd" d="M842.252 1668.09C826.642 1619.56 809.872 1577.1 791.972 1540.7C759.612 1487.38 714.002 1436.28 655.122 1387.37L654.892 1387.27C630.372 1380.09 608.432 1376.55 589.062 1376.66C573.472 1377.68 557.422 1381.06 540.942 1386.76C517.192 1398.25 500.432 1419.59 490.692 1450.76C646.872 1361.2 761.012 1472.86 833.152 1785.72C842.312 1769.08 847.952 1752.16 850.072 1734.95C851.202 1712.71 848.672 1690.12 842.242 1668.07" fill="white"/>
</g>
<path d="M600.282 1957.68C593.202 1957.68 586.312 1954.08 582.382 1947.61C568.622 1924.89 562.212 1903.89 563.202 1884.86C544.162 1879.14 527.962 1866.55 517.672 1849.79C492.592 1865.15 460.762 1867.25 432.732 1853.42C399.872 1837.2 381.242 1803.51 383.702 1768.47C339.722 1752.81 313.062 1727.65 304.372 1693.51C286.752 1624.34 347.912 1524.08 491.322 1386.98C492.742 1385.62 494.332 1384.48 496.072 1383.57C555.752 1352.32 611.902 1347.08 662.982 1367.99C744.072 1401.18 809.222 1497.25 862.142 1661.69C862.202 1661.87 862.252 1662.06 862.312 1662.24C885.122 1740.45 863.502 1824.83 805.892 1882.45C756.412 1931.94 687.182 1954.88 619.052 1945.92C617.252 1949.64 614.332 1952.85 610.472 1955.02C607.242 1956.83 603.732 1957.69 600.272 1957.69L600.282 1957.68ZM606.812 1901.24C667.682 1915.48 731.842 1897.4 776.332 1852.89C823.082 1806.13 840.672 1737.7 822.262 1674.22C774.042 1524.52 715.122 1434.51 647.142 1406.68C608.142 1390.72 565.892 1394.84 518.042 1419.27C358.422 1572.33 335.722 1647.26 344.872 1683.19C350.722 1706.16 373.662 1723.2 413.042 1733.85C418.542 1735.33 423.192 1739 425.932 1744C428.662 1749 429.242 1754.9 427.522 1760.33C420.572 1782.34 430.532 1805.72 451.232 1815.94C471.922 1826.15 496.562 1819.85 509.802 1800.95C514.832 1793.76 523.822 1790.48 532.302 1792.75C540.782 1795.01 546.942 1802.33 547.732 1811.08C549.592 1831.73 567.272 1847.2 588.022 1846.45C595.362 1846.11 602.332 1849.74 606.352 1855.91C610.372 1862.06 610.862 1869.88 607.642 1876.49C604.362 1883.22 604.092 1891.5 606.802 1901.26L606.812 1901.24Z" fill="#1C1C25"/>
<path d="M563.072 1843.34C574.682 1845.12 585.732 1847.19 597.142 1848.09C608.492 1849.05 620.142 1849.59 632.092 1848.7C644.022 1847.83 656.232 1845.89 668.542 1843.02C680.912 1840.27 693.312 1836.52 706.142 1832.69H706.172C707.532 1832.27 708.972 1833.05 709.372 1834.41C709.652 1835.34 709.372 1836.31 708.732 1836.96C699.162 1846.6 688.312 1854.96 676.552 1862.26C664.742 1869.44 651.902 1875.47 638.192 1879.65C624.502 1883.83 609.902 1886.47 595.142 1886.06C580.442 1885.62 565.582 1882.87 552.302 1876.63C543.482 1872.49 539.692 1861.99 543.832 1853.17C547.232 1845.93 554.922 1842.08 562.452 1843.23L563.072 1843.33V1843.34Z" fill="#1C1C25"/>
<path d="M506.042 1813.83C505.862 1802.88 505.852 1791.8 508.062 1780.23C510.182 1768.75 513.892 1756.89 520.462 1745.82C526.972 1734.73 536.692 1725.11 547.442 1718.39C558.212 1711.64 569.822 1707.38 581.102 1704.92C592.332 1702.66 603.602 1701.51 614.242 1701.18L618.282 1700.96L619.292 1700.89L619.882 1700.8L621.052 1700.64C622.602 1700.53 624.172 1700.1 625.722 1699.81C628.762 1698.94 631.802 1698.21 634.702 1697.01C640.572 1694.87 646.512 1692.34 652.732 1688.69C659.142 1685.12 665.472 1680.45 673.512 1673.68L674.252 1673.05C677.582 1670.25 682.552 1670.68 685.352 1674.01C686.152 1674.97 686.702 1676.09 686.982 1677.23C689.872 1689.18 687.092 1702.24 680.512 1713.16C677.272 1718.69 673.012 1723.67 668.062 1727.9C663.172 1732.22 657.502 1735.7 651.452 1738.28C645.422 1740.96 638.912 1742.42 632.412 1743.26C629.132 1743.53 625.892 1743.85 622.572 1743.74L620.102 1743.71L618.052 1743.65L614.812 1743.55C606.002 1742.99 597.872 1744.29 590.062 1745.72C574.592 1749.23 562.922 1756.11 556.282 1767.34C552.922 1773.03 550.632 1779.94 549.212 1787.53C547.682 1795.09 547.702 1803.57 547.802 1812.01V1813.22C547.942 1824.76 538.702 1834.21 527.162 1834.34C515.622 1834.47 506.172 1825.32 506.042 1813.78V1813.83Z" fill="#1C1C25"/>
<path d="M407.582 1774.93C403.402 1774.93 399.172 1773.68 395.492 1771.06C386.082 1764.37 383.872 1751.33 390.562 1741.92C406.022 1720.17 423.092 1700.94 441.312 1684.76C449.942 1677.09 463.162 1677.88 470.822 1686.51C478.482 1695.14 477.702 1708.35 469.072 1716.02C453.222 1730.1 438.272 1746.96 424.642 1766.13C420.562 1771.87 414.122 1774.93 407.582 1774.93Z" fill="#1C1C25"/>
<path d="M534.022 1411.3C526.742 1416.5 520.902 1422.85 516.992 1429.78C512.922 1436.68 511.442 1444.25 511.642 1451.58C512.432 1466.34 522.692 1480.24 538.522 1488.8C546.422 1493.05 555.482 1496.3 565.192 1497.7C574.912 1499.17 585.002 1498.94 595.192 1499.2C605.472 1499.09 615.942 1499.6 626.932 1499.99C632.432 1500.49 638.012 1500.48 643.812 1501.33C649.582 1501.89 655.492 1502.56 661.782 1504.12L662.252 1504.23C666.402 1505.26 668.932 1509.46 667.902 1513.61C667.512 1515.19 666.662 1516.53 665.532 1517.54C655.732 1526.24 644.632 1532.27 632.852 1536.55C629.902 1537.61 626.912 1538.54 623.902 1539.47C620.862 1540.23 617.772 1540.94 614.682 1541.54C608.532 1542.92 602.112 1543.35 595.762 1543.76C582.902 1544.06 569.892 1542.21 556.952 1539.31C544.032 1536.38 530.932 1532.28 518.522 1525.53C506.172 1518.79 494.522 1509.35 485.582 1497.09C476.492 1484.98 470.932 1469.61 469.892 1453.97C469.172 1438.31 472.912 1422.47 480.482 1409.41C487.902 1396.22 498.302 1385.45 509.772 1377.26C519.172 1370.55 532.222 1372.73 538.932 1382.13C545.642 1391.53 543.462 1404.58 534.062 1411.28L534.012 1411.31L534.022 1411.3Z" fill="#1C1C25"/>
<path fill-rule="evenodd" clip-rule="evenodd" d="M514.672 1659.7C546.392 1641.15 584.712 1639.93 600.232 1656.97C615.772 1674 602.652 1702.85 570.932 1721.41C539.212 1739.96 500.892 1741.18 485.372 1724.14C469.832 1707.11 482.952 1678.26 514.672 1659.7Z" fill="white"/>
<path d="M519.833 1757.12C499.443 1757.12 481.382 1750.8 469.922 1738.22C460.372 1727.76 456.322 1714.01 458.522 1699.52C461.832 1677.77 478.452 1656.68 504.122 1641.67C545.202 1617.64 593.162 1618.17 615.692 1642.9C625.242 1653.36 629.293 1667.11 627.093 1681.6C623.783 1703.36 607.162 1724.44 581.492 1739.45C561.322 1751.24 539.493 1757.12 519.833 1757.12ZM566.262 1665.87C554.772 1665.87 539.782 1669.23 525.232 1677.74C509.222 1687.1 500.953 1698.58 499.853 1705.79C499.433 1708.53 500.232 1709.4 500.812 1710.04C507.482 1717.36 534.622 1718.41 560.382 1703.36C576.392 1694 584.662 1682.53 585.762 1675.3C586.182 1672.56 585.382 1671.69 584.802 1671.05C581.902 1667.86 575.112 1665.86 566.262 1665.86V1665.87Z" fill="#1C1C25"/>
<path fill-rule="evenodd" clip-rule="evenodd" d="M469.342 1575.42C527.092 1548.4 596.072 1546.56 623.432 1571.24C646.502 1592.09 632.622 1625.19 593.072 1651.23C574.852 1640.55 542.272 1643.58 514.672 1659.7C501.702 1667.29 491.812 1676.62 485.772 1686.15C455.472 1687.88 429.002 1682.27 414.392 1669.09C387.002 1644.37 411.632 1602.43 469.332 1575.42H469.342Z" fill="white"/>
<path d="M475.222 1707.36C443.112 1707.36 416.832 1699.43 400.402 1684.61C386.442 1672.01 380.232 1655.13 382.922 1637.08C387.372 1607.27 416.372 1577.14 460.482 1556.49C527.212 1525.27 603.292 1524.93 637.432 1555.72C650.252 1567.3 656.602 1582.74 655.352 1599.21C653.482 1623.68 635.442 1648.35 604.562 1668.68C597.912 1673.06 589.362 1673.27 582.492 1669.25C572.222 1663.23 547.412 1664.77 525.212 1677.74C515.612 1683.36 507.872 1690.32 503.422 1697.34C499.812 1703.03 493.682 1706.63 486.962 1707.02C482.972 1707.25 479.042 1707.36 475.212 1707.36H475.222ZM478.212 1594.35C443.572 1610.56 426.162 1630.59 424.272 1643.25C423.822 1646.27 424.012 1649.61 428.412 1653.58C436.762 1661.12 454.172 1665.49 475.082 1665.55C482.702 1656.57 492.572 1648.43 504.122 1641.67C532.802 1624.91 565.602 1619.83 590.412 1627.45C606.602 1614.78 613.142 1602.95 613.672 1596.03C613.862 1593.51 613.502 1590.44 609.422 1586.75C590.852 1570 532.382 1568.99 478.202 1594.35H478.212Z" fill="#1C1C25"/>
<path fill-rule="evenodd" clip-rule="evenodd" d="M489.422 1681.04C511.662 1655.1 541.602 1643.48 579.192 1646.17C575.922 1626.42 561.012 1610.62 541.472 1606.2C521.952 1601.81 501.712 1609.67 490.252 1626.1C478.832 1642.54 478.492 1664.26 489.422 1681.04Z" fill="white"/>
<path d="M489.422 1694.11C489.142 1694.11 488.852 1694.11 488.562 1694.08C484.462 1693.81 480.722 1691.62 478.472 1688.17C464.582 1666.84 464.992 1639.55 479.512 1618.64C494.082 1597.75 519.512 1587.86 544.332 1593.45C569.172 1599.07 587.902 1618.92 592.072 1644.03C592.722 1647.98 591.532 1652.01 588.842 1654.97C586.142 1657.92 582.272 1659.49 578.252 1659.2C544.732 1656.8 518.892 1666.72 499.332 1689.54C496.842 1692.45 493.212 1694.1 489.412 1694.1L489.422 1694.11ZM530.592 1618.05C518.932 1618.05 507.852 1623.69 500.962 1633.57C495.952 1640.79 493.832 1649.34 494.652 1657.69C512.882 1642.81 534.732 1634.54 559.942 1633C554.902 1626.02 547.412 1620.94 538.592 1618.94C535.932 1618.34 533.252 1618.05 530.602 1618.05H530.592Z" fill="#1C1C25"/>
<path fill-rule="evenodd" clip-rule="evenodd" d="M623.432 1571.24L609.382 1520.83C490.332 1530.14 460.142 1438.23 521.902 1394.27C535.152 1388.39 548.122 1383.95 560.812 1380.96C522.002 1207.3 457.112 1154.66 366.112 1223.03C311.002 1257.54 320.202 1357.22 393.732 1522.07C404.622 1546.47 416.932 1572.3 430.622 1599.57C440.952 1590.86 453.972 1582.6 469.342 1575.41C527.092 1548.39 596.072 1546.55 623.432 1571.23V1571.24Z" fill="#11DD7B"/>
<g opacity="0.6">
<path fill-rule="evenodd" clip-rule="evenodd" d="M356.112 1263.03C440.742 1199.45 502.772 1240.58 542.262 1386.31C548.512 1384.2 554.692 1382.4 560.812 1380.96C522.002 1207.3 457.112 1154.66 366.112 1223.03C345.122 1236.18 333.492 1258.81 331.162 1290.86C337.022 1279.09 345.312 1269.79 356.112 1263.03Z" fill="white"/>
</g>
<path d="M430.622 1617.07C429.452 1617.07 428.272 1616.95 427.092 1616.71C421.852 1615.63 417.382 1612.21 414.982 1607.42C401.082 1579.73 388.552 1553.41 377.752 1529.19C299.632 1354.04 292.562 1249.16 356.172 1208.6C396.352 1178.6 433.542 1169.59 466.752 1181.83C516.252 1200.08 552.602 1263.97 577.892 1377.13C579.982 1386.49 574.152 1395.78 564.822 1397.98C553.802 1400.57 542.322 1404.45 530.662 1409.52C511.402 1423.9 503.732 1444.42 510.632 1463.43C518.752 1485.78 548.622 1507.99 608.002 1503.37C616.442 1502.73 623.982 1508.06 626.222 1516.12L640.282 1566.54C642.372 1574.04 639.262 1582.02 632.642 1586.12C626.012 1590.22 617.492 1589.45 611.702 1584.24C592.332 1566.77 532.142 1565.35 476.752 1591.27C463.162 1597.62 451.432 1604.92 441.892 1612.96C438.712 1615.64 434.702 1617.07 430.622 1617.07ZM437.142 1211.63C419.392 1211.63 399.122 1220.12 376.622 1237.03C376.222 1237.33 375.812 1237.61 375.392 1237.87C329.742 1266.45 341.612 1362.27 409.712 1514.95C417.862 1533.23 427.032 1552.75 437.062 1573.2C444.712 1568.3 453.012 1563.74 461.932 1559.57C494.692 1544.24 530.452 1536.55 561.972 1536.55C514.142 1528.51 487.372 1501.9 477.742 1475.39C465.272 1441.04 478.622 1403.6 511.752 1380.02C512.712 1379.34 513.732 1378.76 514.802 1378.28C523.242 1374.53 531.662 1371.31 539.962 1368.63C512.892 1257.88 478.902 1223.63 454.642 1214.68C449.112 1212.64 443.272 1211.62 437.142 1211.62V1211.63ZM591.172 1538.99C593.002 1539.32 594.802 1539.68 596.582 1540.07L596.272 1538.97C594.562 1539 592.862 1539.01 591.172 1538.99Z" fill="#1C1C25"/>
<path fill-rule="evenodd" clip-rule="evenodd" d="M1222.49 1546.33C1307.9 1605.11 1396.59 1716.57 1488.53 1880.69C1586.57 1729.27 1665.18 1622.9 1724.35 1561.61C1624.05 1585.19 1519.27 1592.41 1416.13 1583.35C1348.77 1577.53 1283.87 1564.91 1222.49 1546.33Z" fill="#35313F"/>
<path d="M1488.53 1901.59C1488.31 1901.59 1488.09 1901.59 1487.86 1901.59C1480.54 1901.36 1473.88 1897.31 1470.3 1890.91C1380.37 1730.38 1293.01 1620.24 1210.64 1563.55C1202.15 1557.71 1199.19 1546.56 1203.66 1537.27C1208.12 1527.99 1218.71 1523.34 1228.55 1526.33C1289.41 1544.76 1353.13 1556.94 1417.93 1562.53C1519.97 1571.49 1621.45 1564.33 1719.57 1541.26C1728.6 1539.14 1737.94 1543.22 1742.52 1551.28C1747.1 1559.34 1745.83 1569.46 1739.39 1576.13C1681.44 1636.16 1602.93 1742.45 1506.07 1892.06C1502.21 1898.02 1495.6 1901.6 1488.53 1901.6V1901.59ZM1304.85 1588.52C1365.24 1648.5 1427.11 1732.84 1489.72 1840.59C1558.52 1735.75 1617.93 1653.33 1667.12 1594.44C1584.19 1608.37 1499.41 1611.65 1414.31 1604.17C1377.4 1600.98 1340.81 1595.75 1304.85 1588.52Z" fill="#1C1C25"/>
<path fill-rule="evenodd" clip-rule="evenodd" d="M1542.73 1586.3C1500.52 1588.03 1458.19 1587.04 1416.13 1583.35L1366.88 1691.77C1406.79 1744.16 1447.34 1807.13 1488.53 1880.69C1528.99 1818.2 1566.14 1763.39 1599.97 1716.26L1542.73 1586.31V1586.3Z" fill="#E71C24"/>
<g opacity="0.3">
<path fill-rule="evenodd" clip-rule="evenodd" d="M1271.89 1585.87C1273.36 1571.93 1282.37 1565.3 1298.93 1565.96C1323.53 1577.08 1356.17 1603.44 1396.85 1645.03C1464.59 1783.86 1520.62 1781.05 1564.91 1636.64C1646.37 1595.84 1697.42 1573.01 1718.11 1568.17C1630.83 1673.34 1553.45 1775.99 1485.98 1876.13C1413.96 1747.6 1342.58 1650.84 1271.88 1585.87" fill="#1C1C25"/>
</g>
<path d="M1488.53 1900.69C1488.32 1900.69 1488.11 1900.69 1487.89 1900.69C1480.88 1900.47 1474.5 1896.59 1471.08 1890.47C1430.55 1818.08 1390.14 1755.31 1350.98 1703.9C1346.52 1698.05 1345.63 1690.21 1348.68 1683.51L1397.93 1575.09C1401.44 1567.36 1409.46 1562.69 1417.89 1563.44C1458.97 1567.05 1500.69 1568.02 1541.91 1566.33C1550.04 1565.95 1557.72 1570.72 1561.04 1578.25L1618.28 1708.2C1621.13 1714.67 1620.35 1722.17 1616.22 1727.92C1582.65 1774.69 1545.34 1829.75 1505.32 1891.57C1501.63 1897.27 1495.3 1900.7 1488.53 1900.7V1900.69ZM1390.01 1689.22C1422.72 1733.12 1456.15 1784.46 1489.67 1842.29C1520.73 1794.93 1550.03 1751.88 1577.07 1713.89L1529.88 1606.75C1496.16 1607.67 1462.18 1606.89 1428.53 1604.41L1390.01 1689.22Z" fill="#1C1C25"/>
<path d="M1345.63 2046.23C1335.53 2054.03 1320.99 2052.16 1313.18 2042.06C1305.38 2031.95 1307.25 2017.42 1317.35 2009.61C1326.79 2002.34 1331.26 1994.74 1331.87 1987.43C1332.53 1979.85 1329.59 1971.49 1324.13 1963.23C1317.56 1953.3 1307.56 1943.78 1295.51 1935.64C1268.68 1917.56 1233.06 1907.16 1202.72 1914.36C1179.27 1919.92 1159.07 1932.75 1144.46 1950.14C1129.79 1967.56 1120.56 1989.66 1119.12 2013.63C1117.63 2037.66 1124.11 2060.73 1136.55 2079.85C1148.97 2098.92 1167.42 2114.13 1189.92 2122.46C1201.91 2126.85 1208.08 2140.17 1203.7 2152.18C1199.3 2164.19 1185.97 2170.36 1173.98 2165.96C1141.89 2154.06 1115.55 2132.33 1097.77 2105.04C1080.04 2077.79 1070.81 2044.99 1072.89 2010.91C1074.97 1976.8 1088.16 1945.32 1109.1 1920.41C1112.99 1915.76 1117.18 1911.35 1121.6 1907.18C1071.82 1823.22 1041.99 1747.24 1032.17 1679.23C1021.43 1604.97 1034.28 1540.14 1070.68 1484.75L1071.32 1485.08L1071.96 1485.42L1072.6 1485.74L1073.26 1486.07L1073.9 1486.4L1075.81 1487.39L1076.47 1487.72L1077.11 1488.05L1077.75 1488.38L1078.39 1488.7C1080.98 1490.03 1083.58 1491.31 1086.17 1492.59L1086.81 1492.91L1087.47 1493.22L1088.11 1493.55L1088.77 1493.86L1092.68 1495.77L1093.34 1496.08L1093.98 1496.4L1094.64 1496.72L1095.3 1497.03L1102.51 1500.45L1103.19 1500.76L1103.83 1501.07L1104.51 1501.38L1111.12 1504.42L1111.78 1504.72L1112.46 1505.02C1111.97 1506.07 1111.38 1507.1 1110.72 1508.1C1079.74 1554.13 1068.83 1609.02 1078.04 1672.72C1086.91 1734.02 1114.14 1803.39 1159.73 1880.81C1169.89 1875.83 1180.72 1871.91 1192.05 1869.23C1235.62 1858.9 1285.1 1872.72 1321.45 1897.23C1338.35 1908.64 1352.77 1922.57 1362.76 1937.67C1373.86 1954.46 1379.69 1972.8 1378.11 1991.23C1376.39 2011.19 1366.39 2030.21 1345.64 2046.21L1345.63 2046.23Z" fill="#CBCBCB"/>
<path d="M1181.96 2177.85C1178.06 2177.85 1174.15 2177.16 1170.38 2175.78C1136.72 2163.3 1108.6 2140.82 1089.02 2110.76C1069.46 2080.72 1060.28 2045.97 1062.47 2010.29C1064.65 1974.58 1078.01 1941.18 1101.11 1913.71C1103.44 1910.93 1105.9 1908.18 1108.48 1905.5C1060.67 1823.43 1031.53 1747.85 1021.83 1680.75C1010.77 1604.25 1024.26 1536.38 1061.95 1479.04L1067.13 1471.16L1083.11 1479.41C1085.68 1480.73 1088.23 1481.99 1090.77 1483.24L1116.64 1495.47L1126.41 1499.76L1121.92 1509.44C1121.24 1510.9 1120.4 1512.39 1119.42 1513.88C1090.02 1557.58 1079.58 1610.5 1088.36 1671.25C1096.68 1728.77 1122.11 1794.73 1163.99 1867.42C1172.31 1863.94 1180.89 1861.15 1189.62 1859.08C1232.46 1848.93 1285.21 1860.22 1327.27 1888.59C1345.6 1900.96 1360.87 1915.94 1371.45 1931.93C1384.31 1951.38 1390.2 1972.2 1388.5 1992.15C1386.43 2016.14 1373.81 2037.7 1352.01 2054.51C1344.92 2059.99 1336.1 2062.38 1327.21 2061.24C1318.31 2060.1 1310.39 2055.56 1304.91 2048.46C1293.6 2033.8 1296.31 2012.68 1310.96 2001.36C1317.43 1996.37 1321.06 1991.26 1321.46 1986.57C1321.88 1981.69 1319.79 1975.63 1315.41 1969.01C1309.68 1960.36 1300.78 1951.82 1289.66 1944.32C1262.69 1926.15 1230.29 1918.57 1205.12 1924.54C1184.29 1929.48 1166.07 1940.66 1152.44 1956.87C1138.73 1973.15 1130.81 1993 1129.53 2014.27C1128.21 2035.57 1133.66 2056.28 1145.29 2074.17C1156.87 2091.96 1173.56 2105.28 1193.53 2112.68C1210.87 2119.03 1219.84 2138.37 1213.49 2155.78C1210.4 2164.22 1204.21 2170.95 1196.05 2174.73C1191.55 2176.81 1186.75 2177.86 1181.93 2177.86L1181.96 2177.85ZM1074.42 1498.43C1043.44 1549.7 1032.71 1609.98 1042.52 1677.75C1052.1 1744.04 1081.73 1819.44 1130.6 1901.87L1134.87 1909.07L1128.78 1914.81C1124.61 1918.75 1120.68 1922.89 1117.12 1927.14C1096.91 1951.17 1085.24 1980.36 1083.33 2011.56C1081.42 2042.74 1089.45 2073.1 1106.54 2099.35C1123.65 2125.62 1148.23 2145.27 1177.62 2156.17C1180.76 2157.32 1184.22 2157.19 1187.3 2155.75C1190.39 2154.32 1192.73 2151.78 1193.9 2148.59C1196.3 2142 1192.91 2134.68 1186.34 2132.27C1162.09 2123.28 1141.86 2107.13 1127.8 2085.55C1113.7 2063.87 1107.1 2038.78 1108.69 2012.98C1110.24 1987.21 1119.85 1963.14 1136.47 1943.41C1153 1923.74 1175.08 1910.18 1200.31 1904.2C1230.99 1896.92 1269.7 1905.66 1301.35 1926.99C1314.72 1936.01 1325.61 1946.55 1332.84 1957.47C1339.95 1968.22 1343.12 1978.61 1342.28 1988.34C1341.66 1995.77 1337.92 2006.95 1323.73 2017.89C1318.21 2022.16 1317.18 2030.14 1321.45 2035.67C1323.52 2038.35 1326.51 2040.06 1329.87 2040.49C1333.23 2040.92 1336.56 2040.02 1339.24 2037.95C1356.53 2024.61 1366.1 2008.59 1367.68 1990.34C1368.98 1975.14 1364.25 1958.91 1354.02 1943.44C1344.94 1929.73 1331.65 1916.74 1315.58 1905.9C1278.2 1880.7 1231.79 1870.54 1194.43 1879.4C1184.06 1881.85 1173.92 1885.48 1164.29 1890.2L1155.6 1894.45L1150.69 1886.11C1104.62 1807.86 1076.68 1736.57 1067.66 1674.22C1058.6 1611.49 1068.57 1556.15 1097.31 1509.57L1081.5 1501.96C1079.16 1500.81 1076.78 1499.63 1074.41 1498.42L1074.42 1498.43Z" fill="#1C1C25"/>
<path d="M1864.84 1517.14L1864.54 1516.44L1865.2 1516.16L1865.88 1515.88L1873.9 1512.5L1874.58 1512.22L1875.24 1511.93L1875.9 1511.64C1878.56 1510.5 1881.21 1509.34 1883.85 1508.17L1884.53 1507.88L1884.61 1507.84L1889.8 1505.52L1890.46 1505.23C1894.39 1503.44 1898.33 1501.64 1902.22 1499.81L1902.88 1499.5L1906.73 1497.67L1906.77 1497.65C1938.24 1565.05 1949.49 1632.64 1940.49 1700.35C1931.54 1767.66 1902.68 1834.58 1853.93 1901.06C1853.25 1902 1852.5 1902.87 1851.7 1903.68C1842.47 1891.3 1829.65 1881.77 1814.77 1876.6C1815.3 1875.6 1815.9 1874.62 1816.6 1873.68C1860.74 1813.51 1886.75 1753.72 1894.63 1694.36C1902.48 1635.45 1892.55 1576.37 1864.84 1517.12V1517.14Z" fill="#CBCBCB"/>
<path d="M1850.57 1919.66L1843.32 1909.94C1835.2 1899.04 1824.14 1890.93 1811.34 1886.49L1799.8 1882.48L1805.55 1871.7C1806.37 1870.16 1807.23 1868.78 1808.18 1867.49C1851.04 1809.07 1876.65 1750.36 1884.27 1692.99C1891.81 1636.37 1882.09 1578.69 1855.37 1521.56L1854.92 1520.52L1850.82 1510.88L1871.71 1502.07C1874.4 1500.92 1877.01 1499.78 1879.61 1498.63L1886.3 1495.66C1890.03 1493.96 1893.92 1492.18 1897.78 1490.37L1901.92 1488.41L1911.43 1483.06L1916.23 1493.25C1948.42 1562.19 1960.06 1632.34 1950.84 1701.75C1941.69 1770.53 1911.92 1839.67 1862.35 1907.26C1861.4 1908.57 1860.29 1909.86 1859.1 1911.06L1850.56 1919.66H1850.57ZM1830.59 1872.14C1838.12 1876.12 1845.01 1881.17 1851.09 1887.15C1895.22 1824.89 1921.8 1761.64 1930.13 1698.99C1938.39 1636.79 1928.8 1573.81 1901.61 1511.63C1899.33 1512.68 1897.05 1513.72 1894.77 1514.76L1887.87 1517.82C1885.4 1518.92 1882.7 1520.1 1880.01 1521.25L1878.47 1521.92C1903.73 1579.73 1912.65 1638.17 1904.98 1695.75C1897.23 1754.07 1872.21 1813.37 1830.59 1872.14Z" fill="#1C1C25"/>
<path fill-rule="evenodd" clip-rule="evenodd" d="M1789.27 1872.33C1832.22 1872.33 1867.07 1907.16 1867.07 1950.12C1867.07 1993.08 1832.22 2027.91 1789.27 2027.91C1746.32 2027.91 1711.49 1993.08 1711.49 1950.12C1711.49 1907.16 1746.32 1872.33 1789.27 1872.33Z" fill="#CBCBCB"/>
<path d="M1789.28 2038.36C1740.63 2038.36 1701.05 1998.78 1701.05 1950.12C1701.05 1901.46 1740.63 1861.88 1789.28 1861.88C1837.93 1861.88 1877.53 1901.47 1877.53 1950.12C1877.53 1998.77 1837.94 2038.36 1789.28 2038.36ZM1789.28 1882.78C1752.16 1882.78 1721.95 1912.99 1721.95 1950.12C1721.95 1987.25 1752.15 2017.46 1789.28 2017.46C1826.41 2017.46 1856.63 1987.25 1856.63 1950.12C1856.63 1912.99 1826.42 1882.78 1789.28 1882.78Z" fill="#1C1C25"/>
<path d="M1815.68 1980.83C1786.21 1980.83 1762.24 1956.86 1762.24 1927.4C1762.24 1897.94 1786.21 1873.96 1815.68 1873.96C1845.15 1873.96 1869.12 1897.93 1869.12 1927.4C1869.12 1956.87 1845.15 1980.83 1815.68 1980.83ZM1815.68 1894.85C1797.74 1894.85 1783.14 1909.45 1783.14 1927.39C1783.14 1945.33 1797.74 1959.93 1815.68 1959.93C1833.62 1959.93 1848.22 1945.34 1848.22 1927.39C1848.22 1909.44 1833.62 1894.85 1815.68 1894.85Z" fill="#1C1C25"/>
<path fill-rule="evenodd" clip-rule="evenodd" d="M360.183 1227.2C381.873 1208.5 406.773 1197.46 434.883 1194.09C432.223 1176.41 418.762 1162.31 401.222 1158.84C383.702 1155.36 365.863 1163.26 356.673 1178.59C347.463 1193.91 348.873 1213.36 360.183 1227.2Z" fill="#1C1C25"/>
<path d="M360.182 1244.7C359.672 1244.7 359.162 1244.68 358.662 1244.63C353.962 1244.22 349.622 1241.93 346.632 1238.27C330.692 1218.77 328.702 1191.16 341.672 1169.58C354.602 1148 379.902 1136.78 404.622 1141.68C429.322 1146.58 448.432 1166.6 452.172 1191.5C452.872 1196.18 451.652 1200.94 448.792 1204.71C445.922 1208.47 441.652 1210.92 436.952 1211.48C412.152 1214.45 390.772 1223.94 371.592 1240.46C368.402 1243.21 364.342 1244.71 360.162 1244.71L360.182 1244.7ZM393.002 1175.53C384.402 1175.53 376.222 1180.02 371.692 1187.58C369.472 1191.28 368.302 1195.4 368.162 1199.54C380.912 1191.48 394.562 1185.42 409.012 1181.4C405.862 1178.74 402.042 1176.84 397.822 1176.01C396.212 1175.69 394.602 1175.54 393.002 1175.54V1175.53Z" fill="#1C1C25"/>
<path d="M375.812 1179.17C368.672 1179.17 361.962 1174.76 359.372 1167.66C345.442 1129.46 321.342 1063.81 287.082 970.701C283.742 961.631 288.392 951.571 297.462 948.231C306.522 944.901 316.592 949.541 319.932 958.611C354.212 1051.77 378.332 1117.46 392.262 1155.67C395.572 1164.75 390.892 1174.79 381.822 1178.1C379.842 1178.82 377.822 1179.16 375.822 1179.16L375.812 1179.17Z" fill="#1C1C25"/>
<path d="M469.342 1585.42C465.062 1585.42 461.102 1582.65 459.782 1578.34C432.812 1489.98 406.722 1401.05 382.242 1314C380.742 1308.68 383.842 1303.16 389.152 1301.67C394.502 1300.18 399.992 1303.27 401.482 1308.59C425.932 1395.49 451.972 1484.29 478.902 1572.5C480.512 1577.78 477.542 1583.37 472.252 1584.99C471.282 1585.29 470.292 1585.43 469.332 1585.43L469.342 1585.42Z" fill="#1C1C25"/>
<path d="M409.802 1384.47C408.572 1384.47 407.332 1384.24 406.122 1383.76C400.992 1381.72 398.472 1375.91 400.512 1370.78C412.052 1341.67 426.432 1326.62 444.462 1324.76C449.932 1324.18 454.872 1328.19 455.432 1333.68C456.002 1339.17 452.012 1344.09 446.512 1344.65C434.342 1345.91 424.892 1363.56 419.102 1378.15C417.542 1382.07 413.782 1384.47 409.802 1384.47Z" fill="#1C1C25"/>
<path d="M430.602 1453.36C429.542 1453.36 428.462 1453.19 427.402 1452.83C422.172 1451.06 419.362 1445.38 421.132 1440.15C427.762 1420.55 440.732 1404.35 459.672 1392.02C464.292 1389 470.492 1390.31 473.512 1394.94C476.522 1399.57 475.222 1405.76 470.592 1408.78C455.292 1418.75 445.312 1431.11 440.082 1446.57C438.672 1450.74 434.782 1453.37 430.612 1453.37L430.602 1453.36Z" fill="#1C1C25"/>
<g opacity="0.3">
<path fill-rule="evenodd" clip-rule="evenodd" d="M1693.57 2140.54C1787.47 2187.76 1881.62 2187.76 1976.05 2140.54C1887.94 2148.61 1793.79 2148.61 1693.57 2140.54ZM1178.46 1873.11C1173.55 1873.68 1168.7 1874.52 1163.92 1875.66C1161.79 1876.16 1159.71 1876.7 1157.65 1877.29L1159.71 1880.82C1165.75 1877.86 1172 1875.29 1178.46 1873.11ZM1188.66 1918.71C1215.51 1916.91 1244.62 1926.74 1267.37 1942.09C1279.45 1950.22 1289.44 1959.75 1296.01 1969.68C1301.45 1977.94 1304.39 1986.3 1303.75 1993.87C1303.13 2001.18 1298.67 2008.77 1289.23 2016.05C1279.13 2023.85 1277.26 2038.4 1285.06 2048.5C1292.86 2058.61 1307.41 2060.47 1317.51 2052.67C1319.06 2051.47 1320.55 2050.26 1321.97 2049.02C1318.61 2047.52 1315.57 2045.19 1313.17 2042.08C1305.37 2031.97 1307.24 2017.44 1317.34 2009.63C1326.78 2002.36 1331.25 1994.76 1331.86 1987.45C1332.52 1979.87 1329.58 1971.51 1324.12 1963.25C1317.55 1953.32 1307.55 1943.8 1295.5 1935.66C1268.67 1917.58 1233.05 1907.18 1202.71 1914.38C1197.88 1915.52 1193.18 1916.97 1188.66 1918.72V1918.71ZM1002 1762.07C1004.85 1760.43 1007.32 1758.38 1009.4 1755.89L1009.38 1755.93C1006 1759.76 1002.9 1763.67 1000.02 1767.69L1002 1762.07ZM1949.83 1884.04C1938.92 1847.39 1920.51 1846.61 1894.57 1881.73C1887.62 1892.72 1880.11 1903.7 1872.07 1914.67L1871.28 1915.68C1883.48 1929.42 1890.9 1947.51 1890.9 1967.34C1890.9 2010.3 1856.07 2045.13 1813.12 2045.13C1790.81 2045.13 1770.72 2035.74 1756.52 2020.71C1766.47 2025.32 1777.57 2027.92 1789.27 2027.92C1832.22 2027.92 1867.07 1993.09 1867.07 1950.13C1867.07 1929.45 1858.99 1910.69 1845.83 1896.75C1847.83 1897.68 1849.78 1898.67 1851.68 1899.77C1849.36 1898.15 1846.96 1896.68 1844.47 1895.33C1841.49 1892.34 1838.28 1889.59 1834.86 1887.11C1878.92 1826.99 1904.88 1767.27 1912.77 1707.98C1921.28 1644.02 1917.98 1569.57 1891.72 1511.34C1902.16 1506.97 1907.52 1512.17 1915.15 1512.94C1945.24 1581.82 1950.38 1660.47 1930.57 1748.94C1935.5 1756.3 1940.39 1764.73 1945.26 1774.23C1943.5 1779.93 1941.58 1785.6 1939.52 1791.29C1959.17 1820.49 1976.18 1855.76 1990.62 1897.07C2004.06 1944.08 2017.24 2000 2030.17 2064.82C2043.84 2155.14 2050.56 2261.6 2050.33 2384.2C2006.95 2515.48 1842.1 2549.93 1530.46 2458.92C1846 2496.09 1964.73 2443.09 1992.82 2289.81C1972.26 2311.09 1938.45 2326.42 1891.4 2335.76C1960.99 2301.9 1996.57 2252.31 1998.12 2187.01C1994.46 2106.69 1976.64 2006.57 1949.85 1884.06L1949.83 1884.04ZM1049.35 1494.68C1045.69 1495.63 1041.99 1496.7 1038.27 1497.93C1010.5 1543.15 998.002 1594.47 1000.76 1651.92V1651.9V1652.05C1000.93 1655.55 1001.16 1659.06 1001.44 1662.6C1002.33 1701.37 984.753 1734.26 948.693 1761.24C916.652 1780.08 879.422 1792.03 836.932 1797.07C794.492 1890.19 715.602 1936.77 600.252 1936.79C621.232 1987.84 653.722 2014.29 697.762 2016.15C754.702 2087.13 824.272 2103.07 906.542 2064.01C928.382 1986.73 951.342 1911.97 975.372 1839.74L975.333 1840.95C945.443 1927.08 923.242 2026.82 908.762 2140.19C901.662 2290.12 924.792 2391.28 978.122 2443.72L978.142 2443.77L978.232 2443.82C1013.35 2478.3 1061.56 2491.64 1122.84 2483.89C1208.57 2493.7 1316.2 2489.11 1445.78 2470.11C1199.96 2471.85 1058.61 2434.05 1021.65 2356.72C1010.34 2331.45 1001.32 2302.66 994.672 2270.36C1016.46 2284.69 1045.74 2293.92 1082.49 2298.02C1022.42 2262.41 988.492 2207.22 980.693 2132.48C979.503 2071.67 983.433 2003.15 992.473 1926.94C1006.44 1820.05 1028.42 1794.14 1058.45 1849.21C1068.76 1870.13 1080.46 1891.61 1093.51 1913.61C1089.09 1917.78 1084.9 1922.19 1081.01 1926.84C1060.04 1951.76 1046.88 1983.23 1044.8 2017.34C1042.72 2051.43 1051.94 2084.23 1069.68 2111.47C1087.46 2138.76 1113.8 2160.49 1145.86 2172.39C1155.45 2175.9 1165.85 2172.7 1171.88 2165.17C1140.75 2153.13 1115.17 2131.75 1097.78 2105.05C1080.05 2077.8 1070.82 2045 1072.9 2010.92C1074.98 1976.81 1088.17 1945.33 1109.11 1920.42C1113 1915.77 1117.19 1911.36 1121.61 1907.19C1071.83 1823.23 1042 1747.25 1032.18 1679.24C1022.44 1611.91 1032.1 1552.33 1061.12 1500.52L1060.65 1500.3L1059.99 1499.98L1059.33 1499.66L1058.69 1499.34L1058.03 1499.02C1055.46 1497.74 1052.84 1496.46 1050.27 1495.14L1049.63 1494.81L1049.36 1494.67L1049.35 1494.68Z" fill="#1C1C25"/>
</g>
<path d="M687.953 2033.84C685.603 2033.84 683.262 2033.81 680.902 2033.74C671.242 2033.46 663.632 2025.41 663.902 2015.75C664.172 2006.26 671.952 1998.75 681.392 1998.75C681.562 1998.75 681.732 1998.75 681.902 1998.75C765.022 2001.16 842.373 1954.33 878.813 1879.52C915.243 1804.7 904.422 1715 851.252 1651.01C845.072 1643.58 846.092 1632.54 853.532 1626.37C860.962 1620.19 872.003 1621.21 878.173 1628.65C940.103 1703.2 952.712 1807.69 910.272 1894.85C868.862 1979.87 782.143 2033.84 687.953 2033.84Z" fill="#1C1C25"/>
<path d="M1057.6 2112.16C1076.11 2122.65 1093.71 2132.02 1112.06 2139.26C1130.3 2146.59 1148.94 2152.1 1168.07 2155.5C1187.21 2158.84 1206.77 2159.83 1226.52 2158.68C1246.31 2157.53 1266.15 2154.01 1286.56 2148.86L1286.64 2148.84C1289.83 2148.04 1293.06 2149.97 1293.86 2153.15C1294.46 2155.52 1293.54 2157.92 1291.71 2159.33C1274.05 2172.86 1252.96 2182.16 1230.82 2187.28C1208.64 2192.43 1185.31 2193.21 1162.58 2189.85C1139.85 2186.53 1117.68 2178.84 1098.06 2167.07C1078.54 2155.24 1061.26 2139.65 1049.45 2120.49C1047.71 2117.67 1048.59 2113.96 1051.41 2112.22C1053.34 2111.03 1055.68 2111.06 1057.52 2112.1L1057.61 2112.15L1057.6 2112.16Z" fill="#1C1C25"/>
<path d="M1695.89 2148.58C1719.87 2151.17 1742.82 2154.42 1765.81 2156.48C1788.75 2158.67 1811.56 2160.1 1834.45 2160.42C1857.34 2160.7 1880.25 2159.65 1903.27 2157.58C1926.34 2155.64 1949.34 2152.11 1973.01 2148.59H1973.04C1976.28 2148.1 1979.3 2150.34 1979.78 2153.58C1980.15 2156.07 1978.9 2158.43 1976.84 2159.61C1955.44 2171.75 1932.06 2180.1 1908.09 2186.1C1884.07 2191.98 1859.27 2194.93 1834.45 2195.21C1809.63 2195.53 1784.73 2192.95 1760.63 2187.19C1736.58 2181.3 1713.15 2172.67 1692.07 2159.6C1689.26 2157.86 1688.4 2154.18 1690.14 2151.37C1691.39 2149.35 1693.65 2148.34 1695.86 2148.57H1695.91L1695.89 2148.58Z" fill="#1C1C25"/>
<path d="M1480.7 2414.48C1480.56 2414.48 1480.42 2414.48 1480.28 2414.48C1470.62 2414.25 1462.97 2406.23 1463.2 2396.57C1468.34 2179.35 1470.98 2005.78 1471.04 1880.68C1471.04 1877.31 1472.02 1874.01 1473.85 1871.18C1572.1 1719.41 1652.19 1611.11 1711.93 1549.29C1718.66 1542.33 1729.73 1542.15 1736.68 1548.86C1743.63 1555.58 1743.82 1566.65 1737.11 1573.61C1679.5 1633.23 1601.78 1738.27 1506.05 1885.87C1505.92 2010.83 1503.28 2182.88 1498.2 2397.4C1497.98 2406.92 1490.18 2414.49 1480.71 2414.49L1480.7 2414.48Z" fill="#1C1C25"/>
<path d="M1488.55 1898.19C1482.42 1898.19 1476.47 1894.97 1473.27 1889.24C1383.08 1728.25 1295.37 1617.72 1212.58 1560.75C1204.62 1555.27 1202.6 1544.37 1208.09 1536.41C1213.57 1528.45 1224.47 1526.44 1232.43 1531.92C1319.68 1591.96 1410.98 1706.43 1503.82 1872.14C1508.54 1880.57 1505.54 1891.24 1497.11 1895.96C1494.4 1897.47 1491.47 1898.19 1488.57 1898.19H1488.55Z" fill="#1C1C25"/>
<path d="M1486.93 2094.6C1486.52 2094.6 1486.1 2094.59 1485.68 2094.56C1477.15 2093.95 1470.3 2087.27 1469.49 2078.76C1454.83 1924.49 1360.06 1830.7 1179.76 1792.04C1171.12 1790.19 1165.22 1782.19 1166 1773.39C1169.15 1737.67 1172.81 1699.67 1176.9 1660.13C1161.98 1665.66 1140.12 1675.09 1108.11 1690.93C1103.18 1693.36 1097.4 1693.34 1092.49 1690.88C1087.58 1688.41 1084.12 1683.78 1083.13 1678.37C1075.26 1634.87 1074.39 1573.85 1080.57 1497C1081.34 1487.37 1089.7 1480.16 1099.41 1480.96C1109.04 1481.73 1116.23 1490.17 1115.45 1499.81C1110.57 1560.61 1110.19 1610.66 1114.3 1649.07C1151.23 1631.62 1177.42 1621.66 1194.01 1618.76C1199.41 1617.81 1204.96 1619.46 1208.98 1623.22C1212.99 1626.97 1215.01 1632.39 1214.43 1637.86C1209.84 1680.91 1205.74 1722.35 1202.21 1761.28C1357.4 1798.16 1453.92 1878.54 1490.16 2000.81C1550.32 1816.01 1651.87 1724.63 1792.48 1729.04C1788.4 1696.58 1779.16 1667.81 1764.91 1643.3C1762.16 1638.56 1761.78 1632.8 1763.9 1627.74C1766.02 1622.68 1770.39 1618.91 1775.71 1617.55C1804.55 1610.18 1832.79 1610.19 1859.94 1617.55C1860.93 1571.82 1859.29 1537.96 1855.04 1516.71C1853.15 1507.23 1859.3 1498.01 1868.78 1496.12C1878.25 1494.21 1887.48 1500.37 1889.37 1509.85C1894.93 1537.71 1896.51 1581.17 1894.2 1642.7C1893.99 1648.5 1890.9 1653.81 1885.98 1656.89C1881.05 1659.97 1874.92 1660.39 1869.62 1658.05C1849.07 1648.94 1828.2 1645.46 1806.32 1647.57C1819.35 1676.82 1827.04 1710.07 1829.22 1746.74C1829.52 1751.84 1827.58 1756.82 1823.91 1760.37C1820.23 1763.92 1815.2 1765.69 1810.11 1765.2C1658.66 1750.93 1558.53 1854.26 1503.89 2081.24C1501.99 2089.15 1494.92 2094.65 1486.89 2094.65L1486.93 2094.6Z" fill="#1C1C25"/>
<g opacity="0.3">
<path fill-rule="evenodd" clip-rule="evenodd" d="M1194.79 1657.24C1154.88 1653.93 1121.14 1663.94 1093.56 1687.25C1115.44 1703.62 1134.45 1705.63 1150.59 1693.29C1136.17 1752.72 1142.11 1784.06 1168.34 1787.32C1340.76 1861.47 1446.78 1971.23 1486.35 2116.6C1479.52 1929.44 1385.07 1817.05 1202.98 1779.41C1190.22 1723.88 1187.5 1683.16 1194.79 1657.23" fill="#1C1C25"/>
</g>
<g opacity="0.3">
<path fill-rule="evenodd" clip-rule="evenodd" d="M1907.77 1497.19C1899.76 1489.27 1905.13 1486.63 1923.91 1489.27C1956.55 1550.1 1978.62 1616.7 1990.1 1689.06C2044.26 1858.35 2127.05 1938.81 2238.51 1930.43C2096.47 2010.55 2095.26 2091.72 2217.33 2189.94C2161.54 2237.35 2065.94 2250.56 2057.82 2219.67C2018.04 1973.13 1975.62 1816.22 1930.56 1748.92C1951.89 1653.65 1944.3 1569.75 1907.77 1497.19Z" fill="#1C1C25"/>
</g>
<g opacity="0.3">
<path fill-rule="evenodd" clip-rule="evenodd" d="M1838.67 1896.69C1851.92 1904.37 1859.13 1919.36 1856.85 1934.49C1854.98 1947.02 1846.92 1957.56 1835.71 1962.77C1854.59 1956.67 1864.56 1957.41 1865.63 1965.05C1857.23 1994.16 1833.27 2016.16 1803.54 2022.05C1773.79 2027.94 1743.26 2016.75 1724.38 1993.05C1756.17 2009.73 1795.4 1999.99 1815.68 1970.38C1820.3 1968.42 1824.59 1966.72 1828.57 1965.25L1828.38 1965.29C1813.48 1968.73 1797.95 1962.73 1789.28 1950.12C1804.04 1954.19 1819.85 1949.69 1830.25 1938.45C1840.65 1927.2 1843.9 1911.09 1838.67 1896.69Z" fill="#1C1C25"/>
</g>
<g opacity="0.3">
<path fill-rule="evenodd" clip-rule="evenodd" d="M1668.86 2863.77C1791.44 2959.68 1936.6 2948.46 2104.34 2830.13C1859.56 2915.17 1737 2833.83 1736.64 2586.12C1739.21 2546.68 1813.21 2513.1 1958.64 2485.41C1777.14 2496.89 1656.13 2499.33 1595.64 2492.73C1567.06 2639.86 1591.47 2763.54 1668.85 2863.78M1180.09 2944.57C1055.06 2968.66 970.972 2944.75 927.812 2872.85C1143.1 2901.87 1237.5 2797.75 1211.01 2560.44C1213.33 2540.61 1144.86 2508.76 1005.55 2464.85C1200.06 2483.76 1340.29 2490.9 1426.26 2486.26C1477.5 2762.6 1395.43 2915.36 1180.1 2944.56L1180.09 2944.57Z" fill="#1C1C25"/>
</g>
<g opacity="0.3">
<path fill-rule="evenodd" clip-rule="evenodd" d="M672.112 1925.49C767.672 1899.11 824.312 1851.32 842.022 1782.09C789.842 1803.95 744.192 1816.67 705.022 1820.3C630.922 1832.12 575.042 1822.8 537.362 1792.35C539.442 1767.91 539.442 1750.28 537.362 1739.49C490.222 1751.62 462.842 1738.58 455.182 1700.39C423.802 1682.55 408.642 1667.62 409.722 1655.65C390.312 1686.41 365.712 1705.28 335.942 1712.28C354.762 1739.85 375.002 1752.69 396.672 1750.79C412.642 1833.31 451.192 1859.09 512.252 1828.12C535.302 1844.54 559.582 1861.29 585.072 1878.32C580.412 1923.54 609.422 1939.25 672.102 1925.48" fill="#1C1C25"/>
</g>
<path d="M2104.53 2246.04C2087.45 2246.04 2070.18 2244.06 2053.02 2240.01C2044.42 2237.98 2038.03 2230.76 2037.05 2221.98C2031.85 2175.36 2022.39 2120.23 2006.34 2043.24C2006.28 2042.94 2006.22 2042.64 2006.17 2042.33C2004.63 2032.87 2002.79 2023.01 2000.69 2013.02C1999.35 2006.64 2001.07 2000 2005.33 1995.06C2077.2 1911.89 2193.94 1883.77 2295.78 1925.06C2300.85 1927.12 2304.92 1931.08 2307.1 1936.1C2340.74 2013.49 2328.02 2101.77 2273.9 2166.51C2231.09 2217.71 2169.18 2246.03 2104.53 2246.03V2246.04ZM2076.78 2202.09C2138.83 2211.68 2201.02 2188.51 2241.83 2139.71C2283.9 2089.39 2295.13 2021.54 2272 1960.73C2191.88 1931.91 2102.29 1953.23 2043.73 2014.93C2045.07 2021.79 2046.28 2028.56 2047.36 2035.16C2061.93 2105.12 2071.18 2157.51 2076.78 2202.09Z" fill="#1C1C25"/>
<path d="M1828.83 2949.86C1764.73 2949.86 1710.84 2930.59 1668.11 2892.27C1587.42 2819.9 1550.96 2684.02 1559.74 2488.4C1560.03 2481.98 1563.26 2476.04 1568.49 2472.31C1573.73 2468.57 1580.4 2467.47 1586.55 2469.29C1595.28 2471.88 1604.67 2473.25 1614.45 2473.37C1615.08 2473.37 1615.71 2473.41 1616.33 2473.48C1837.5 2496.35 1953.59 2481.63 2004.45 2424.27C2010.72 2417.19 2020.98 2415.2 2029.44 2419.44C2036.5 2422.97 2040.99 2430.18 2041.02 2438.08C2041.05 2448.08 2041.04 2457.87 2041.03 2467.42C2040.97 2541.31 2040.91 2605.13 2061.83 2628.17C2129.15 2702.36 2152.72 2764.3 2133.88 2817.53C2111.38 2881.09 2029.94 2922.89 1884.9 2945.33C1865.43 2948.35 1846.72 2949.85 1828.82 2949.85L1828.83 2949.86ZM1600.66 2514.44C1596.47 2681.71 1629.29 2801.3 1696.03 2861.16C1740.9 2901.41 1802.31 2915.83 1878.53 2904.04C2003.4 2884.72 2078.08 2849.99 2094.5 2803.6C2107.55 2766.73 2086.15 2717.17 2030.9 2656.28C2000.98 2623.31 1999.28 2564.14 1999.25 2482.76C1929.68 2526.41 1811.53 2535.64 1612.97 2515.17C1608.82 2515.09 1604.72 2514.85 1600.67 2514.44H1600.66Z" fill="#1C1C25"/>
<path d="M1102.21 2970.07C1084.38 2970.07 1065.85 2969.46 1046.6 2968.24C980.422 2964.04 923.802 2924.27 902.342 2866.92C883.552 2816.69 896.082 2763.06 935.862 2723.27C976.972 2673.82 984.312 2581.17 957.652 2447.87C956.072 2439.96 959.172 2431.86 965.632 2427.03C972.082 2422.2 980.732 2421.51 987.882 2425.27C994.982 2429.01 1002.93 2431.54 1011.5 2432.8C1012.03 2432.88 1012.56 2432.98 1013.08 2433.1C1161.39 2466.78 1296.23 2478.97 1413.97 2469.34C1415.7 2468.19 1417.4 2467 1419.05 2465.77C1424.97 2461.37 1432.77 2460.42 1439.55 2463.25C1446.35 2466.08 1451.16 2472.28 1452.21 2479.58C1478.82 2664.96 1455.9 2793.89 1382.14 2873.74C1322.45 2938.35 1230.55 2970.07 1102.22 2970.07H1102.21ZM1049.25 2926.52C1193.66 2935.68 1292.53 2909.14 1351.42 2845.38C1412.82 2778.91 1433.44 2669.45 1414.23 2511.26C1293.29 2520.75 1155.67 2508.26 1004.95 2474.13C1026.57 2604.6 1014.15 2695.33 967.242 2750.91C966.832 2751.39 966.412 2751.85 965.962 2752.29C937.252 2780.66 928.332 2817.1 941.502 2852.28C957.192 2894.23 999.492 2923.37 1049.25 2926.53V2926.52Z" fill="#1C1C25"/>
<path d="M1146.74 330.08C1146.74 486.4 1020.02 613.12 863.703 613.12C792.513 613.12 727.382 586.78 677.612 543.36C618.132 491.54 580.603 415.21 580.603 330.08C580.603 173.7 707.323 46.9805 863.703 46.9805C932.893 46.9805 996.253 71.7805 1045.44 113.03C1107.37 164.96 1146.74 242.95 1146.74 330.08Z" fill="#35313F"/>
<g opacity="0.3">
<path d="M1146.74 330.079C1146.74 486.399 1020.02 613.119 863.702 613.119C792.512 613.119 727.382 586.779 677.612 543.359C735.262 392.239 843.302 219.519 1045.44 113.029C1107.37 164.959 1146.74 242.949 1146.74 330.079Z" fill="#1C1C25"/>
</g>
<g opacity="0.6">
<path d="M846.562 98.4102C915.752 98.4102 979.112 123.21 1028.3 164.46C1090.23 216.39 1129.6 294.38 1129.6 381.51C1129.6 403.34 1127.05 424.56 1122.37 444.97C1137.99 409.85 1146.74 371 1146.74 330.09C1146.74 242.96 1107.37 164.97 1045.44 113.04C996.252 71.7902 932.892 46.9902 863.702 46.9902C729.172 46.9902 616.672 140.81 587.842 266.58C631.912 167.51 731.122 98.4102 846.562 98.4102Z" fill="white"/>
</g>
<path d="M863.672 633.13C696.562 633.13 560.612 497.18 560.612 330.06C560.612 162.94 696.562 27 863.672 27C1030.78 27 1166.73 162.95 1166.73 330.06C1166.73 497.17 1030.78 633.13 863.672 633.13ZM863.672 66.99C718.612 66.99 600.602 185 600.602 330.06C600.602 475.12 718.612 593.13 863.672 593.13C1008.73 593.13 1126.74 475.12 1126.74 330.06C1126.74 185 1008.73 66.99 863.672 66.99Z" fill="#1C1C25"/>
<path d="M1844.46 330.08C1844.46 486.4 1971.18 613.12 2127.5 613.12C2198.69 613.12 2263.82 586.78 2313.59 543.36C2373.07 491.54 2410.6 415.21 2410.6 330.08C2410.6 173.7 2283.88 46.9805 2127.5 46.9805C2058.31 46.9805 1994.95 71.7805 1945.76 113.03C1883.83 164.96 1844.46 242.95 1844.46 330.08Z" fill="#35313F"/>
<g opacity="0.3">
<path d="M1844.46 330.079C1844.46 486.399 1971.18 613.119 2127.5 613.119C2198.69 613.119 2263.82 586.779 2313.59 543.359C2255.94 392.239 2147.9 219.519 1945.76 113.029C1883.83 164.959 1844.46 242.949 1844.46 330.079Z" fill="#1C1C25"/>
</g>
<g opacity="0.6">
<path d="M2144.64 98.4102C2075.45 98.4102 2012.09 123.21 1962.9 164.46C1900.97 216.39 1861.6 294.38 1861.6 381.51C1861.6 403.34 1864.15 424.56 1868.83 444.97C1853.21 409.85 1844.46 371 1844.46 330.09C1844.46 242.96 1883.83 164.97 1945.76 113.04C1994.95 71.7902 2058.31 46.9902 2127.5 46.9902C2262.03 46.9902 2374.53 140.81 2403.36 266.58C2359.29 167.51 2260.08 98.4102 2144.64 98.4102Z" fill="white"/>
</g>
<path d="M2127.52 633.13C1960.41 633.13 1824.46 497.18 1824.46 330.06C1824.46 162.94 1960.41 27 2127.52 27C2294.63 27 2430.58 162.95 2430.58 330.06C2430.58 497.17 2294.63 633.13 2127.52 633.13ZM2127.52 66.99C1982.46 66.99 1864.45 185 1864.45 330.06C1864.45 475.12 1982.46 593.13 2127.52 593.13C2272.58 593.13 2390.59 475.12 2390.59 330.06C2390.59 185 2272.58 66.99 2127.52 66.99Z" fill="#1C1C25"/>
<path d="M2318.95 844.43C2318.95 844.43 2301.41 71.4805 1495.6 71.4805C689.792 71.4805 672.252 844.43 672.252 844.43C338.272 1574.39 1495.6 1557.25 1495.6 1557.25C1495.6 1557.25 2652.93 1574.39 2318.95 844.43Z" fill="white"/>
<path d="M1501.39 1559.93C1497.73 1559.93 1495.73 1559.91 1495.55 1559.9C1494.03 1559.9 1333.74 1561.87 1152.08 1527.83C984.152 1496.36 763.052 1426.82 663.432 1274.18C589.092 1160.29 591.162 1015.5 669.602 843.81C670.002 832.12 677.952 643.18 779.402 456.68C840.652 344.08 923.472 254.36 1025.57 190C1153.14 109.59 1311.27 68.8203 1495.58 68.8203C1679.89 68.8203 1838.03 109.59 1965.59 190C2067.69 254.36 2150.51 344.08 2211.76 456.68C2313.21 643.18 2321.16 832.11 2321.56 843.81C2400 1015.5 2402.07 1160.29 2327.73 1274.18C2228.11 1426.82 2007.01 1496.36 1839.08 1527.83C1676.93 1558.21 1531.81 1559.92 1501.37 1559.92L1501.39 1559.93ZM1495.56 1554.6C1497.25 1554.64 1657.06 1556.57 1838.22 1522.61C2005.1 1491.33 2224.73 1422.34 2323.32 1271.29C2396.66 1158.92 2394.38 1015.67 2316.54 845.54L2316.3 844.5C2316.26 842.57 2310.7 649.53 2207.03 459.06C2111.46 283.46 1910.46 74.1403 1495.6 74.1403C1080.74 74.1403 879.632 283.55 784.082 459.23C680.472 649.7 674.952 842.57 674.912 844.5L674.672 845.54C596.832 1015.67 594.552 1158.91 667.892 1271.29C766.472 1422.34 986.102 1491.33 1152.99 1522.61C1334.14 1556.56 1494.01 1554.62 1495.57 1554.6H1495.56Z" fill="#1C1C25"/>
<path d="M1174.57 968.89C1174.57 968.89 1218.54 824.99 1304.75 724.95C1351.43 670.78 1359.31 591.81 1319.9 532.14C1294.84 494.2 1250.93 463.84 1174.56 463.84C970.913 463.84 827.002 720.53 822.932 878.65C818.862 1036.77 912.533 1111.01 976.343 1116.66C1040.15 1122.3 1140.61 1103.31 1174.56 968.9L1174.57 968.89Z" fill="#35313F"/>
<path d="M1816.62 968.89C1816.62 968.89 1772.65 824.99 1686.44 724.95C1639.76 670.78 1631.88 591.81 1671.29 532.14C1696.35 494.2 1740.26 463.84 1816.63 463.84C2020.28 463.84 2164.19 720.53 2168.26 878.65C2172.33 1036.77 2078.66 1111.01 2014.85 1116.66C1951.04 1122.3 1850.58 1103.31 1816.63 968.9L1816.62 968.89Z" fill="#35313F"/>
<g opacity="0.3">
<path d="M1495.6 1557.26C1495.6 1557.26 365.662 1574 660.992 870.221C503.762 1453.67 1495.6 1441.1 1495.6 1441.1C1495.6 1441.1 2504.64 1452.13 2321.59 850.221C2646.8 1574.28 1495.6 1557.25 1495.6 1557.25V1557.26Z" fill="#1C1C25"/>
</g>
<g opacity="0.3">
<path d="M1693.3 940.049C1688.05 933.379 1677.43 935.769 1675.57 944.049C1669.56 970.789 1652.82 1015.08 1608 1014.37C1543.85 1013.35 1554.54 916.109 1554.54 916.109H1436.43C1436.43 916.109 1447.12 1013.35 1382.97 1014.37C1338.14 1015.08 1321.41 970.789 1315.4 944.049C1313.54 935.769 1302.92 933.379 1297.67 940.049C1282.21 959.679 1261.91 995.659 1277.08 1036.77C1299.99 1098.88 1378.9 1111.56 1378.9 1111.56L1495.49 1035.75L1612.08 1111.56C1612.08 1111.56 1690.99 1098.88 1713.9 1036.77C1729.06 995.659 1708.77 959.679 1693.31 940.049H1693.3Z" fill="#1C1C25"/>
</g>
<path d="M1614.29 826.29C1571.11 801.56 1495.6 802.98 1495.6 802.98C1495.6 802.98 1420.09 801.56 1376.91 826.29C1362.53 834.52 1356.7 852.42 1362.78 867.83C1375.54 900.13 1409.75 954.35 1495.59 954.35C1581.43 954.35 1615.64 900.12 1628.4 867.83C1634.49 852.42 1628.65 834.52 1614.27 826.29H1614.29Z" fill="#1C1C25"/>
<path d="M1518.32 927.599C1518.63 930.449 1518.73 932.189 1518.88 934.399L1519.14 940.599C1519.25 944.699 1519.28 948.769 1519.09 952.839C1518.75 960.969 1517.99 969.109 1516.66 977.269C1513.94 993.509 1509.06 1010.02 1500.61 1025.59C1496.33 1033.35 1491.1 1040.81 1485.01 1047.66C1478.98 1054.59 1471.59 1060.42 1463.89 1065.46C1456.12 1070.52 1447.65 1074.07 1439.18 1077C1430.65 1079.55 1422.02 1081.44 1413.53 1082.07C1396.33 1083.48 1380.76 1082.38 1364.38 1079.39C1356.23 1077.79 1348.07 1075.48 1340.05 1072.08C1332.05 1068.8 1324.17 1064.5 1317.05 1058.88C1302.75 1047.83 1291.73 1031.56 1288.19 1014.51C1284.72 997.419 1286.74 980.599 1294.85 965.949C1296.17 963.549 1299.19 962.679 1301.59 964.009C1302.87 964.719 1303.71 965.899 1304.02 967.219L1304.18 967.929C1310.65 996.149 1318.42 1019.27 1337.23 1030.9C1341.84 1033.89 1347.12 1036.15 1352.76 1037.84C1355.5 1038.81 1358.53 1039.33 1361.43 1040.04C1364.48 1040.5 1367.45 1041.11 1370.58 1041.43C1382.92 1042.82 1396.69 1042.7 1408.37 1040.78C1414.36 1039.88 1419.89 1038.21 1425.22 1036.4C1430.34 1034.23 1435.29 1031.92 1439.55 1028.74C1448.16 1022.56 1455.02 1014.26 1460.23 1004.14C1465.22 993.899 1468.94 982.229 1470.8 969.779C1471.81 963.579 1472.5 957.229 1472.81 950.839C1472.95 947.649 1473.1 944.439 1473.09 941.269L1473.04 936.559L1472.86 932.479L1472.8 931.079C1472.24 918.479 1482 907.819 1494.6 907.259C1506.68 906.719 1517 915.759 1518.31 927.609L1518.32 927.599Z" fill="#1C1C25"/>
<path d="M1518.32 932.47L1518.14 936.55L1518.09 941.26C1518.09 944.43 1518.24 947.63 1518.37 950.83C1518.68 957.22 1519.37 963.57 1520.38 969.77C1522.24 982.23 1525.95 993.89 1530.95 1004.13C1536.16 1014.25 1543.03 1022.56 1551.63 1028.73C1555.89 1031.91 1560.84 1034.22 1565.96 1036.39C1571.29 1038.2 1576.82 1039.86 1582.81 1040.77C1594.49 1042.69 1608.25 1042.81 1620.6 1041.42C1623.73 1041.1 1626.7 1040.49 1629.75 1040.03C1632.65 1039.32 1635.68 1038.79 1638.42 1037.83C1644.06 1036.14 1649.34 1033.88 1653.95 1030.89C1672.76 1019.27 1680.53 996.14 1687 967.92L1687.16 967.23C1687.77 964.56 1690.43 962.89 1693.1 963.5C1694.52 963.83 1695.67 964.75 1696.33 965.94C1704.43 980.59 1706.45 997.42 1702.98 1014.5C1699.45 1031.55 1688.43 1047.82 1674.13 1058.87C1667.01 1064.5 1659.13 1068.79 1651.13 1072.07C1643.11 1075.46 1634.95 1077.78 1626.8 1079.38C1610.42 1082.37 1594.85 1083.47 1577.65 1082.06C1569.17 1081.43 1560.53 1079.55 1552 1076.99C1543.53 1074.06 1535.06 1070.51 1527.29 1065.45C1519.59 1060.42 1512.19 1054.59 1506.17 1047.65C1500.07 1040.8 1494.85 1033.35 1490.57 1025.58C1482.11 1010.01 1477.23 993.5 1474.51 977.26C1473.18 969.11 1472.43 960.97 1472.08 952.83C1471.89 948.76 1471.92 944.69 1472.03 940.59L1472.29 934.39C1472.44 932.17 1472.54 930.44 1472.85 927.59C1474.21 915.05 1485.47 905.99 1498.01 907.35C1510.04 908.65 1518.87 919.07 1518.37 930.99L1518.3 932.46L1518.32 932.47Z" fill="#1C1C25"/>
<path d="M1495.6 960.041C1495.6 966.211 1495.37 972.151 1495.03 977.751C1494.63 972.151 1494.4 966.211 1494.4 960.041H1495.6Z" fill="#222A66"/>
<path d="M1492.38 977.941C1491.96 972.031 1491.75 966.011 1491.75 960.041V957.391H1498.25V960.041C1498.25 965.721 1498.06 971.561 1497.67 977.911L1492.38 977.941Z" fill="#1C1C25"/>
<path d="M1495.6 1255.23H1495.03C1427.35 1255.23 1389.88 1224.8 1369.29 1188.01C1337.78 1131.55 1346 1060.04 1346 1060.04C1346 1060.04 1485.15 1106.15 1495.08 967.881C1504.96 1106.15 1644.11 1060.04 1644.11 1060.04C1644.11 1060.04 1666.52 1254.81 1495.6 1255.23Z" fill="#1C1C25"/>
<path d="M1495.6 1116.66C1406.39 1116.66 1369.29 1188.02 1369.29 1188.02C1389.89 1224.81 1427.35 1255.24 1495.03 1255.24H1496.17C1563.85 1255.24 1601.32 1224.81 1621.91 1188.02C1621.91 1188.02 1584.81 1116.66 1495.6 1116.66Z" fill="#FF4379"/>
<path d="M1495.05 1275.22C1442.48 1275.22 1400.89 1258.46 1371.43 1225.42C1314.87 1161.98 1325.64 1061.98 1326.13 1057.75C1326.82 1051.77 1330.17 1046.42 1335.24 1043.18C1340.31 1039.95 1346.58 1039.16 1352.29 1041.05C1352.82 1041.22 1409.88 1059.38 1445.2 1033.75C1462.55 1021.15 1472.55 999.029 1475.01 967.859C1474.67 962.679 1474.51 957.349 1474.51 951.859C1474.51 940.819 1483.46 931.859 1494.51 931.859C1494.88 931.859 1495.25 931.859 1495.62 931.859C1506.66 931.859 1515.62 940.809 1515.62 951.859C1515.62 957.349 1515.45 962.679 1515.12 967.859C1517.59 999.029 1527.59 1021.15 1544.93 1033.75C1580.25 1059.38 1637.31 1041.22 1637.88 1041.04C1643.58 1039.18 1649.85 1039.97 1654.9 1043.22C1659.95 1046.46 1663.3 1051.79 1663.99 1057.75C1664.48 1061.98 1675.25 1161.97 1618.7 1225.42C1589.24 1258.47 1547.65 1275.22 1495.08 1275.22H1495.05ZM1365.07 1084.87C1365.44 1113.95 1370.9 1164.83 1401.39 1198.93C1422.93 1223.01 1454.44 1235.22 1495.05 1235.22C1535.66 1235.22 1567.16 1223.01 1588.7 1198.93C1619.19 1164.84 1624.65 1113.97 1625.02 1084.87C1598.24 1089.18 1555.37 1090.63 1521.61 1066.26C1510.96 1058.57 1502.1 1049.04 1495.04 1037.69C1487.98 1049.03 1479.13 1058.57 1468.48 1066.26C1434.73 1090.64 1391.87 1089.18 1365.07 1084.87Z" fill="#1C1C25"/>
<path d="M1495.49 845.06C1533.45 845.06 1564.22 840.046 1564.22 833.86C1564.22 827.675 1533.45 822.66 1495.49 822.66C1457.53 822.66 1426.76 827.675 1426.76 833.86C1426.76 840.046 1457.53 845.06 1495.49 845.06Z" fill="white"/>
<path d="M1495.49 847.71C1488.19 847.71 1424.11 847.32 1424.11 833.86C1424.11 820.4 1488.19 820.01 1495.49 820.01C1502.79 820.01 1566.87 820.4 1566.87 833.86C1566.87 847.32 1502.79 847.71 1495.49 847.71ZM1429.55 833.86C1432.23 836.9 1453.87 842.41 1495.49 842.41C1537.11 842.41 1558.75 836.91 1561.43 833.86C1558.75 830.82 1537.1 825.32 1495.49 825.32C1453.88 825.32 1432.23 830.82 1429.55 833.86Z" fill="#1C1C25"/>
<path d="M1501.21 1577.27C1498.2 1577.27 1496.3 1577.25 1495.59 1577.25C1487.66 1577.33 1328.52 1578.54 1148.89 1544.89C899.792 1498.22 731.582 1410.33 648.912 1283.67C571.582 1165.18 572.762 1015.84 652.402 839.771C653.672 809.481 665.272 630.25 764.182 448.4C826.862 333.17 911.702 241.29 1016.34 175.34C1146.72 93.1505 1307.97 51.4805 1495.6 51.4805C1683.23 51.4805 1844.48 93.1505 1974.86 175.34C2079.5 241.29 2164.34 333.17 2227.02 448.4C2325.93 630.24 2337.52 809.481 2338.8 839.771C2418.43 1015.84 2419.62 1165.18 2342.29 1283.67C2259.62 1410.33 2091.41 1498.21 1842.31 1544.89C1678.67 1575.55 1532.02 1577.28 1501.22 1577.28L1501.21 1577.27ZM1495.6 1537.25C1495.7 1537.25 1495.8 1537.25 1495.89 1537.25C1502.2 1537.35 2125.23 1543.12 2308.81 1261.77C2378.66 1154.71 2375.95 1017.1 2300.76 852.75C2299.63 850.281 2299.02 847.611 2298.95 844.901C2298.91 843 2293.24 653.05 2191.18 466.24C2055.33 217.57 1821.3 91.4905 1495.59 91.4905C1169.88 91.4905 935.022 218.01 799.302 467.52C697.682 654.34 692.272 843.01 692.232 844.891C692.172 847.61 691.562 850.281 690.422 852.76C615.222 1017.11 612.522 1154.72 682.372 1261.78C865.942 1543.13 1488.98 1537.36 1495.29 1537.26C1495.39 1537.26 1495.49 1537.26 1495.58 1537.26L1495.6 1537.25Z" fill="#1C1C25"/>
<path d="M1198.59 748.736C1205.75 678.857 1170.19 617.97 1119.17 612.743C1068.15 607.515 1020.98 659.925 1013.82 729.804C1006.66 799.684 1042.22 860.57 1093.24 865.798C1144.27 871.026 1191.43 818.615 1198.59 748.736Z" fill="#1C1C25"/>
<path d="M1144.31 689.152C1146.57 667.11 1132.55 647.618 1113 645.615C1093.45 643.612 1075.78 659.857 1073.52 681.899C1071.26 703.942 1085.28 723.434 1104.82 725.437C1124.37 727.44 1142.05 711.195 1144.31 689.152Z" fill="white"/>
<g opacity="0.3">
<path d="M1074.59 771.01C1060.37 769.55 1047.67 779.9 1046.21 794.11C1044.75 808.33 1055.1 821.03 1069.31 822.49C1083.53 823.95 1096.23 813.6 1097.69 799.39C1099.15 785.17 1088.8 772.47 1074.59 771.01Z" fill="white"/>
</g>
<path d="M1888.5 865.695C1939.53 860.467 1975.09 799.581 1967.93 729.702C1960.77 659.822 1913.6 607.412 1862.58 612.64C1811.55 617.868 1775.99 678.754 1783.15 748.633C1790.31 818.512 1837.48 870.923 1888.5 865.695Z" fill="#1C1C25"/>
<path d="M1876.9 725.317C1896.45 723.314 1910.47 703.821 1908.21 681.779C1905.95 659.737 1888.27 643.492 1868.73 645.495C1849.18 647.497 1835.16 666.99 1837.42 689.032C1839.68 711.074 1857.36 727.32 1876.9 725.317Z" fill="white"/>
<g opacity="0.3">
<path d="M1907.07 771.01C1921.29 769.55 1933.99 779.9 1935.45 794.11C1936.91 808.32 1926.56 821.03 1912.35 822.49C1898.13 823.95 1885.43 813.6 1883.97 799.39C1882.51 785.17 1892.86 772.47 1907.07 771.01Z" fill="white"/>
</g>
</svg>
