<svg width="442" height="108" viewBox="0 0 442 108" fill="none" xmlns="http://www.w3.org/2000/svg">
<path d="M48.2311 102.462C74.8684 102.462 96.4622 80.8684 96.4622 54.2311C96.4622 27.5938 74.8684 6 48.2311 6C21.5938 6 0 27.5938 0 54.2311C0 80.8684 21.5938 102.462 48.2311 102.462Z" fill="#EDF2F4"/>
<path d="M48.2311 103C72.0828 103 91.4185 101.237 91.4185 99.0615C91.4185 96.8862 72.0828 95.1229 48.2311 95.1229C24.3794 95.1229 5.04382 96.8862 5.04382 99.0615C5.04382 101.237 24.3794 103 48.2311 103Z" fill="#000814"/>
<path d="M77.5927 73.0349C86.2332 71.284 91.0879 78.1374 89.8596 86.0246C88.4197 95.2692 80.6908 100.605 74.9051 98.4431C71.6656 97.5065 66.665 94.4141 64.2557 95.9445L64.008 97.5303C54.7827 103.501 41.5611 103.503 32.3358 97.5303L32.088 95.9445C29.5973 94.362 24.3354 97.7101 21.1151 98.52C17.9265 99.5832 14.0366 98.6161 10.7462 95.0384C4.57829 88.3343 3.14291 73.7407 17.0737 72.665C13.0322 66.8251 15.9799 57.8373 22.8729 52.615C19.0203 48.1991 19.2352 41.5493 23.055 36.983C23.1477 35.9005 23.3004 34.8407 23.512 33.808C17.4447 31.7471 15.2311 23.2852 19.9806 18.1907C23.9327 13.9502 30.3303 14.7431 33.4171 19.3082C35.1782 18.2699 37.1498 17.4679 39.3226 16.9465L36.1804 15.2566C41.0363 11.7626 47.1194 11.8972 50.5896 16.9205C52.068 17.2508 53.5237 17.7077 54.9308 18.2812C57.1275 11.5296 65.2511 8.8613 70.746 13.8461C76.6482 19.1985 74.8339 29.003 68.1219 31.807C68.5189 33.1259 68.7722 34.5126 68.8593 35.9627C72.7232 41.0799 72.5762 46.4413 70.0368 50.4986C80.4849 55.1 82.5424 65.4225 77.5927 73.0349Z" fill="#000814"/>
<path d="M67.0846 29.141C71.9054 27.0665 73.0885 19.815 68.8356 15.9579C64.8416 12.3361 58.9598 14.4038 57.5358 19.513C61.6394 21.7322 65.0984 25.0204 67.0846 29.141Z" fill="#020C1A"/>
<path d="M31.07 20.9269C28.9842 17.8186 24.7505 17.2587 22.0698 20.1351C18.7918 23.6517 20.2385 29.4996 24.2438 31.0322C25.5604 26.9896 27.8622 23.499 31.07 20.9269Z" fill="#020C1A"/>
<path d="M27.4312 75.1874L27.0342 71.6561C24.6079 65.7325 29.2511 60.138 35.1363 59.5249C42.6661 58.7399 43.0677 51.2803 35.1318 51.3108C19.6819 51.3707 9.83335 72.5497 27.4312 75.1874Z" fill="#020C1A"/>
<path d="M37.6678 80.7378C35.8105 80.3068 34.0177 79.7458 32.3346 79.0468L34.952 95.8143C36.0627 96.4806 37.2753 97.0461 38.5591 97.5099L37.6678 80.7378Z" fill="#EDF2F4"/>
<path d="M46.2099 81.8293C44.3164 81.766 42.4161 81.5918 40.5543 81.2977L41.4603 98.3639C42.881 98.6942 44.3537 98.9147 45.8434 99.0278L46.2099 81.8293Z" fill="#D90429"/>
<path d="M54.5778 81.3814C52.7952 81.637 50.9413 81.792 49.0602 81.8406L48.6926 99.1105C50.1371 99.0867 51.577 98.9611 52.9841 98.7361L54.5778 81.3814Z" fill="#EDF2F4"/>
<path d="M63.6087 81.6099C61.1983 81.9164 59.255 81.5658 57.7665 80.7989L57.4871 80.8599L55.9036 98.106C57.8875 97.5619 59.7505 96.7984 61.3917 95.8144L63.6087 81.6099Z" fill="#D90429"/>
<path d="M26.3385 93.4956C28.1031 92.8689 29.9196 92.4425 31.5869 92.7298L29.3258 78.2448C26.8 78.0876 24.6498 77.634 22.8468 76.9508C26.9584 81.033 28.6483 88.1658 26.3385 93.4956Z" fill="#020C1A"/>
<path d="M20.4251 95.7612C21.2791 95.5339 22.3729 94.586 23.0301 93.6087C25.8036 89.4858 24.4824 82.646 20.9726 79.1158C15.8362 73.95 7.83811 76.2077 9.29951 85.588C10.4103 92.7197 16.2129 97.3346 20.4251 95.7612Z" fill="#EDF2F4"/>
<path d="M81.3422 76.4203C75.836 76.4203 71.8341 82.2783 71.8341 88.1545C71.8341 95.8958 78.2916 98.7654 83.497 93.1053C88.8302 87.3084 88.6639 76.4203 81.3422 76.4203Z" fill="#EDF2F4"/>
<path d="M64.7567 92.7299C66.4285 92.4426 68.2485 92.8701 70.0164 93.499C67.9317 88.737 69.0855 82.4232 72.3046 78.2924C70.5921 79.4235 68.6681 80.3204 66.5948 80.9516L64.7567 92.7299Z" fill="#020C1A"/>
<path d="M49.1688 74.7146C48.3126 78.0865 43.632 79.5083 41.2838 76.236C39.1653 76.2869 37.6847 75.063 37.0591 73.5032C34.6216 72.9535 32.2248 72.233 29.8766 71.379L30.2634 74.8209C36.9336 78.8782 47.0401 79.7639 55.1354 78.4111C54.364 77.1963 54.0009 75.7666 54.0315 74.3334C52.4106 74.5461 50.8123 74.6716 49.1688 74.7146Z" fill="#D90429"/>
<path d="M41.7489 70.4051C39.7627 69.5431 38.6033 72.699 40.6789 73.3188C41.3756 73.5269 42.0848 73.1503 42.9332 72.8709C43.3008 73.9036 43.4342 74.8582 44.4183 75.1523C45.8627 75.5844 46.9792 73.9239 46.1229 72.7476L45.4578 71.8337C46.0313 71.1674 46.8762 70.4978 46.348 69.5183C45.8164 68.5331 44.6242 68.7842 43.9806 69.7151L43.2895 70.7139L41.7489 70.4051Z" fill="#FCA311"/>
<path d="M43.9127 66.1905C43.7634 65.5005 43.398 64.9214 42.4841 64.5866C40.6404 63.9113 38.7333 65.7166 39.5658 67.7085C40.3203 67.4223 41.1573 67.3397 41.992 67.5083C42.4965 66.8907 43.1639 66.4382 43.9127 66.1905Z" fill="#FCA311"/>
<path d="M34.0787 69.7705C34.3389 69.2514 34.6782 68.774 35.0854 68.3589C34.9633 67.8352 34.6533 67.3432 34.3457 66.9201C37.1441 64.4487 33.5279 61.5191 32.0133 65.9768C31.5066 65.6816 30.9105 65.3988 30.2929 65.3321C29.0724 65.1986 27.9526 67.5547 29.6991 68.3476C31.1017 68.9844 32.5585 69.4934 34.0787 69.7705Z" fill="#FCA311"/>
<path d="M41.2308 60.1233C41.2263 60.6198 41.3869 61.0859 41.6041 61.5869C44.0326 61.5507 46.1941 63.2157 46.7348 65.6363C47.159 65.8184 47.5526 66.0492 47.9089 66.3206C49.7865 65.0866 49.342 62.0111 46.9859 61.4919L45.8842 61.2487C45.865 59.8937 45.9385 58.5793 44.3629 57.9855C43.9557 57.8328 43.5043 57.7943 43.0609 57.8893C42.6379 58.7015 42.0271 59.4638 41.2308 60.1233Z" fill="#FCA311"/>
<path d="M49.3635 71.8551C51.1315 71.7918 52.9333 71.6221 54.6865 71.3563C54.7363 71.2421 54.7895 71.1301 54.8449 71.0181C54.4264 70.5623 53.8348 70.4503 53.1086 70.4333C53.0611 67.0603 49.782 67.2572 50.7876 70.7727C50.1689 71.0249 49.6836 71.4298 49.3635 71.8551Z" fill="#FCA311"/>
<path d="M51.904 64.5979C51.8802 64.8649 51.8384 65.1307 51.7784 65.3931C53.5927 65.2868 55.2758 66.4416 55.7916 68.2345L55.8448 68.2616C56.6705 67.5241 55.9489 66.453 55.3324 65.7845C57.2451 62.959 53.9558 61.4003 52.9559 64.6307C52.62 64.538 52.2524 64.5482 51.904 64.5979Z" fill="#FCA311"/>
<path d="M58.6001 64.5278C58.5662 64.814 58.5005 65.1081 58.3965 65.4101C58.703 65.9722 58.867 66.5706 58.901 67.1644C58.9326 67.1644 58.9654 67.1633 58.9971 67.161C60.9381 65.9451 62.4357 64.8423 63.3168 63.7349C63.3756 63.6614 63.4356 63.5822 63.4967 63.4974C63.2195 61.7826 60.9381 62.1604 60.9042 64.8434C60.1904 64.547 59.3398 64.279 58.6001 64.5278Z" fill="#FCA311"/>
<path d="M61.5818 59.9762C62.6835 59.733 63.8417 60.009 64.7081 60.7114C64.8292 59.9298 64.7681 59.0917 64.3722 58.2705C67.4726 59.7783 67.3991 63.4589 64.9197 66.0593C63.387 67.6666 61.2266 69.1699 59.1091 70.4322C55.0496 72.8539 55.9149 81.8248 66.7645 77.8908C79.3312 73.3335 80.7665 58.4764 68.0449 52.9565C66.2442 54.7075 63.9062 56.0252 61.2492 56.7005C61.5071 57.5149 61.5444 58.447 61.2707 59.465L61.5818 59.9762Z" fill="#020C1A"/>
<path d="M50.1145 59.9853C50.7163 60.5192 51.1676 61.1628 51.4684 61.8618C53.1956 59.4152 56.3628 59.9344 57.8355 61.8132C58.2653 61.7001 58.7143 61.6548 59.1668 61.6854C59.2177 61.6085 59.2697 61.5349 59.324 61.4637C59.0559 60.9943 58.7121 60.5509 58.2053 60.1131C60.5773 55.5491 54.7374 53.4803 54.1571 59.5182C52.7002 59.0748 51.0669 58.8101 50.1145 59.9853Z" fill="#FCA311"/>
<path d="M46.9056 56.2232C48.7052 56.1305 50.5172 55.9506 52.3066 55.6814C53.8529 52.9453 57.0403 52.7552 59.2143 54.1295C68.1275 51.3538 71.7278 44.1022 66.0496 37.0147C65.8551 27.1865 57.8265 21.273 48.8748 19.4745C47.2879 17.0721 45.3978 15.5914 42.4185 15.9319C43.1933 16.8345 43.4941 17.5822 43.6921 18.6658C41.8914 19.3354 40.603 20.333 40.1042 22.6145C42.2115 21.9415 44.5269 22.4697 45.8367 24.3428C42.268 23.5318 38.7695 26.3766 37.2267 27.6875C36.4982 25.0453 36.7188 22.886 37.8488 20.3659C25.8171 24.7647 25.9823 37.811 25.8318 38.1616C25.7821 38.277 22.7767 40.865 22.9339 45.3668C23.0063 47.4469 23.8004 49.4705 25.2912 51.0371C28.1348 49.4513 31.4636 48.4762 35.1318 48.4615C40.8903 48.44 43.7588 51.6411 43.7792 54.9846C44.9307 55.0389 46.0335 55.4801 46.9056 56.2232Z" fill="#EDF2F4"/>
<path d="M14.5897 77.6646C15.6349 77.5628 16.663 78.6803 16.8881 80.1609C17.1132 81.6404 16.4493 82.9231 15.4052 83.0249C14.3612 83.1256 13.3319 82.0092 13.1068 80.5286C12.8817 79.0479 13.5457 77.7664 14.5897 77.6646ZM32.2995 29.382C29.7455 31.2177 28.1235 34.0308 27.1925 36.9909C25.9291 41.0041 28.1811 46.7287 32.6513 43.6916C34.581 42.3807 39.0975 38.9489 39.9243 37.1108C42.3144 31.8037 36.5265 26.3427 32.2995 29.382ZM56.8164 28.5721C59.4722 30.4814 61.1587 33.4076 62.1269 36.4853C63.4413 40.6603 61.0987 46.6144 56.4499 43.4541C54.4433 42.0911 49.7458 38.5213 48.885 36.6109C46.3999 31.0911 52.4197 25.4106 56.8164 28.5721ZM49.4155 48.1957C47.0209 50.8199 42.7012 51.1773 41.1278 46.7558C42.7827 47.8801 46.4825 48.2851 47.9349 45.9154C47.7675 44.7096 48.1894 43.3127 49.446 42.297C49.2006 45.7073 50.7378 47.1155 52.6663 47.6426C51.3995 48.578 50.2616 48.6357 49.4155 48.1957ZM43.8595 39.1717C35.8455 39.1717 40.5136 44.316 43.8595 44.316C47.2053 44.316 51.8734 39.1717 43.8595 39.1717ZM81.9168 77.6646C80.8728 77.5628 79.8435 78.6803 79.6184 80.1609C79.3933 81.6404 80.0584 82.9231 81.1024 83.0249C82.1465 83.1256 83.1758 82.0092 83.4009 80.5286C83.626 79.0479 82.962 77.7664 81.9168 77.6646ZM80.8604 85.0247C78.7237 84.8392 76.6187 86.8843 76.1572 89.5921C75.6969 92.3 77.0565 94.646 79.1931 94.8326C81.3298 95.0181 83.4348 92.973 83.8963 90.2652C84.3566 87.5573 82.9971 85.2114 80.8604 85.0247ZM76.9264 79.4529C77.7363 79.428 78.3934 80.3408 78.3934 81.4889C78.3934 82.6369 77.7374 83.5893 76.9275 83.6131C76.1176 83.638 75.4605 82.7263 75.4605 81.5771C75.4605 80.4279 76.1165 79.4766 76.9264 79.4529ZM86.0771 81.4289C85.3147 81.162 84.3397 81.8101 83.9008 82.8756C83.4619 83.9422 83.7232 85.0236 84.4867 85.2905C85.2491 85.5575 86.223 84.9093 86.663 83.8427C87.1019 82.7772 86.8394 81.6959 86.0771 81.4289ZM15.6462 85.0247C17.7828 84.8392 19.889 86.8843 20.3493 89.5921C20.8097 92.3 19.4512 94.646 17.3146 94.8315C15.1779 95.0181 13.0718 92.973 12.6114 90.2652C12.151 87.5573 13.5095 85.2114 15.6462 85.0247ZM19.5813 79.4529C18.7714 79.428 18.1142 80.3408 18.1142 81.4889C18.1142 82.6369 18.7703 83.5893 19.5802 83.6131C20.39 83.638 21.0461 82.7263 21.0461 81.5771C21.0461 80.4279 20.39 79.4766 19.5813 79.4529ZM10.4306 81.4289C11.193 81.162 12.168 81.8101 12.6069 82.8756C13.0457 83.9422 12.7833 85.0236 12.021 85.2905C11.2586 85.5575 10.2836 84.9093 9.84469 83.8427C9.40582 82.7772 9.66711 81.6959 10.4306 81.4289Z" fill="#000814"/>
<ellipse cx="34.498" cy="34.8661" rx="2.16781" ry="2.16781" fill="#EDF2F4"/>
<ellipse cx="53.7373" cy="33.7822" rx="2.16781" ry="2.16781" fill="#EDF2F4"/>
<path d="M147.313 73.585C143.432 73.585 139.961 72.7075 136.9 70.9525C133.838 69.1974 131.42 66.6526 129.645 63.318C127.89 59.9835 127.013 55.9566 127.013 51.2375C127.013 46.4794 127.9 42.4331 129.675 39.0985C131.469 35.764 133.896 33.2192 136.958 31.4641C140.039 29.7091 143.491 28.8316 147.313 28.8316C150.686 28.8316 153.719 29.4556 156.41 30.7036C159.12 31.9516 161.334 33.7554 163.05 36.115C164.766 38.4745 165.819 41.3313 166.209 44.6854H156.907C156.556 42.2869 155.532 40.4051 153.836 39.04C152.139 37.6555 150.033 36.9632 147.517 36.9632C144.163 36.9632 141.463 38.2113 139.415 40.7073C137.368 43.1839 136.344 46.6939 136.344 51.2375C136.344 55.8786 137.368 59.4082 139.415 61.8263C141.482 64.2443 144.173 65.4533 147.488 65.4533C149.926 65.4533 151.993 64.8098 153.689 63.5228C155.405 62.2358 156.478 60.432 156.907 58.1114H166.209C165.877 60.783 164.922 63.2985 163.342 65.6581C161.782 68.0176 159.647 69.9287 156.936 71.3912C154.245 72.8537 151.037 73.585 147.313 73.585ZM172.673 73V40.2978H181.741V73H172.673ZM177.207 36.115C175.861 36.115 174.701 35.6665 173.726 34.7694C172.771 33.8724 172.293 32.7902 172.293 31.5226C172.293 30.2551 172.771 29.1826 173.726 28.3051C174.701 27.408 175.861 26.9595 177.207 26.9595C178.552 26.9595 179.703 27.408 180.658 28.3051C181.633 29.1826 182.121 30.2551 182.121 31.5226C182.121 32.7902 181.633 33.8724 180.658 34.7694C179.703 35.6665 178.552 36.115 177.207 36.115ZM198.063 54.1041V73H188.995V40.2978H197.916V46.1187H198.238C198.979 44.2076 200.159 42.6964 201.777 41.5848C203.396 40.4538 205.414 39.8883 207.832 39.8883C211.245 39.8883 213.975 40.9901 216.022 43.1936C218.089 45.3777 219.123 48.3807 219.123 52.2028V73H210.055V53.8116C210.055 51.8031 209.539 50.2333 208.505 49.1022C207.491 47.9712 206.077 47.4057 204.264 47.4057C202.431 47.4057 200.939 48.0005 199.788 49.19C198.638 50.36 198.063 51.9981 198.063 54.1041ZM241.266 73.6435C237.912 73.6435 235.026 72.961 232.608 71.596C230.189 70.2309 228.327 68.2907 227.021 65.7751C225.714 63.24 225.061 60.2467 225.061 56.7952C225.061 53.4411 225.704 50.4965 226.991 47.9615C228.298 45.4264 230.131 43.4471 232.491 42.0236C234.85 40.6001 237.629 39.8883 240.827 39.8883C243.713 39.8883 246.316 40.5026 248.637 41.7311C250.977 42.9596 252.829 44.8024 254.194 47.2595C255.579 49.7165 256.271 52.7976 256.271 56.5027V58.9597H233.982C234.08 61.4363 234.801 63.3765 236.147 64.7806C237.492 66.1846 239.247 66.8866 241.412 66.8866C242.913 66.8866 244.201 66.5649 245.273 65.9214C246.365 65.2778 247.145 64.3418 247.613 63.1133L255.979 63.6691C255.335 66.6721 253.726 69.0902 251.152 70.9232C248.598 72.7367 245.302 73.6435 241.266 73.6435ZM234.041 53.3728H247.584C247.369 51.3058 246.706 49.6678 245.595 48.4587C244.483 47.2497 242.923 46.6452 240.915 46.6452C238.887 46.6452 237.278 47.279 236.088 48.5465C234.918 49.7945 234.236 51.4033 234.041 53.3728Z" fill="white"/>
<path d="M262.238 85.2268V40.2978H271.16V45.8262H271.569C271.979 44.9292 272.554 44.0224 273.295 43.1059C274.056 42.1894 275.05 41.4288 276.279 40.8243C277.527 40.2003 279.058 39.8883 280.871 39.8883C283.27 39.8883 285.463 40.5123 287.452 41.7603C289.461 42.9889 291.07 44.8512 292.279 47.3472C293.488 49.8433 294.092 52.9633 294.092 56.7074C294.092 60.3345 293.507 63.4058 292.337 65.9214C291.167 68.4174 289.578 70.3089 287.569 71.596C285.561 72.883 283.309 73.5265 280.813 73.5265C279.058 73.5265 277.566 73.234 276.337 72.649C275.128 72.064 274.134 71.3327 273.354 70.4552C272.593 69.5582 271.998 68.6612 271.569 67.7641H271.306V85.2268H262.238ZM271.101 56.6782C271.101 59.5642 271.696 61.8945 272.886 63.6691C274.095 65.4436 275.791 66.3309 277.975 66.3309C280.198 66.3309 281.895 65.4338 283.065 63.6398C284.235 61.8263 284.82 59.5057 284.82 56.6782C284.82 53.8311 284.235 51.5203 283.065 49.7458C281.914 47.9712 280.218 47.084 277.975 47.084C275.791 47.084 274.095 47.9517 272.886 49.6873C271.696 51.4228 271.101 53.7531 271.101 56.6782ZM309.361 73.6143C306.241 73.6143 303.648 72.805 301.58 71.1865C299.533 69.5484 298.509 67.1109 298.509 63.8738C298.509 61.4363 299.075 59.5252 300.206 58.1407C301.356 56.7367 302.868 55.7129 304.74 55.0694C306.612 54.4064 308.62 53.9774 310.765 53.7823C313.612 53.5093 315.64 53.2266 316.849 52.9341C318.078 52.6221 318.692 51.9396 318.692 50.8865V50.7403C318.692 49.3948 318.263 48.3515 317.405 47.6105C316.547 46.8695 315.309 46.4989 313.69 46.4989C312.072 46.4989 310.746 46.85 309.712 47.552C308.698 48.254 308.025 49.151 307.694 50.243L299.445 48.9267C300.225 46.0797 301.863 43.8664 304.359 42.2869C306.875 40.6878 309.995 39.8883 313.719 39.8883C316.138 39.8883 318.409 40.2686 320.535 41.0291C322.68 41.7896 324.415 42.9889 325.741 44.6269C327.068 46.2454 327.731 48.3515 327.731 50.945V73H319.16V68.4369H318.897C318.097 69.9774 316.908 71.2255 315.328 72.181C313.768 73.1365 311.779 73.6143 309.361 73.6143ZM307.138 63.5813C307.138 64.8293 307.587 65.7751 308.484 66.4186C309.4 67.0426 310.551 67.3546 311.935 67.3546C313.924 67.3546 315.553 66.7794 316.82 65.6288C318.107 64.4783 318.751 63.045 318.751 61.329V57.8482C318.4 58.0822 317.844 58.2967 317.083 58.4917C316.342 58.6867 315.553 58.8525 314.714 58.989C313.875 59.106 313.125 59.2132 312.462 59.3107C310.863 59.5447 309.576 60.003 308.601 60.6855C307.626 61.3485 307.138 62.3138 307.138 63.5813ZM344.082 54.1041V73H335.014V40.2978H343.935V46.1187H344.257C344.998 44.2076 346.178 42.6964 347.796 41.5848C349.415 40.4538 351.433 39.8883 353.851 39.8883C357.264 39.8883 359.994 40.9901 362.041 43.1936C364.109 45.3777 365.142 48.3807 365.142 52.2028V73H356.074V53.8116C356.074 51.8031 355.558 50.2333 354.524 49.1022C353.51 47.9712 352.096 47.4057 350.283 47.4057C348.45 47.4057 346.958 48.0005 345.807 49.19C344.657 50.36 344.082 51.9981 344.082 54.1041ZM384.36 73.5265C381.864 73.5265 379.611 72.883 377.603 71.596C375.594 70.3089 374.005 68.4174 372.835 65.9214C371.665 63.4058 371.08 60.3345 371.08 56.7074C371.08 52.9633 371.684 49.8433 372.893 47.3472C374.102 44.8512 375.711 42.9889 377.72 41.7603C379.728 40.5123 381.922 39.8883 384.301 39.8883C386.134 39.8883 387.665 40.2003 388.894 40.8243C390.122 41.4288 391.117 42.1894 391.877 43.1059C392.638 44.0224 393.213 44.9292 393.603 45.8262H393.866V29.4166H402.934V73H394.012V67.7641H393.603C393.193 68.6612 392.599 69.5582 391.819 70.4552C391.039 71.3327 390.034 72.064 388.806 72.649C387.597 73.234 386.115 73.5265 384.36 73.5265ZM394.071 56.6782C394.071 53.7531 393.476 51.4228 392.287 49.6873C391.097 47.9517 389.401 47.084 387.197 47.084C384.954 47.084 383.248 47.9712 382.078 49.7458C380.928 51.5203 380.352 53.8311 380.352 56.6782C380.352 59.5057 380.937 61.8263 382.107 63.6398C383.277 65.4338 384.974 66.3309 387.197 66.3309C389.381 66.3309 391.068 65.4436 392.257 63.6691C393.466 61.8945 394.071 59.5642 394.071 56.6782ZM419.519 73.6143C416.399 73.6143 413.805 72.805 411.738 71.1865C409.691 69.5484 408.667 67.1109 408.667 63.8738C408.667 61.4363 409.232 59.5252 410.364 58.1407C411.514 56.7367 413.025 55.7129 414.897 55.0694C416.769 54.4064 418.778 53.9774 420.923 53.7823C423.77 53.5093 425.798 53.2266 427.007 52.9341C428.236 52.6221 428.85 51.9396 428.85 50.8865V50.7403C428.85 49.3948 428.421 48.3515 427.563 47.6105C426.705 46.8695 425.467 46.4989 423.848 46.4989C422.23 46.4989 420.903 46.85 419.87 47.552C418.856 48.254 418.183 49.151 417.852 50.243L409.603 48.9267C410.383 46.0797 412.021 43.8664 414.517 42.2869C417.033 40.6878 420.153 39.8883 423.877 39.8883C426.295 39.8883 428.567 40.2686 430.693 41.0291C432.838 41.7896 434.573 42.9889 435.899 44.6269C437.225 46.2454 437.888 48.3515 437.888 50.945V73H429.318V68.4369H429.055C428.255 69.9774 427.066 71.2255 425.486 72.181C423.926 73.1365 421.937 73.6143 419.519 73.6143ZM417.296 63.5813C417.296 64.8293 417.744 65.7751 418.641 66.4186C419.558 67.0426 420.708 67.3546 422.093 67.3546C424.082 67.3546 425.71 66.7794 426.978 65.6288C428.265 64.4783 428.908 63.045 428.908 61.329V57.8482C428.557 58.0822 428.002 58.2967 427.241 58.4917C426.5 58.6867 425.71 58.8525 424.872 58.989C424.033 59.106 423.283 59.2132 422.62 59.3107C421.02 59.5447 419.733 60.003 418.758 60.6855C417.783 61.3485 417.296 62.3138 417.296 63.5813Z" fill="#FCA311"/>
</svg>
