<svg width="621" height="889" viewBox="0 0 621 889" fill="none" xmlns="http://www.w3.org/2000/svg">
<path d="M479.17 187.824C438.454 148.597 442.907 118.56 455.098 99.3801C470.493 75.1533 496.295 48.2553 533.491 52.8058C586.492 59.2891 621.41 105.313 603.066 155.128C592.105 184.895 571.803 201.274 553.199 210.281C532.306 220.398 509.343 216.893 479.167 187.824H479.17Z" fill="#35313F"/>
<path d="M142.032 187.824C182.748 148.597 178.295 118.56 166.104 99.3801C150.709 75.1533 124.907 48.2553 87.7108 52.8058C34.7098 59.2891 -0.208259 105.313 18.1354 155.128C29.097 184.895 49.3986 201.274 68.0032 210.281C88.8956 220.398 111.859 216.893 142.035 187.824H142.032Z" fill="#35313F"/>
<path d="M117.957 158.759C131.709 145.007 131.709 122.711 117.957 108.96C104.205 95.2079 81.9092 95.2079 68.1575 108.96C54.4058 122.711 54.4058 145.007 68.1575 158.759C81.9092 172.511 104.205 172.511 117.957 158.759Z" fill="white"/>
<path d="M550.016 158.759C563.768 145.007 563.768 122.711 550.016 108.959C536.265 95.2074 513.969 95.2074 500.217 108.959C486.465 122.711 486.465 145.007 500.217 158.759C513.969 172.51 536.265 172.51 550.016 158.759Z" fill="white"/>
<g opacity="0.25">
<path d="M587.899 154.556C587.899 154.556 574.741 201.413 521.702 193.836C488.544 189.1 445.826 136.815 451.118 128.836C471.457 98.167 494.276 132.611 520.945 156.853C543.449 177.312 573.512 172.918 587.899 154.556Z" fill="#181558"/>
</g>
<g opacity="0.3">
<path d="M442.24 123.431C457.752 96.6962 485.964 63.1923 528.192 68.3651C572.368 73.7799 604.562 105.386 606.218 144.364C616.259 98.8552 582.648 58.8209 533.494 52.8058C482.545 46.5771 452.982 99.3329 442.24 123.431Z" fill="white"/>
</g>
<path d="M440.383 121.143C446.888 98.4058 461.181 78.2205 479.518 63.3055C495.508 50.3734 516.699 44.0913 537.101 47.6833C573.012 52.567 607.063 79.6222 612.336 116.765C616.24 140.992 607.17 165.439 592.899 184.725C578.367 203.883 556.702 217.051 533.679 223.028C526.925 224.612 524.32 214.851 530.973 212.874C552.016 207.368 571.34 195.681 584.533 178.365C597.091 161.338 605.401 139.653 601.95 118.377C596.727 82.1991 559.961 58.0792 524.952 57.919C503.252 57.9504 484.666 70.6122 470.731 87.0074C461.31 98.167 453.588 110.734 445.166 123.318C443.569 125.791 439.572 124.003 440.383 121.146V121.143Z" fill="#1C1C25"/>
<path d="M334.12 830.469C364.849 834.922 498.447 883.464 549.483 883.464C597.491 883.464 620.828 833.489 614.813 789.954C606.278 728.201 553.933 729.958 536.196 745.413C536.196 745.413 467.677 707.28 428.362 697.557" fill="#35313F"/>
<path d="M286.88 830.469C256.151 834.922 122.553 883.464 71.5164 883.464C23.5123 883.464 0.171761 833.489 6.18681 789.954C14.7223 728.201 67.0664 729.958 84.8035 745.413C84.8035 745.413 153.323 707.28 192.638 697.557" fill="#35313F"/>
<path d="M286.88 830.469C256.151 834.932 122.559 883.461 71.5258 883.461C37.7925 883.461 16.237 858.797 8.50605 829.027C8.49034 829.011 8.49032 828.999 8.49032 828.999C5.20624 816.393 4.39542 802.892 6.19302 789.951C14.7191 728.198 67.0632 729.964 84.8035 745.41C84.8035 745.41 153.329 707.274 192.644 697.557L266.559 801.818L286.88 830.469Z" fill="#35313F"/>
<path d="M286.88 830.469C256.151 834.932 122.559 883.461 71.5258 883.461C37.7925 883.461 16.237 858.797 8.50605 829.027C8.49034 829.011 8.49032 828.999 8.49032 828.999C5.20624 816.393 4.39542 802.892 6.19302 789.951C14.7191 728.198 67.0632 729.964 84.8035 745.41C84.8035 745.41 153.329 707.274 192.644 697.557L266.559 801.818L286.88 830.469Z" fill="#35313F"/>
<g opacity="0.25">
<path d="M286.88 830.469C256.151 834.932 122.56 883.461 71.5261 883.461C37.7928 883.461 16.2373 858.797 8.50635 829.027C8.96203 830.073 25.8664 867.647 63.0598 858.961C96.5416 851.142 103.242 813.345 103.242 813.345C103.242 813.345 123.694 837.05 137.079 825.963C154.835 811.252 133.958 770.247 138.477 761.868C142.481 754.461 164.599 792.877 266.563 801.815L286.883 830.466L286.88 830.469Z" fill="#181558"/>
</g>
<g opacity="0.25">
<path d="M227.496 844.354C222.282 843.206 217.439 842.012 213.036 840.849C213.036 840.849 179.759 850.714 150.312 798.694C146.085 791.23 142.669 784.514 139.96 778.509C138.238 770.837 137 764.609 138.474 761.871C141.77 755.762 157.424 780.866 220.132 794.854C229.334 812.493 232.411 829.838 227.496 844.357V844.354Z" fill="#181558"/>
</g>
<g opacity="0.25">
<path d="M286.88 830.469C256.151 834.932 122.56 883.461 71.5261 883.461C37.7928 883.461 16.2373 858.797 8.50635 829.027C8.96203 830.073 25.8664 867.647 63.0598 858.961C96.5416 851.142 103.242 813.345 103.242 813.345C103.242 813.345 123.694 837.05 137.079 825.963C154.835 811.252 133.958 770.247 138.477 761.868C142.481 754.461 164.599 792.877 266.563 801.815L286.883 830.466L286.88 830.469Z" fill="#181558"/>
</g>
<g opacity="0.25">
<path d="M334.12 830.469C364.849 834.932 498.441 883.461 549.474 883.461C583.208 883.461 604.763 858.797 612.494 829.027C612.038 830.073 595.134 867.647 557.941 858.961C524.459 851.142 517.759 813.345 517.759 813.345C517.759 813.345 497.306 837.05 483.922 825.963C466.166 811.252 487.042 770.247 482.523 761.868C478.519 754.461 456.401 792.877 354.438 801.815L334.117 830.466L334.12 830.469Z" fill="#181558"/>
</g>
<g opacity="0.4">
<path d="M103.239 796.019C103.239 796.019 90.7027 743.581 48.104 753.169C17.507 760.061 8.74842 796.202 6.25315 817.679C6.20287 817.412 6.17144 817.163 6.13687 816.896V816.88C4.95523 807.958 4.95524 798.835 6.18717 789.96C14.7258 728.198 67.0667 729.964 84.8133 745.413C84.8133 745.413 84.8793 745.262 85.0145 744.98C94.6373 755.668 101.595 771.865 103.245 796.019H103.239Z" fill="white"/>
</g>
<path d="M71.5165 888.718C51.8183 888.718 34.5714 880.871 21.6362 866.025C4.98955 846.921 -2.92366 817.496 0.98267 789.231C6.15549 751.812 26.6079 738.854 38.3363 734.461C55.8598 727.899 74.3732 731.683 85.2782 739.153C99.1562 731.582 156.101 701.177 191.378 692.453L193.901 702.654C155.708 712.098 88.0406 749.624 87.3618 750.001L84.1374 751.796L81.3562 749.373C73.6535 742.66 57.2488 738.6 42.0258 744.304C30.3728 748.669 15.5992 760.256 11.3943 790.671C7.89338 816.01 14.8544 842.238 29.562 859.121C40.4419 871.61 54.9516 878.209 71.5197 878.209C103.515 878.209 171.613 857.81 221.333 842.917C251.173 833.98 274.743 826.918 286.126 825.268L287.631 835.67C277.015 837.207 252.606 844.52 224.347 852.986C171.199 868.907 105.055 888.721 71.5165 888.721V888.718Z" fill="#1C1C25"/>
<path d="M88.7256 741.912C103.216 759.797 107.918 783.801 105.611 806.327C105.165 809.693 100.143 809.206 100.385 805.79C100.702 787.965 96.4188 769.09 85.6803 754.618C85.0267 753.656 84.1656 752.575 83.3453 751.702L80.8878 748.911C75.6835 743.449 83.9204 736.083 88.7287 741.912H88.7256Z" fill="#1C1C25"/>
<path d="M53.3331 854.212C67.3172 854.212 78.6535 841.563 78.6535 825.959C78.6535 810.356 67.3172 797.707 53.3331 797.707C39.349 797.707 28.0127 810.356 28.0127 825.959C28.0127 841.563 39.349 854.212 53.3331 854.212Z" fill="white"/>
<path d="M76.9439 799.426C82.0814 799.426 86.2462 794.78 86.2462 789.049C86.2462 783.318 82.0814 778.672 76.9439 778.672C71.8064 778.672 67.6416 783.318 67.6416 789.049C67.6416 794.78 71.8064 799.426 76.9439 799.426Z" fill="white"/>
<path d="M28.0093 803.647C33.1468 803.647 37.3116 799.001 37.3116 793.27C37.3116 787.538 33.1468 782.893 28.0093 782.893C22.8718 782.893 18.707 787.538 18.707 793.27C18.707 799.001 22.8718 803.647 28.0093 803.647Z" fill="white"/>
<path d="M51.1677 793.267C56.8675 793.267 61.4882 788.111 61.4882 781.752C61.4882 775.392 56.8675 770.237 51.1677 770.237C45.4678 770.237 40.8472 775.392 40.8472 781.752C40.8472 788.111 45.4678 793.267 51.1677 793.267Z" fill="white"/>
<g opacity="0.4">
<path d="M517.762 796.019C517.762 796.019 530.298 743.581 572.896 753.169C603.493 760.061 612.252 796.202 614.747 817.679C614.798 817.412 614.829 817.163 614.864 816.896V816.88C616.045 807.958 616.045 798.835 614.813 789.96C606.275 728.198 553.934 729.964 536.187 745.413C536.187 745.413 536.121 745.262 535.986 744.98C526.363 755.668 519.405 771.865 517.755 796.019H517.762Z" fill="white"/>
</g>
<path d="M549.484 888.718C515.945 888.718 449.802 868.904 396.65 852.983C368.391 844.52 343.982 837.207 333.366 835.67L334.872 825.268C346.254 826.918 369.824 833.976 399.664 842.917C449.387 857.81 517.482 878.209 549.481 878.209C566.049 878.209 580.558 871.607 591.438 859.121C606.146 842.238 613.107 816.013 609.606 790.671C605.401 760.253 590.627 748.666 578.974 744.304C563.748 738.6 547.347 742.66 539.644 749.373L536.863 751.796L533.638 750.001C532.96 749.624 465.276 712.095 427.099 702.654L429.623 692.453C464.899 701.177 521.844 731.582 535.722 739.153C546.627 731.683 565.144 727.902 582.664 734.461C594.395 738.854 614.845 751.812 620.018 789.231C623.924 817.493 616.011 846.918 599.364 866.025C586.429 880.871 569.182 888.718 549.484 888.718Z" fill="#1C1C25"/>
<path d="M540.115 748.911C533.151 756.277 528.085 765.243 525.037 774.957C523.462 779.882 522.29 784.986 521.548 790.174C520.822 795.331 520.448 800.715 520.615 805.79C520.744 807.286 519.59 808.609 518.082 808.653C516.709 808.697 515.546 807.669 515.386 806.327C514.16 795.011 514.905 783.92 517.435 772.858C519.933 761.727 525.052 750.834 532.268 741.912C537.057 736.095 545.319 743.424 540.109 748.911H540.115Z" fill="#1C1C25"/>
<path d="M567.667 854.212C581.651 854.212 592.987 841.563 592.987 825.959C592.987 810.356 581.651 797.707 567.667 797.707C553.683 797.707 542.347 810.356 542.347 825.959C542.347 841.563 553.683 854.212 567.667 854.212Z" fill="white"/>
<path d="M544.056 799.426C549.194 799.426 553.358 794.78 553.358 789.049C553.358 783.318 549.194 778.672 544.056 778.672C538.919 778.672 534.754 783.318 534.754 789.049C534.754 794.78 538.919 799.426 544.056 799.426Z" fill="white"/>
<path d="M592.991 803.647C598.128 803.647 602.293 799.001 602.293 793.27C602.293 787.538 598.128 782.893 592.991 782.893C587.853 782.893 583.688 787.538 583.688 793.27C583.688 799.001 587.853 803.647 592.991 803.647Z" fill="white"/>
<path d="M569.832 793.267C575.532 793.267 580.153 788.111 580.153 781.752C580.153 775.392 575.532 770.237 569.832 770.237C564.132 770.237 559.512 775.392 559.512 781.752C559.512 788.111 564.132 793.267 569.832 793.267Z" fill="white"/>
<path d="M489.956 731.62C496.128 646.63 430.465 544.758 414.742 492.869L310.764 417.951L206.786 492.869C191.064 544.758 125.401 646.63 131.573 731.62L213.034 840.85C235.752 846.861 269.668 853.326 310.503 853.326C351.339 853.326 385.252 846.861 407.97 840.85" fill="white"/>
<path d="M489.962 731.623L407.963 840.856C385.248 846.868 351.336 853.326 310.503 853.326C269.671 853.326 235.758 846.868 213.043 840.856L171.805 785.561L131.582 731.626C128.861 694.166 140.092 653.443 154.854 615.156C173.574 566.561 197.993 521.895 206.789 492.866L310.773 417.961L414.739 492.866C423.535 521.879 447.919 566.483 466.643 615.046C481.436 653.365 492.683 694.135 489.962 731.626V731.623Z" fill="white"/>
<path d="M489.968 731.626L424.682 818.571L407.957 840.85C385.251 846.871 351.329 853.32 310.5 853.32C269.67 853.32 235.761 846.871 213.043 840.85L196.374 818.515L171.799 785.564L131.588 731.63C128.864 694.172 140.099 653.447 154.853 615.163C173.584 566.558 197.996 521.901 206.798 492.866L310.78 417.964L414.745 492.866C423.535 521.889 447.919 566.486 466.646 615.046C481.429 653.374 492.677 694.128 489.968 731.633V731.626Z" fill="white"/>
<g opacity="0.25">
<path d="M424.682 818.571L407.957 840.849C385.252 846.871 351.33 853.319 310.5 853.319C269.671 853.319 235.761 846.871 213.043 840.849L196.375 818.515L220.139 794.853C220.139 794.853 259.762 803.643 310.5 803.643C361.238 803.643 400.877 794.853 400.877 794.853L424.686 818.574L424.682 818.571Z" fill="#181558"/>
</g>
<path d="M227.499 844.353C222.282 843.21 217.446 842.015 213.04 840.853C213.04 840.853 179.768 850.711 150.319 798.7C120.872 746.689 131.309 731.62 131.309 731.62C131.309 726.482 131.485 721.265 131.833 716.001C196.82 746.689 240.623 805.63 227.496 844.353H227.499Z" fill="#35313F"/>
<g opacity="0.25">
<path d="M227.496 844.354C222.282 843.206 217.439 842.012 213.036 840.849C213.036 840.849 179.759 850.714 150.312 798.694C146.085 791.23 142.669 784.514 139.96 778.509C138.238 770.837 137 764.609 138.474 761.871C141.77 755.762 157.424 780.866 220.132 794.854C229.334 812.493 232.411 829.838 227.496 844.357V844.354Z" fill="#181558"/>
</g>
<path d="M393.783 844.353C399 843.21 403.837 842.015 408.243 840.853C408.243 840.853 441.514 850.711 470.964 798.7C500.411 746.689 489.974 731.62 489.974 731.62C489.974 726.482 489.798 721.265 489.449 716.001C424.462 746.689 380.66 805.63 393.787 844.353H393.783Z" fill="#35313F"/>
<path d="M466.64 615.04C419.032 624.17 366.173 610.857 310.485 610.857C254.797 610.857 202.318 624.138 154.854 615.153C173.575 566.558 197.993 521.892 206.79 492.863L310.774 417.958L414.739 492.863C423.536 521.876 447.92 566.48 466.644 615.043L466.64 615.04Z" fill="#35313F"/>
<path d="M466.643 615.04C466.643 615.04 395.252 638.337 307.782 638.337C220.312 638.337 154.848 615.156 154.848 615.156C162.902 594.248 172 574.076 180.467 555.568C191.686 531.024 201.774 509.409 206.793 492.86L310.774 417.958L414.739 492.86C419.761 509.409 429.846 531.04 441.053 555.568C449.503 574.047 458.605 594.176 466.643 615.04Z" fill="#35313F"/>
<g opacity="0.25">
<path d="M441.056 555.572C405.468 571.781 360.132 581.47 310.777 581.47C261.421 581.47 216.073 571.766 180.47 555.572C191.689 531.027 201.777 509.412 206.796 492.863L310.777 417.961L414.742 492.863C419.764 509.412 429.849 531.043 441.056 555.572Z" fill="#181558"/>
</g>
<path d="M487.334 731.428C486.213 721.312 485.323 710.759 484.016 700.649C480.047 669.785 470.502 640.09 459.249 611.002C444.321 571.502 423.256 534.594 409.711 494.397C409.705 494.378 411.669 497.134 411.669 497.131L307.694 422.213H313.838L209.863 497.131L211.821 494.39C208.571 504.814 204.514 514.689 200.29 524.421C172.861 585.98 141.139 647.809 135.841 715.954C135.75 717.786 135.256 721.802 135.064 723.65C134.838 726.221 134.628 728.807 134.2 731.428C134.043 732.94 132.619 734.037 131.114 733.782C130.036 733.606 129.213 732.805 128.958 731.809C128.286 729.175 127.83 726.501 127.362 723.817C126.68 718.443 126.454 713.031 126.542 707.61C129.753 651.297 154.961 599.408 177.729 548.937C186.246 530.028 195.532 510.974 201.764 491.348C201.764 491.345 202.324 489.613 202.327 489.61L203.722 488.605L307.697 413.687L310.767 411.474L313.838 413.687L417.813 488.605L419.208 489.61C422.388 499.931 426.446 510.088 430.883 520.242C443.564 549.195 457.457 577.545 469.296 607.007C482.91 641.426 495.518 678.138 494.823 715.725C494.509 721.146 493.849 726.535 492.577 731.806C492.234 733.235 490.801 734.115 489.371 733.773C488.224 733.499 487.448 732.531 487.338 731.425L487.334 731.428Z" fill="#1C1C25"/>
<g opacity="0.25">
<path d="M33.3018 154.556C33.3018 154.556 46.4601 201.413 99.4987 193.836C132.657 189.1 175.375 136.815 170.083 128.836C149.744 98.167 126.925 132.611 100.256 156.853C77.7515 177.312 47.6889 172.918 33.3018 154.556Z" fill="#181558"/>
</g>
<g opacity="0.3">
<path d="M178.961 123.431C163.449 96.6962 135.237 63.1923 93.0095 68.3651C48.8331 73.7799 16.6398 105.386 14.9836 144.364C4.94279 98.8552 38.5535 58.8209 87.7078 52.8058C138.657 46.5771 168.22 99.3329 178.961 123.431Z" fill="white"/>
</g>
<path d="M176.032 123.318C157.129 94.0124 134.766 58.1766 96.2461 57.9221C61.2432 58.0824 24.4646 82.2023 19.2478 118.381C14.9329 146.501 30.0554 176.174 51.6518 193.735C62.8051 202.802 76.1676 209.131 90.187 212.868C93.0092 213.597 94.6999 216.491 93.9488 219.307C93.2009 222.11 90.3222 223.779 87.5189 223.031C72.2173 218.955 57.5034 212.022 45.0459 201.906C38.8203 196.868 33.1981 191.077 28.2987 184.728C14.0279 165.445 4.95816 140.995 8.86135 116.768C14.1442 79.6253 48.1823 52.5733 84.0997 47.6864C122.758 41.0554 154.187 67.6518 171.943 99.5623C175.667 106.432 178.788 113.604 180.815 121.146C181.198 122.567 180.356 124.028 178.936 124.408C177.808 124.713 176.648 124.238 176.032 123.318Z" fill="#1C1C25"/>
<path d="M346.757 544.421C441.753 537.457 531.555 510.27 561.63 449.648C584.298 403.957 567.736 356.94 567.733 356.871C567.161 354.121 578.572 162.192 430.449 95.0432C388.686 76.1118 349.444 71.0553 310.751 70.5964C272.056 71.0521 232.813 76.1087 191.054 95.0432C42.9308 162.192 54.3418 354.121 53.7698 356.871C53.7635 356.94 37.2049 403.96 59.8729 449.648C89.9481 510.27 179.75 537.457 274.746 544.421H346.763H346.757Z" fill="white"/>
<path d="M563.811 444.985C563.132 446.54 562.397 448.096 561.633 449.651C531.548 510.273 441.75 537.457 346.76 544.428H274.746C179.743 537.457 89.9451 510.273 59.8604 449.651C59.0968 448.096 58.3614 446.54 57.6826 444.985C38.3018 400.821 53.7511 356.937 53.7668 356.867C54.3325 354.124 42.9247 162.183 191.054 95.0463C232.817 76.1023 272.059 71.0552 310.755 70.5901C349.447 71.0552 388.68 76.1023 430.455 95.0463C578.572 162.183 567.161 354.124 567.727 356.867C567.742 356.937 583.192 400.821 563.811 444.985Z" fill="white"/>
<g opacity="0.25">
<path d="M563.811 444.985C563.132 446.54 562.397 448.096 561.633 449.651C531.548 510.273 441.75 537.457 346.76 544.428H274.746C179.743 537.457 89.9451 510.273 59.8605 449.651C59.0968 448.096 58.3614 446.54 57.6826 444.985C83.9364 465.78 164.25 517.835 310.739 517.835C457.228 517.835 537.542 465.783 563.808 444.985H563.811Z" fill="#181558"/>
</g>
<path d="M346.565 541.8C412.605 531.546 490.257 521.747 539.179 472.172C567.3 443.196 573.874 398.967 563.126 360.972C562.831 359.765 562.281 358.533 562.133 357.307L562.234 358.011C562.117 357.025 562.064 356.057 562.098 355.133L562.111 353.411L562.12 350.045C561.605 285.771 547.004 219.279 509.126 166.388C475.113 118.619 421.358 90.0557 364.123 80.612C294.457 69.4179 217.88 78.4185 159.106 119.65C86.5922 170.989 59.2919 264.678 59.0939 350.048C59.0405 352.468 59.2951 355.544 59.0091 357.961L59.1034 357.289C59.05 357.631 58.9808 357.974 58.896 358.313L58.7577 358.819C47.2178 397.326 53.7546 442.634 82.4219 472.077C131.319 521.329 208.958 531.851 274.932 541.807C278.128 542.256 277.801 547.036 274.548 547.045C260.306 546.964 246.063 546.015 231.88 544.377C137.874 532.762 28.9936 491.147 43.896 376.861C44.776 370.252 46.6144 361.358 48.4277 356.06C48.412 356.189 48.412 356.324 48.4277 356.453L48.5252 355.78C48.4529 355.846 48.4277 356.054 48.4372 356.022L48.4309 355.192C48.258 337.383 49.2763 319.457 51.5295 301.799C63.0222 207.054 108.852 119.858 201.981 84.5529C253.838 64.3111 311.299 60.917 365.978 69.6599C432.024 80.656 489.908 114.056 526.134 171.29C560.106 225.353 573.648 290.218 573.349 353.511L573.333 355.196L573.324 356.022C573.333 356.041 573.305 355.808 573.23 355.727L573.33 356.431C573.365 356.185 573.324 355.931 573.255 355.695L573.28 355.78C582.02 385.591 581.366 418.731 568.645 447.363C539.968 511.923 453.988 536.338 389.626 544.437C375.443 546.081 361.195 547.023 346.946 547.039C343.655 546.932 343.407 542.331 346.562 541.8H346.565Z" fill="#1C1C25"/>
<path d="M414.789 98.0098C405.757 77.8905 451.341 78.1231 446.665 59.6002C443.265 46.1339 388.139 23.9594 350.05 62.9849C350.05 62.9849 348.938 52.2904 349.698 38.1422C350.61 21.1907 348.404 7.31582 341.135 5.48365C326.411 1.77531 303.193 33.0573 254.595 63.846C235.799 75.7535 199.404 93.475 182.465 99.4209L314.34 183.16L414.786 98.0098H414.789Z" fill="white"/>
<g opacity="0.4">
<path d="M441.75 71.1024C428.039 58.4501 382.074 46.1591 348.979 80.0653C348.979 80.0653 347.876 69.374 348.636 55.2226C349.541 38.2711 347.329 24.3962 340.073 22.5641C325.343 18.8589 302.119 50.1409 253.53 80.9327C239.75 89.6535 216.516 101.517 198.417 109.556L182.468 99.4178C199.41 93.4719 235.805 75.7473 254.595 63.846C303.197 33.0543 326.408 1.76909 341.138 5.47742C348.407 7.31274 350.619 21.1844 349.702 38.1359C348.941 52.2873 350.057 62.9786 350.057 62.9786C388.136 23.9531 443.271 46.1309 446.665 59.5909C447.907 64.5028 445.612 68.0886 441.75 71.1024Z" fill="white"/>
</g>
<path d="M412.391 99.0846C405.343 88.189 415.955 79.2607 424.95 74.6253L429.522 72.2054C432.473 70.6184 435.374 69.1414 437.659 67.4569C439.422 66.1778 441.09 64.6662 441.445 62.8466C441.653 62.4129 441.329 61.0867 441.232 60.829C439.528 57.9032 435.883 55.6342 432.476 53.8178C418.485 46.8191 401.716 45.2006 386.518 48.5601C374.067 51.3256 362.778 57.8121 353.68 66.7812C350.707 69.8925 345.073 67.7554 344.827 63.5223C343.794 52.9064 344.277 42.6582 344.639 32.1145C344.667 27.2246 344.422 22.3126 343.498 17.9097C342.844 15.1065 342.15 12.4761 340.384 10.8482C340.022 10.5653 339.768 10.5591 339.34 10.4836C335.993 10.1599 331.745 12.6332 328.593 14.6571C316.116 23.1328 304.821 33.7016 292.716 43.0573C284.576 49.4966 276.217 55.7254 267.597 61.5896C250.453 73.4185 231.808 83.0319 213.062 92.0042C203.555 96.4793 194.187 100.779 184.209 104.377C177.757 106.511 174.109 97.0639 180.696 94.4743C185.328 92.8339 190.026 90.876 194.677 88.8458C227.323 74.6033 258.514 57.3847 286.195 34.8141C294.202 28.5036 301.99 21.9072 310.076 15.361C318.828 8.83687 330.01 -2.02101 342.159 0.326557C356.754 4.27374 355.28 28.4125 354.871 40.0969C354.551 47.4539 354.642 55.2225 355.28 62.4381L346.292 59.3111C366.128 37.1931 399.554 29.5847 427.505 39.3175C438.35 43.2113 454.755 50.7411 452.225 64.9365C449.352 77.0829 434.604 80.6686 425.122 85.7C420.041 88.2802 415.584 90.9828 417.184 96.9382C417.97 99.8483 414.032 101.643 412.391 99.0909V99.0846Z" fill="#1C1C25"/>
<path d="M214.083 399.152C232.769 391.896 265.89 381.625 267.976 347.553C270.396 308.046 242.713 276.334 209.3 273.81C177.352 271.397 139.602 283.769 109.86 328.203C93.5243 352.609 83.7003 390.862 106.277 406.286C135.356 426.154 199.256 404.916 214.086 399.155L214.083 399.152Z" fill="#35313F"/>
<path d="M340.773 366.883C340.767 373.618 331.977 379.561 323.906 383.593C315.468 387.813 306.015 387.804 297.587 383.568C289.526 379.517 280.745 373.558 280.751 366.823C280.77 346.509 340.792 346.566 340.773 366.88V366.883Z" fill="#1C1C25"/>
<g opacity="0.5">
<path d="M322.669 362.883C322.669 364.825 319.18 366.538 315.984 367.7C312.637 368.917 308.891 368.913 305.548 367.691C302.351 366.522 298.869 364.803 298.873 362.861C298.879 357.003 322.678 357.025 322.672 362.883H322.669Z" fill="white"/>
</g>
<path d="M174.756 207.962C172.521 203.358 198.627 165.819 221.302 169.298C234.24 171.284 238.655 189.317 228.787 195.369C220.683 200.341 178.615 215.91 174.759 207.962H174.756Z" fill="#35313F"/>
<path d="M446.445 207.962C448.68 203.358 422.574 165.819 399.899 169.298C386.961 171.284 382.546 189.317 392.414 195.369C400.519 200.341 442.586 215.91 446.442 207.962H446.445Z" fill="#35313F"/>
<path d="M162.971 383.461C171.755 399.407 190.139 391.393 211.261 382.64C232.361 373.898 244.416 371.214 243.756 356.707C242.914 338.181 216.069 323.112 189.206 331.12C162.003 339.228 153.439 366.157 162.971 383.464V383.461Z" fill="#1C1C25"/>
<path d="M178.288 396.468C170.598 396.468 164.024 393.536 159.52 385.362C154.351 375.981 153.895 363.957 158.301 353.206C163.414 340.727 173.989 331.541 188.081 327.345C203.948 322.616 221.538 325.171 233.983 334.017C242.436 340.026 247.308 348.021 247.694 356.531C248.398 372.003 237.216 376.475 220.29 383.241C217.933 384.184 215.425 385.186 212.773 386.286L211.544 386.795C199.989 391.588 188.213 396.471 178.288 396.471V396.468ZM204.266 332.87C199.611 332.87 194.897 333.533 190.331 334.894C178.571 338.398 169.784 345.963 165.595 356.192C162.085 364.762 162.393 374.243 166.425 381.559C172.999 393.495 186.708 388.558 208.524 379.51L209.753 378.998C212.437 377.886 214.976 376.871 217.361 375.918C234.382 369.114 240.246 366.283 239.819 356.886C239.545 350.853 235.849 345.013 229.416 340.441C222.433 335.475 213.474 332.873 204.263 332.873L204.266 332.87Z" fill="#1C1C25"/>
<path d="M219.676 368.892C226.764 368.133 231.865 361.49 231.068 354.053C230.272 346.617 223.881 341.204 216.794 341.962C209.706 342.721 204.605 349.365 205.401 356.801C206.197 364.237 212.588 369.651 219.676 368.892Z" fill="white"/>
<path d="M183.942 368.01C188.588 367.513 191.931 363.159 191.41 358.285C190.888 353.412 186.699 349.864 182.053 350.361C177.407 350.859 174.064 355.213 174.586 360.086C175.107 364.96 179.297 368.508 183.942 368.01Z" fill="white"/>
<path d="M204.571 384.099C204.571 384.099 184.577 455 189.282 531.624C180.237 537.291 151.325 529.205 145.712 520.855C140.278 512.768 135.976 431.776 168.396 387.442C176.944 375.755 201.909 379.202 204.568 384.099H204.571Z" fill="#66E9FF"/>
<path d="M189.288 531.631C180.234 537.3 151.331 529.202 145.718 520.851C143.509 517.555 141.478 502.137 142.05 482.024C142.874 452.813 149.191 413.706 168.392 387.436C176.947 375.761 201.906 379.206 204.57 384.092C204.57 384.092 192.217 427.898 189.212 483.862C188.402 499.101 188.285 515.226 189.285 531.628L189.288 531.631Z" fill="#66E9FF"/>
<path d="M181.616 526.122C181.217 526.15 180.777 526.15 180.306 526.15C168.615 526.15 154.407 520.053 151.947 516.904C151.123 514.946 149.266 497.794 150.017 485.588C158.219 488.561 169.454 490.534 181.836 486.766C180.57 497.234 181.189 516.716 181.616 526.125V526.122Z" fill="#66DBFF"/>
<path d="M181.616 526.122C181.217 526.15 180.777 526.15 180.306 526.15C168.615 526.15 154.407 520.053 151.947 516.904C151.123 514.946 149.266 497.794 150.017 485.588C158.219 488.561 169.454 490.534 181.836 486.766C180.57 497.234 181.189 516.716 181.616 526.125V526.122Z" fill="#66DBFF"/>
<path d="M180.265 537.391C166.475 537.391 147.408 530.443 142.443 523.051C135.341 512.486 132.808 429.435 165.218 385.114C170.098 378.442 180.013 374.932 191.72 375.711C194.831 375.918 205.202 377.006 208.033 382.213C208.524 383.115 208.643 384.174 208.363 385.164C208.165 385.868 188.609 456.348 193.216 531.379C193.304 532.819 192.597 534.195 191.374 534.959C188.671 536.653 184.746 537.385 180.265 537.385V537.391ZM188.643 383.492C187.848 383.492 187.037 383.517 186.204 383.571C182.248 383.828 175.086 384.972 171.579 389.768C158.417 407.766 149.621 435.469 146.811 467.775C144.423 495.254 147.254 515.899 148.986 518.661C152.958 524.575 175.956 531.659 185.189 529.12C181.557 461.685 196.742 398.542 200.123 385.481C198.081 384.535 193.8 383.486 188.643 383.486V383.492Z" fill="#25B0D6"/>
<path d="M406.939 399.152C388.252 391.896 355.132 381.625 353.045 347.553C350.625 308.046 378.309 276.334 411.722 273.81C443.67 271.397 481.419 283.769 511.162 328.203C527.497 352.609 537.321 390.862 514.744 406.286C485.665 426.154 421.766 404.916 406.935 399.155L406.939 399.152Z" fill="#35313F"/>
<path d="M350.776 427.882C349.284 427.882 347.86 427.031 347.194 425.591C346.999 425.18 342.756 416.386 333.463 416.333H333.397C329.658 416.333 326.735 418.181 323.357 420.321C319.787 422.577 315.742 425.139 310.509 425.139C305.277 425.139 301.232 422.581 297.662 420.321C294.284 418.181 291.364 416.333 287.621 416.333H287.555C278.124 416.386 273.872 425.484 273.831 425.575C272.93 427.555 270.591 428.426 268.611 427.53C266.632 426.628 265.758 424.293 266.657 422.31C266.914 421.748 273.096 408.536 287.508 408.451H287.621C293.643 408.451 298.014 411.217 301.873 413.659C304.922 415.588 307.558 417.257 310.506 417.257C313.454 417.257 316.088 415.591 319.139 413.659C322.998 411.217 327.37 408.451 333.391 408.451H333.504C347.917 408.533 354.098 421.745 354.356 422.31C355.258 424.29 354.384 426.628 352.401 427.53C351.87 427.772 351.317 427.885 350.77 427.885L350.776 427.882Z" fill="#1C1C25"/>
<path d="M315.99 386.113C315.99 386.113 314.321 388.316 313.639 390.953C312.621 394.897 312.282 399.821 310.761 399.821C309.24 399.821 308.907 394.9 307.892 390.953C307.213 388.313 305.544 386.113 305.544 386.113L310.764 382.084L315.993 386.113H315.99Z" fill="#1C1C25"/>
<path d="M173.961 399.881C168.128 408.643 161.255 427.942 170.34 430.418C180.513 433.19 182.345 414.84 183.851 398.09C185.076 384.444 178.565 392.967 173.961 399.881Z" fill="white"/>
<path d="M165.378 441.408C160.567 447.7 162.223 455.993 167.487 456.902C174.263 458.067 176.925 452.279 176.054 445.858C174.879 437.213 168.889 436.82 165.378 441.408Z" fill="white"/>
<path d="M458.522 383.461C449.739 399.407 431.354 391.393 410.232 382.64C389.133 373.898 377.077 371.214 377.737 356.707C378.579 338.181 405.424 323.112 432.287 331.12C459.49 339.228 468.054 366.157 458.522 383.464V383.461Z" fill="#1C1C25"/>
<path d="M443.209 396.468C433.284 396.468 421.508 391.585 409.953 386.792L408.724 386.283C406.072 385.183 403.564 384.18 401.207 383.238C384.281 376.471 373.099 371.999 373.803 356.525C374.189 348.015 379.061 340.023 387.514 334.011C399.959 325.168 417.552 322.609 433.416 327.339C447.508 331.538 458.083 340.724 463.196 353.2C467.602 363.954 467.146 375.975 461.977 385.356C457.473 393.53 450.896 396.462 443.209 396.462V396.468ZM417.231 332.87C408.02 332.87 399.064 335.476 392.081 340.438C385.648 345.01 381.952 350.849 381.678 356.883C381.251 366.28 387.115 369.111 404.136 375.915C406.521 376.871 409.06 377.883 411.744 378.998L412.976 379.507C434.793 388.555 448.498 393.495 455.075 381.556C459.104 374.24 459.415 364.759 455.905 356.189C451.716 345.959 442.929 338.395 431.169 334.891C426.606 333.53 421.889 332.867 417.234 332.867L417.231 332.87Z" fill="#1C1C25"/>
<path d="M416.072 356.778C416.868 349.341 411.767 342.698 404.68 341.939C397.592 341.18 391.201 346.594 390.405 354.03C389.609 361.466 394.709 368.11 401.797 368.868C408.885 369.627 415.276 364.214 416.072 356.778Z" fill="white"/>
<path d="M446.911 360.089C447.432 355.216 444.089 350.862 439.443 350.364C434.797 349.867 430.608 353.415 430.087 358.288C429.565 363.162 432.908 367.516 437.554 368.013C442.2 368.511 446.389 364.963 446.911 360.089Z" fill="white"/>
<path d="M170.646 619.616C170.646 619.616 182.035 720.269 227.584 765.445C244.652 782.371 265.865 783.26 279.668 775.432C300.406 763.669 297.207 734.756 294.209 719.417C286.295 678.933 265.34 630.829 255.243 598.538" fill="#35313F"/>
<g opacity="0.25">
<path d="M179.502 628.623C179.502 628.623 206.661 740.517 240.696 760.976C265.101 775.646 291.208 763.694 288.401 737.355C288.401 737.355 279.621 767.324 247.977 753.515C215.532 739.357 179.499 628.626 179.499 628.626L179.502 628.623Z" fill="#181558"/>
</g>
<path d="M172.603 619.393C179.338 652.039 187.905 684.534 201.396 715.039C214.168 743.022 239.809 787.525 276.148 770.542C300.192 757.104 288.241 717.415 282.76 695.797C276.044 671.661 267.172 647.862 259.916 623.742C257.455 615.643 255.152 607.46 253.36 599.119C253.131 598.051 253.81 596.998 254.878 596.769C255.827 596.564 256.764 597.08 257.122 597.944C263.665 613.45 270.359 628.899 276.559 644.644C282.81 660.436 288.476 676.454 293.319 692.78C301.33 720.734 312.992 763.053 281.795 781.064C268.907 788.021 252.735 787.415 239.872 781.205C201.695 761.931 180.906 697.305 173.518 657.837C171.211 645.247 169.373 632.655 168.685 619.836C168.619 617.447 172.119 616.948 172.6 619.393H172.603Z" fill="#1C1C25"/>
<path d="M276.126 737.355C282.776 748.543 288.266 761.299 287.794 774.599L277.518 772.393C277.725 772.057 277.911 771.236 278.049 770.756C280.598 759.807 278.995 748.144 276.123 737.359L276.126 737.355Z" fill="#1C1C25"/>
<path d="M246.142 747.544C250.67 758.15 257.386 768.502 267.351 774.586C267.795 774.828 268.549 775.287 268.916 775.356L263.455 784.335C252.879 775.111 247.999 761.045 246.142 747.544Z" fill="#1C1C25"/>
<path d="M450.848 619.616C450.848 619.616 439.459 720.269 393.91 765.445C376.842 782.371 355.629 783.26 341.826 775.432C321.088 763.669 324.287 734.756 327.285 719.417C335.198 678.933 356.154 630.829 366.251 598.538" fill="#35313F"/>
<g opacity="0.25">
<path d="M441.992 628.623C441.992 628.623 414.833 740.517 380.798 760.976C356.392 775.646 330.286 763.694 333.093 737.355C333.093 737.355 341.873 767.324 373.517 753.515C405.962 739.357 441.995 628.626 441.995 628.626L441.992 628.623Z" fill="#181558"/>
</g>
<path d="M452.806 619.836C449.176 668.713 435.031 725.602 403.07 764.03C388.19 782.713 362.056 792.883 339.699 781.063C308.492 763.037 320.17 720.746 328.175 692.78C333.017 676.454 338.684 660.436 344.934 644.644C351.138 628.896 357.832 613.443 364.375 597.934C365.308 595.819 368.614 596.743 368.133 599.119C366.342 607.457 364.035 615.64 361.578 623.742C354.321 647.862 345.45 671.661 338.734 695.797C333.253 717.434 321.302 757.088 345.346 770.542C395.226 793.471 426.672 704.005 436.954 668.173C441.596 652.148 445.6 635.807 448.89 619.393C449.274 617.083 452.916 617.322 452.806 619.836Z" fill="#1C1C25"/>
<path d="M345.368 737.355C342.496 748.144 340.893 759.803 343.442 770.752C343.583 771.233 343.768 772.066 343.973 772.393L333.696 774.599C333.225 761.299 338.718 748.546 345.365 737.355H345.368Z" fill="#1C1C25"/>
<path d="M375.349 747.544C373.492 761.045 368.608 775.111 358.036 784.335L352.574 775.356C352.958 775.278 353.696 774.828 354.139 774.586C364.105 768.499 370.817 758.154 375.349 747.544Z" fill="#1C1C25"/>
<path d="M433.381 531.631C442.435 537.3 471.338 529.202 476.951 520.851C479.161 517.555 481.191 502.137 480.619 482.024C479.795 452.813 473.479 413.706 454.277 387.436C445.723 375.761 420.764 379.206 418.099 384.092C418.099 384.092 430.452 427.898 433.457 483.862C434.268 499.101 434.384 515.226 433.385 531.628L433.381 531.631Z" fill="#66E9FF"/>
<path d="M441.052 526.122C441.451 526.15 441.891 526.15 442.363 526.15C454.053 526.15 468.261 520.053 470.722 516.904C471.545 514.946 473.403 497.794 472.651 485.588C464.449 488.561 453.214 490.534 440.832 486.766C442.099 497.234 441.479 516.716 441.052 526.125V526.122Z" fill="#66DBFF"/>
<path d="M442.401 537.391C437.916 537.391 433.991 536.656 431.291 534.965C430.069 534.198 429.362 532.825 429.45 531.386C434.057 456.355 414.5 385.871 414.302 385.17C414.022 384.18 414.142 383.121 414.632 382.219C417.46 377.009 427.831 375.925 430.942 375.717C442.661 374.938 452.57 378.448 457.448 385.12C489.858 429.441 487.325 512.489 480.222 523.058C475.257 530.449 456.187 537.398 442.401 537.398V537.391ZM437.476 529.123C446.706 531.653 469.704 524.575 473.683 518.658C475.411 515.902 478.243 495.258 475.854 467.778C473.045 435.472 464.248 407.766 451.087 389.771C447.58 384.975 440.418 383.828 436.461 383.574C430.238 383.162 424.899 384.397 422.542 385.488C425.924 398.549 441.106 461.691 437.473 529.126L437.476 529.123Z" fill="#25B0D6"/>
<path d="M448.708 399.881C454.541 408.643 461.414 427.942 452.328 430.418C442.155 433.19 440.323 414.84 438.818 398.09C437.592 384.444 444.104 392.967 448.708 399.881Z" fill="white"/>
<path d="M457.287 441.408C462.099 447.7 460.443 455.993 455.179 456.902C448.403 458.067 445.741 452.279 446.615 445.858C447.79 437.213 453.78 436.82 457.291 441.408H457.287Z" fill="white"/>
<g opacity="0.25">
<path d="M393.784 844.354C398.998 843.206 403.841 842.012 408.243 840.849C408.243 840.849 441.521 850.714 470.968 798.694C475.195 791.23 478.611 784.514 481.32 778.509C483.042 770.837 484.28 764.609 482.806 761.871C479.51 755.762 463.856 780.866 401.147 794.854C391.946 812.493 388.869 829.838 393.784 844.357V844.354Z" fill="#181558"/>
</g>
<path d="M213.706 838.31C245.356 843.254 278.489 847.898 310.503 847.534C342.53 847.886 375.632 843.191 407.3 838.31C410.32 837.858 411.618 842.223 408.645 843.389C356.584 862.528 289.969 863.228 236.201 850.724C228.122 848.75 220.136 846.374 212.367 843.389C209.498 842.267 210.592 837.855 213.713 838.31H213.706Z" fill="#1C1C25"/>
<path d="M269.727 357.609C289.114 339.775 320.522 337.795 342.964 350.984C346.138 352.892 349.221 354.979 351.82 357.609C348.426 356.204 345.069 354.96 341.653 353.932C318.124 346.135 292.439 347.905 269.727 357.609Z" fill="#1C1C25"/>
</svg>
