<svg width="3011" height="2133" viewBox="0 0 3011 2133" fill="none" xmlns="http://www.w3.org/2000/svg">
<g opacity="0.2">
<path d="M1505.48 2132.53C2336.93 2132.53 3010.96 2042.41 3010.96 1931.23C3010.96 1820.06 2336.93 1729.93 1505.48 1729.93C674.026 1729.93 0 1820.06 0 1931.23C0 2042.41 674.026 2132.53 1505.48 2132.53Z" fill="#1C1C25"/>
</g>
<path d="M960.61 1925.36H401.87C67.8701 1925.36 67.8701 1628.24 401.87 1628.24H755.08" fill="#35313F"/>
<g opacity="0.3">
<path d="M960.62 1925.35H401.87C243.68 1925.35 160.44 1858.72 152.08 1788.55C193.54 1820.33 259.46 1842.1 349.93 1842.1H903.01L960.62 1925.35Z" fill="#1C1C25"/>
</g>
<g opacity="0.55">
<path d="M960.62 1925.35H956.37L773.96 1661.63H420.76C227.58 1661.63 146.13 1761.07 176.4 1844.89C106.94 1756.87 182.11 1628.25 401.87 1628.25H755.07L960.62 1925.36V1925.35Z" fill="white"/>
</g>
<path d="M2578.18 1964.4C2570.58 1964.64 2562.79 1964.73 2554.85 1964.73H1372.42C1362.03 1964.4 1352.02 1963.79 1342.39 1963.03C995.99 1934.93 1145.53 1635.23 1771.24 1656.81L1200.35 1268.52C1237.37 1230.46 1276.09 1195.61 1316.08 1164.02C1456.7 1052.91 1612.67 982.043 1765.19 951.393C1956.9 912.813 2143.04 937.793 2286.02 1026.28C2452.75 1129.31 2560.79 1318.62 2550.64 1593.95C2575.67 1597.26 2599.47 1602.12 2621.89 1608.26C2640.68 1613.41 2658.49 1619.45 2675.2 1626.25C2903.84 1719.32 2937.55 1954.71 2578.16 1964.39L2578.18 1964.4Z" fill="white"/>
<path d="M2554.85 1967.23H1372.42C1362.88 1966.93 1353.02 1966.37 1342.19 1965.52C1224.97 1956.01 1154.27 1913.45 1157.69 1854.43C1160.65 1803.18 1220.12 1750.29 1316.76 1712.96C1396.33 1682.22 1537.98 1647.27 1762.71 1654.03L1196.48 1268.91L1198.56 1266.77C1235.08 1229.22 1274.1 1193.99 1314.54 1162.05C1450.74 1054.43 1606.41 980.742 1764.7 948.932C1959.89 909.652 2145.5 936.362 2287.34 1024.14C2467.65 1135.56 2562.02 1337.07 2553.22 1591.76C2576.9 1594.99 2600.22 1599.72 2622.56 1605.83C2641.1 1610.91 2659.13 1616.99 2676.15 1623.92C2791.66 1670.94 2862.57 1757.42 2848.61 1834.23C2834.06 1914.29 2735.51 1962.64 2578.24 1966.87C2571.09 1967.09 2563.44 1967.2 2554.84 1967.2L2554.85 1967.23ZM1707.2 1658.19C1515.13 1658.19 1390.98 1689.66 1318.57 1717.63C1223.8 1754.24 1165.53 1805.49 1162.68 1854.73C1159.45 1910.74 1228.38 1951.28 1342.59 1960.54C1353.33 1961.38 1363.11 1961.94 1372.5 1962.23H2554.85C2563.4 1962.23 2571 1962.12 2578.1 1961.9C2732.79 1957.73 2829.59 1910.88 2843.69 1833.36C2857.23 1758.9 2787.56 1674.69 2674.27 1628.57C2657.43 1621.72 2639.59 1615.7 2621.24 1610.68C2598.41 1604.43 2574.55 1599.64 2550.32 1596.44L2548.06 1596.14L2548.15 1593.87C2557.51 1339.99 2463.96 1139.18 2284.71 1028.42C2143.96 941.312 1959.63 914.832 1765.68 953.852C1608.15 985.502 1453.22 1058.86 1317.63 1165.99C1278.13 1197.19 1239.99 1231.54 1204.22 1268.14L1779.79 1659.61L1771.15 1659.31C1749.05 1658.55 1727.72 1658.19 1707.19 1658.19H1707.2Z" fill="#1C1C25"/>
<path d="M960.61 1941.61H401.87C218.6 1941.61 135.12 1856.18 135.12 1776.8C135.12 1697.42 218.59 1611.99 401.87 1611.99H755.08C764.05 1611.99 771.33 1619.26 771.33 1628.24C771.33 1637.22 764.06 1644.49 755.08 1644.49H401.87C248.08 1644.49 167.62 1711.05 167.62 1776.8C167.62 1842.55 248.08 1909.11 401.87 1909.11H960.61C969.58 1909.11 976.86 1916.38 976.86 1925.36C976.86 1934.34 969.59 1941.61 960.61 1941.61Z" fill="#1C1C25"/>
<path d="M2019.71 1588.86C1997.42 1674.52 1941 1810.23 1854.68 1889.04L1629.96 1776.8C1629.96 1776.8 1409.02 1660.78 1415.3 1611.48C1420.73 1568.84 1346.6 1258.8 1316.09 1164.03C1341.49 1143.96 1367.37 1125.22 1393.67 1107.79C1512.95 1028.65 1640.2 976.523 1765.19 951.403C1766.46 951.163 1781.24 953.953 1803.49 962.313C1899.91 998.573 2136.62 1139.38 2019.71 1588.87V1588.86Z" fill="#35313F"/>
<g opacity="0.55">
<path d="M2522.32 1342.85C2413.71 1040.64 2103.43 922.032 1777 987.712C1624.48 1018.36 1468.51 1089.23 1327.89 1200.34C1293.89 1227.21 1260.79 1256.39 1228.92 1287.98L1200.35 1268.53C1237.37 1230.47 1276.09 1195.62 1316.08 1164.03C1456.7 1052.92 1612.67 982.052 1765.19 951.402C2104.42 883.172 2426.17 1013.87 2522.31 1342.85H2522.32Z" fill="white"/>
</g>
<g opacity="0.3">
<path d="M1683.77 1066.6C1886.4 1158.66 1982.51 1340.12 1986.07 1599.26C1986.73 1647.18 1943.32 1683.79 1896.12 1675.46C1818.46 1661.76 1702.4 1647.14 1604.5 1658.94C1440.46 1678.71 1683.76 1066.6 1683.76 1066.6H1683.77Z" fill="#1C1C25"/>
</g>
<path d="M2505.93 1294.26L2446.43 1202.46L2379.8 1099.71C2444.82 1057.54 2503.37 1059.48 2541.57 1084.17C2603.95 1124.45 2612.12 1225.45 2505.92 1294.25L2505.93 1294.26Z" fill="#35313F"/>
<g opacity="0.55">
<path d="M2546.58 1114.18C2566.05 1126.75 2580.24 1145.25 2587.32 1166.83C2586.64 1132.65 2569.61 1102.28 2541.58 1084.18C2503.38 1059.48 2444.83 1057.55 2379.81 1099.72L2395.16 1123.4C2456.02 1087.89 2510.42 1090.81 2546.58 1114.19V1114.18Z" fill="white"/>
</g>
<path d="M2550.66 1610.21C2550.46 1610.21 2550.25 1610.21 2550.05 1610.21C2541.08 1609.88 2534.08 1602.34 2534.41 1593.37C2542.44 1375.97 2475.64 1200.66 2341.24 1086.4C2199.62 965.992 1990.82 922.592 1768.41 967.342C1612.99 998.572 1460.07 1070.99 1326.17 1176.79C1286.37 1208.23 1247.96 1242.91 1212.01 1279.87C1205.75 1286.3 1195.46 1286.45 1189.03 1280.19C1182.6 1273.93 1182.46 1263.64 1188.71 1257.21C1225.65 1219.24 1265.12 1183.6 1306.02 1151.29C1443.91 1042.34 1601.59 967.712 1762 935.482C1994.23 888.762 2213.04 934.752 2362.29 1061.64C2504.55 1182.58 2575.3 1366.87 2566.89 1594.57C2566.57 1603.33 2559.36 1610.22 2550.66 1610.22V1610.21Z" fill="#1C1C25"/>
<path d="M1222.34 711.142C1417.12 327.752 1927.55 652.502 1654.97 1018.97Z" fill="#35313F"/>
<g opacity="0.3">
<path d="M1526.52 927.583L1654.96 1018.96C1755.64 883.633 1749.5 753.963 1691.93 663.562C1697.62 766.893 1644.95 875.463 1526.53 927.583H1526.52Z" fill="#1C1C25"/>
</g>
<g opacity="0.55">
<path d="M1222.33 711.133L1245.69 727.753C1383.27 489.743 1651.98 561.033 1726.05 744.023C1674.6 528.663 1364.47 431.403 1222.33 711.133Z" fill="white"/>
</g>
<path d="M650.9 845.803C325.93 644.623 -32.96 1102.76 403.47 1336.14Z" fill="#35313F"/>
<g opacity="0.55">
<path d="M220.74 1155.8C175.99 953.022 409.03 758.292 637.01 873.352L650.9 845.802C398.55 689.602 125.82 930.852 220.74 1155.8Z" fill="white"/>
</g>
<path d="M436.69 1604.87C555.36 1975.8 891.54 2025.22 1250.05 1910.52C1608.56 1795.82 1853.63 1560.44 1734.96 1189.52C1616.29 818.593 1229.46 610.883 870.96 725.573C512.45 840.273 318.03 1233.94 436.69 1604.87Z" fill="white"/>
<path d="M933.66 1967.5C868.12 1967.5 807.4 1959.09 752.7 1942.19C597.55 1894.27 490.43 1781.03 434.32 1605.63C376.73 1425.61 390.34 1234.69 472.65 1068.03C554.97 901.343 696.16 778.873 870.2 723.203C1229.45 608.263 1618.45 817.123 1737.35 1188.76C1793.47 1364.16 1771.96 1518.55 1673.44 1647.63C1587.5 1760.22 1441.36 1851.95 1250.82 1912.91C1137.3 1949.23 1030.26 1967.51 933.66 1967.51V1967.5ZM439.08 1604.11C494.67 1777.86 600.68 1890.01 754.18 1937.42C888.52 1978.92 1059.73 1968.8 1249.3 1908.15C1438.87 1847.5 1584.16 1756.37 1669.47 1644.6C1766.94 1516.9 1788.18 1364.05 1732.59 1190.29C1614.53 821.273 1228.35 613.873 871.73 727.963C698.99 783.223 558.85 904.783 477.14 1070.25C395.41 1235.74 381.89 1425.34 439.09 1604.12L439.08 1604.11Z" fill="#1C1C25"/>
<g opacity="0.3">
<path d="M546.37 1806.84C706.45 1989.68 971.5 1999.63 1250.07 1910.51C1608.56 1795.82 1853.63 1560.45 1734.97 1189.55C1672.98 995.802 1537.85 846.622 1371.85 764.582C1456.46 845.102 1523.02 948.092 1561.45 1068.22C1680.13 1439.17 1435.06 1674.53 1076.57 1789.22C883.14 1851.1 696.18 1865.21 546.37 1806.84Z" fill="#1C1C25"/>
</g>
<path d="M933.64 1981.23C866.71 1981.23 804.63 1972.62 748.64 1955.33C588.95 1906 478.78 1789.76 421.22 1609.82C362.54 1426.39 376.42 1231.81 460.32 1061.94C544.31 891.882 688.39 766.922 866.01 710.102C1232.48 592.862 1629.23 805.712 1750.44 1184.57C1808 1364.51 1785.77 1523.11 1684.37 1655.97C1596.72 1770.8 1448.25 1864.18 1255.01 1926C1140.16 1962.74 1031.7 1981.23 933.64 1981.23ZM452.17 1599.92C506.31 1769.14 609.28 1878.27 758.23 1924.28C889.88 1964.95 1058.23 1954.83 1245.1 1895.05C1431.98 1835.26 1574.94 1745.77 1658.53 1636.25C1753.11 1512.33 1773.62 1363.69 1719.48 1194.47C1603.73 832.672 1225.28 629.272 875.9 741.052C706.74 795.172 569.5 914.242 489.44 1076.33C409.29 1238.61 396.05 1424.56 452.16 1599.92H452.17Z" fill="#1C1C25"/>
<path d="M1654.95 1035.22C1651.58 1035.22 1648.18 1034.17 1645.26 1032.01C1638.06 1026.65 1636.56 1016.48 1641.92 1009.28C1749.3 864.923 1718.69 750.203 1690.88 694.673C1648.55 610.123 1561.69 555.313 1469.6 555.043C1469.37 555.043 1469.12 555.043 1468.89 555.043C1372.77 555.043 1290.38 613.063 1236.81 718.513C1232.75 726.513 1222.97 729.703 1214.97 725.643C1206.97 721.583 1203.78 711.793 1207.84 703.803C1266.38 588.583 1361.51 522.553 1468.92 522.553C1469.18 522.553 1469.43 522.553 1469.69 522.553C1573.94 522.863 1672.16 584.713 1719.93 680.133C1772.93 786.003 1754 913.043 1667.98 1028.68C1664.79 1032.97 1659.89 1035.23 1654.93 1035.23L1654.95 1035.22Z" fill="#1C1C25"/>
<path d="M403.46 1352.4C400.87 1352.4 398.25 1351.78 395.81 1350.48C261.28 1278.54 186.49 1177.09 185.2 1064.82C184.07 965.883 241.17 871.783 334.24 819.243C435.49 762.083 554.03 766.733 659.45 831.993C667.08 836.713 669.44 846.733 664.71 854.363C659.98 861.993 649.97 864.343 642.34 859.623C547.3 800.783 440.82 796.383 350.21 847.533C267.47 894.243 216.69 977.353 217.69 1064.44C218.83 1164.32 287.53 1255.72 411.13 1321.82C419.04 1326.05 422.03 1335.9 417.8 1343.81C414.87 1349.28 409.26 1352.4 403.46 1352.4Z" fill="#1C1C25"/>
<path d="M960.61 752.672C866.58 563.372 695.87 693.732 821.69 787.202Z" fill="white"/>
<path d="M820.2 789.203C784.11 762.393 768.28 729.553 776.77 699.123C783.74 674.153 806.55 656.293 834.88 653.603C882.31 649.143 930.16 685.723 962.85 751.543L958.37 753.773C926.64 689.883 880.67 654.293 835.35 658.583C809.1 661.073 788 677.503 781.59 700.463C773.68 728.793 788.84 759.663 823.18 785.183L820.2 789.193V789.203Z" fill="#1C1C25"/>
<path d="M795.3 762.092C675.31 705.452 636.41 857.662 781.08 842.332Z" fill="white"/>
<path d="M761.93 845.882C726.04 845.882 699.59 834.152 689.49 813.072C681.73 796.882 685.42 777.662 698.89 764.112C720.2 742.672 756.64 741.072 796.37 759.832L794.24 764.352C756.51 746.542 722.2 747.772 702.44 767.642C690.48 779.672 687.17 796.662 694 810.922C704.89 833.642 737.36 844.462 780.81 839.862L781.34 844.832C774.61 845.542 768.13 845.892 761.93 845.892V845.882Z" fill="#1C1C25"/>
<path d="M739.56 841.763C646.24 909.023 747.34 986.993 789.44 891.723Z" fill="white"/>
<path d="M737.01 938.562C736.05 938.562 735.09 938.532 734.13 938.462C717.97 937.342 704.68 926.622 700.28 911.152C693.74 888.212 707.88 861.512 738.1 839.732L741.02 843.792C712.58 864.292 699.14 888.962 705.08 909.792C708.9 923.212 720.44 932.502 734.47 933.482C754.98 934.852 774.69 918.922 787.15 890.712L791.73 892.732C778.95 921.662 758.66 938.562 737.02 938.562H737.01Z" fill="#1C1C25"/>
<path d="M821.68 803.453C818.31 803.453 814.91 802.413 812 800.243C771.69 770.293 753.57 731.113 763.53 695.433C772.04 664.933 799.54 643.153 833.58 639.923C886.86 634.863 939.83 674.323 975.16 745.433C979.15 753.473 975.87 763.223 967.84 767.213C959.8 771.203 950.05 767.923 946.06 759.893C916.96 701.303 876.04 668.603 836.64 672.273C816.1 674.213 799.69 686.733 794.82 704.163C788.52 726.703 801.85 752.213 831.37 774.153C838.57 779.503 840.07 789.683 834.72 796.883C831.53 801.173 826.63 803.443 821.67 803.443L821.68 803.453Z" fill="#1C1C25"/>
<path d="M760.97 859.702C703.36 859.702 683.31 832.002 677.09 819.022C666.78 797.512 671.51 772.152 689.14 754.422C714.74 728.682 757.01 726.052 802.24 747.402C810.36 751.232 813.83 760.912 810 769.032C806.17 777.152 796.49 780.632 788.37 776.792C750.41 758.872 724.13 765.332 712.19 777.342C704.27 785.312 702.05 795.902 706.4 804.982C712.78 818.292 735.27 830.862 779.37 826.192C788.32 825.262 796.29 831.712 797.24 840.642C798.18 849.562 791.72 857.562 782.79 858.512C774.98 859.342 767.72 859.722 760.97 859.722V859.702Z" fill="#1C1C25"/>
<path d="M737.07 952.313C735.78 952.313 734.48 952.263 733.18 952.173C711.18 950.653 693.07 936.023 687.05 914.923C678.85 886.173 694.93 853.893 730.06 828.573C737.34 823.323 747.49 824.973 752.74 832.253C757.99 839.533 756.34 849.683 749.06 854.933C721.35 874.913 715 894.413 718.3 906.003C720.52 913.783 727.24 919.183 735.42 919.743C749.9 920.753 764.55 907.813 774.57 885.133C778.2 876.923 787.78 873.213 796 876.843C804.21 880.473 807.92 890.063 804.29 898.273C789.22 932.393 764.3 952.293 737.06 952.303L737.07 952.313Z" fill="#1C1C25"/>
<path d="M938.2 1447.96C948.82 1481.15 996.19 1515.6 1036.86 1502.58C1077.53 1489.57 1096.11 1434.03 1085.49 1400.83C1074.87 1367.64 1039.06 1369.3 998.38 1382.32C957.71 1395.33 927.58 1414.76 938.2 1447.96Z" fill="#1C1C25"/>
<path d="M1200.36 1667.06C1193.32 1695.16 1163.62 1719.52 1124.05 1734.54C1091.33 1746.96 1059.36 1750.03 1035.8 1741.43C1020.41 1735.81 1008.6 1725.23 1002.46 1709.04C986.92 1668.01 1018.14 1618.14 1072.2 1597.65C1126.27 1577.16 1182.69 1593.83 1198.23 1634.91C1202.39 1645.91 1202.9 1656.73 1200.36 1667.07V1667.06Z" fill="#1C1C25"/>
<path d="M1200.36 1667.06C1193.32 1695.16 1163.62 1719.52 1124.05 1734.54C1091.33 1746.96 1059.36 1750.03 1035.8 1741.43C1042.08 1710.45 1069.18 1680.47 1108.09 1665.74C1141.29 1653.13 1175.38 1654.6 1200.36 1667.06Z" fill="#FF2C4B"/>
<path d="M1045.41 1475.06L1055.57 1545.29C1055.96 1547.95 1054.11 1550.42 1051.45 1550.81C1049.34 1551.11 1047.35 1550.01 1046.42 1548.22L1013.93 1485.13C1009.69 1476.9 1012.93 1466.8 1021.15 1462.56C1029.38 1458.32 1039.48 1461.56 1043.72 1469.79C1044.58 1471.47 1045.14 1473.29 1045.41 1475.06Z" fill="#1C1C25"/>
<path d="M1056.67 1263.29C1139.21 1296 1202.79 1365.03 1252.11 1461.41C1265.93 1488.41 1295.23 1503.73 1325.38 1500.39C1477.13 1483.6 1537.82 1294.23 1412.62 1144.02C1249.03 950.102 1021.54 1050.12 1011.5 1191.12C1009.28 1222.31 1027.61 1251.77 1056.68 1263.29H1056.67Z" fill="#35313F"/>
<path d="M897.76 1322.12C849.54 1396.66 837.82 1489.78 853.61 1596.89C858.03 1626.9 843.06 1656.38 816.58 1671.16C683.27 1745.57 523.93 1626.59 538.69 1431.61C559.35 1178.75 802.64 1128.15 892.66 1237.14C912.57 1261.25 914.75 1295.87 897.76 1322.13V1322.12Z" fill="#35313F"/>
<path d="M1238.03 1341.42C1218.55 1341.42 1197.96 1334.35 1179.66 1316.9C1173.66 1311.18 1173.44 1301.69 1179.15 1295.69C1184.86 1289.69 1194.36 1289.46 1200.36 1295.18C1224.9 1318.57 1252.88 1313.06 1269.39 1301.23C1284.64 1290.3 1298.06 1268.07 1285.69 1241.37C1282.21 1233.85 1285.48 1224.94 1292.99 1221.45C1300.52 1217.97 1309.42 1221.24 1312.91 1228.75C1331.71 1269.31 1313.37 1306.62 1286.87 1325.61C1273.42 1335.25 1256.22 1341.41 1238.04 1341.41L1238.03 1341.42Z" fill="#1C1C25"/>
<path d="M733.09 1511.67C705.75 1511.67 680.14 1499.4 663.91 1476.98C659.05 1470.27 660.55 1460.89 667.26 1456.03C673.97 1451.18 683.35 1452.67 688.21 1459.38C705.27 1482.94 734.58 1485.42 756.06 1477.41C775.71 1470.09 795.79 1451.66 793.2 1421.87C792.48 1413.62 798.59 1406.35 806.85 1405.63C815.1 1404.91 822.37 1411.02 823.09 1419.28C826.42 1457.63 804.22 1491.48 766.53 1505.52C755.43 1509.65 744.11 1511.65 733.08 1511.65L733.09 1511.67Z" fill="#1C1C25"/>
<path d="M1066.22 1762.56C1059.2 1762.56 1052.45 1762 1046.03 1760.88C1017.51 1755.89 996.65 1739.53 987.29 1714.82C977.92 1690.1 981.54 1662.47 997.47 1637.02C1012.51 1612.99 1037.01 1593.61 1066.45 1582.45C1095.9 1571.3 1127.08 1569.58 1154.27 1577.61C1183.06 1586.12 1204.07 1604.42 1213.44 1629.13C1222.8 1653.84 1218.02 1679.91 1199.96 1702.55C1184.56 1721.86 1160.31 1738.17 1129.82 1749.72C1107.39 1758.22 1085.77 1762.55 1066.23 1762.55L1066.22 1762.56ZM1118.76 1605.1C1105.42 1605.1 1091.52 1607.7 1077.96 1612.83C1055.11 1621.48 1036.31 1636.19 1025.01 1654.25C1014.6 1670.89 1011.99 1688.3 1017.67 1703.3C1022.95 1717.24 1034.38 1725.84 1051.63 1728.86C1069.96 1732.07 1093.63 1728.68 1118.3 1719.33C1142.98 1709.98 1162.95 1696.83 1174.55 1682.29C1185.47 1668.6 1188.33 1654.59 1183.05 1640.64C1177.37 1625.65 1163.88 1614.33 1145.06 1608.76C1136.76 1606.31 1127.89 1605.09 1118.76 1605.09V1605.1Z" fill="#1C1C25"/>
<path d="M1867.8 1710.8C1933.65 1857.97 1855.95 1942.59 1634.74 1964.73H1372.44C987.17 1951.79 1128.83 1633.15 1775.74 1656.95C1814.82 1653.15 1851.77 1674.95 1867.81 1710.79L1867.8 1710.8Z" fill="#35313F"/>
<g opacity="0.55">
<path d="M1783.05 1659.83C1783.05 1678.01 1768.1 1692.57 1749.93 1692.27C1364.91 1685.78 1170.55 1803.58 1171.89 1895.65C1109.14 1802.96 1296.97 1650.86 1728.18 1655.82L1783.05 1659.83Z" fill="white"/>
</g>
<path d="M2554.85 1964.73H2483.6C2483.6 1964.73 2258.08 1783.08 2483.6 1593.96C2485.54 1592.35 2487.43 1590.75 2489.22 1589.14C2874.15 1599.39 3025.31 1964.73 2554.86 1964.73H2554.85Z" fill="#35313F"/>
<g opacity="0.55">
<path d="M2484.22 1594.15C2482.43 1595.76 2480.54 1597.36 2478.6 1598.97C2472.42 1604.15 2466.64 1609.33 2461.13 1614.49C2735.78 1622.66 2890.57 1811.68 2783.84 1918.36C2936.13 1817.36 2778.51 1601.99 2484.22 1594.16V1594.15Z" fill="white"/>
</g>
<path d="M2554.85 1980.96H1372.4C1372.22 1980.96 1372.04 1980.96 1371.86 1980.96C1257.96 1977.14 1180.4 1947.16 1153.46 1896.53C1138.65 1868.7 1141.08 1836.45 1160.32 1805.73C1191.02 1756.69 1261.86 1713.36 1359.79 1683.7C1472.1 1649.69 1616.15 1634.84 1776.33 1640.73C1785.3 1641.06 1792.3 1648.6 1791.97 1657.57C1791.64 1666.54 1784.18 1673.55 1775.13 1673.21C1618.48 1667.45 1478.13 1681.83 1369.21 1714.81C1280.1 1741.79 1214.01 1781.22 1187.86 1822.98C1174.69 1844.02 1172.76 1863.63 1182.15 1881.27C1202.76 1920.01 1273.98 1945.13 1372.68 1948.48H2554.85C2690.44 1948.48 2786.93 1916.03 2819.6 1859.45C2837.25 1828.88 2835.19 1791.65 2813.8 1754.6C2770.85 1680.21 2648.66 1605.14 2472.51 1605.15C2463.54 1605.15 2456.26 1597.88 2456.26 1588.9C2456.26 1579.92 2463.53 1572.65 2472.51 1572.65C2661.62 1572.65 2794.32 1655.87 2841.95 1738.35C2869.39 1785.87 2871.45 1834.65 2847.75 1875.69C2808.55 1943.58 2704.54 1980.97 2554.86 1980.97L2554.85 1980.96Z" fill="#1C1C25"/>
<path d="M2505.94 1310.51C2500.62 1310.51 2495.4 1307.9 2492.29 1303.1C2487.41 1295.57 2489.56 1285.51 2497.09 1280.63C2575.95 1229.52 2583.76 1162.88 2557.65 1122.59C2543.76 1101.16 2521.06 1087.38 2493.71 1083.79C2461.38 1079.52 2425.04 1089.75 2388.66 1113.34C2381.13 1118.21 2371.07 1116.07 2366.19 1108.54C2361.31 1101.01 2363.46 1090.95 2370.99 1086.07C2464.24 1025.64 2549.2 1049.8 2584.93 1104.92C2604.08 1134.47 2608.76 1170.4 2598.11 1206.09C2586.55 1244.85 2557.73 1280.06 2514.78 1307.9C2512.05 1309.67 2508.98 1310.51 2505.96 1310.51H2505.94Z" fill="#1C1C25"/>
<g opacity="0.3">
<path d="M2391.99 1578.22C2367.34 1576.43 2351.78 1550.61 2362.1 1528.15C2489.76 1250.31 2277.82 1027.09 2277.82 1027.09L2286.04 1026.29C2452.77 1129.32 2560.81 1318.63 2550.66 1593.96C2575.69 1597.27 2599.49 1602.13 2621.91 1608.27C2553.78 1591.93 2453.45 1582.68 2392 1578.22H2391.99Z" fill="#1C1C25"/>
</g>
<g opacity="0.3">
<path d="M2554.85 1964.73H2526.8C2751.05 1939.56 2749.06 1665.64 2675.73 1626.54C2675.54 1626.45 2675.4 1626.35 2675.21 1626.26C2908.66 1721.31 2938.89 1964.73 2554.85 1964.73Z" fill="#1C1C25"/>
</g>
<g opacity="0.3">
<path d="M2525.58 1964.73H1372.43C1362.04 1964.4 1352.03 1963.79 1342.4 1963.03L1342.31 1962.98C1342.31 1962.98 1465.65 1773.16 1937.85 1873.88C1937.85 1873.88 2170.83 1902.97 2255.83 1856.93C2336.15 1813.49 2365.85 1956.47 2525.6 1964.73H2525.58Z" fill="#1C1C25"/>
</g>
<path d="M2578.18 1964.4C2570.58 1964.64 2562.79 1964.73 2554.85 1964.73C2563.77 1964.3 2571.52 1964.21 2578.18 1964.4Z" fill="#7A2938"/>
<path d="M2554.85 1967.23L2554.73 1962.23C2563.44 1961.81 2571.35 1961.71 2578.25 1961.9V1966.9C2571.11 1967.12 2563.46 1967.23 2554.85 1967.23Z" fill="#1C1C25"/>
<g opacity="0.3">
<path d="M2505.93 1294.26L2446.43 1202.46L2439.25 1169.36C2490.06 1206.9 2556.17 1135.22 2541.57 1084.18C2603.95 1124.46 2612.12 1225.46 2505.92 1294.26H2505.93Z" fill="#1C1C25"/>
</g>
<path d="M865.16 426.443C865.11 426.163 865.48 424.943 865.43 424.663C868.68 414.863 871.42 408.903 874.76 399.663C877.55 392.253 879.25 383.583 882.32 376.123C883.16 374.253 887.99 363.603 889.53 360.733C894.97 350.273 899.76 339.333 905.82 329.063C906.1 329.013 906.19 327.843 906.14 327.563C906.14 327.563 905.76 327.053 905.48 327.093C905.2 327.143 903.75 327.093 903.42 326.863C888.35 330.003 872.47 331.843 857.11 333.293C855.38 333.293 848.31 334.213 847.69 330.563L839.74 292.323C838.55 287.033 845.9 286.073 848.95 285.263L949.08 265.633C955.73 265.653 956.07 269.353 959.41 273.703C959.46 273.983 961.43 275.383 961.52 275.943C965.95 283.283 966.35 292.463 967.69 300.323C968.36 304.263 966.45 306.603 964.72 310.073C960.12 322.133 956.73 331.083 950.73 343.383C938.24 361.693 932.45 383.773 922.78 403.343C922.78 403.343 922.83 403.623 922.88 403.903C923.12 405.303 924.85 405.303 925.74 405.433C927.14 405.193 932.76 404.243 934.17 404.003C939.38 403.113 944.47 401.683 949.52 400.173C952.09 399.403 954.64 398.613 957.22 397.863C958.46 397.503 959.8 396.943 961.08 396.773C962.04 396.653 963.15 396.753 964.12 396.813C966.8 396.973 969.44 397.773 971.75 399.153C973.61 400.263 975.24 401.753 976.54 403.483C977.18 404.343 977.86 405.313 978.25 406.313C978.55 407.063 978.62 407.923 978.82 408.723C979.68 412.283 980.54 415.833 981.41 419.393C982.89 425.483 984.9 431.673 985.89 437.853C986.6 442.273 986.75 446.903 982.59 449.783C978.79 452.413 973.59 452.223 969.19 452.643C963.94 453.143 958.68 453.603 953.47 454.483C951.51 454.813 945.32 455.873 944.76 455.963C942.55 456.343 940.35 457.013 938.17 457.533C927.45 460.083 916.74 462.623 906.02 465.173C901.12 466.333 896.22 467.503 891.31 468.663C889.77 469.033 888.22 469.383 886.68 469.763C883.39 470.583 879.35 469.013 876.56 467.233C871.25 463.863 870.58 458.283 869.61 452.563C869.56 452.283 867.99 443.013 867.41 439.643C867.08 437.673 865.55 428.683 865.16 426.443Z" fill="white"/>
<path d="M1065.91 221.372C1065.97 221.172 1066.59 220.483 1066.65 220.273C1071.89 214.793 1075.58 211.713 1080.71 206.633C1084.89 202.593 1088.75 197.383 1093.13 193.403C1094.28 192.423 1100.83 186.882 1102.76 185.462C1109.66 180.232 1116.28 174.492 1123.53 169.582C1123.73 169.642 1124.16 168.892 1124.22 168.692C1124.22 168.692 1124.13 168.233 1123.93 168.173C1123.73 168.113 1122.78 167.632 1122.64 167.372C1111.65 164.712 1100.55 160.932 1089.91 157.062C1088.76 156.522 1083.78 154.903 1084.52 152.283L1091.29 124.423C1092.17 120.543 1097.34 122.213 1099.62 122.643L1172.2 141.143C1176.6 143.253 1175.67 145.812 1176.51 149.742C1176.45 149.942 1177.32 151.493 1177.21 151.893C1177.84 158.153 1175.22 164.373 1173.63 170.003C1172.84 172.823 1170.83 173.773 1168.59 175.533C1161.75 182.083 1156.68 186.952 1148.83 193.212C1134.78 201.422 1124 214.243 1111.42 224.173C1111.42 224.173 1111.36 224.372 1111.31 224.572C1111.03 225.582 1112.18 226.122 1112.73 226.492C1113.74 226.772 1117.76 227.912 1118.77 228.192C1122.5 229.242 1126.33 229.892 1130.15 230.482C1132.09 230.782 1134.04 231.062 1135.98 231.372C1136.92 231.522 1137.98 231.572 1138.88 231.872C1139.55 232.092 1140.26 232.512 1140.88 232.852C1142.61 233.802 1144.11 235.163 1145.2 236.803C1146.08 238.123 1146.7 239.622 1147.01 241.182C1147.17 241.952 1147.31 242.812 1147.25 243.602C1147.21 244.192 1146.99 244.792 1146.87 245.372C1146.32 248.002 1145.77 250.633 1145.23 253.263C1144.29 257.763 1143.68 262.503 1142.39 266.913C1141.47 270.063 1140.11 273.183 1136.44 273.783C1133.09 274.333 1129.71 272.572 1126.65 271.462C1123.01 270.142 1119.38 268.782 1115.65 267.732C1114.24 267.332 1109.81 266.082 1109.41 265.972C1107.83 265.522 1106.16 265.282 1104.55 264.932C1096.64 263.242 1088.73 261.562 1080.83 259.872C1077.21 259.102 1073.6 258.332 1069.98 257.562C1068.84 257.322 1067.7 257.062 1066.56 256.832C1064.12 256.342 1061.94 254.022 1060.64 251.972C1058.18 248.062 1059.5 244.153 1060.65 240.053C1060.71 239.853 1062.58 233.213 1063.26 230.793C1063.66 229.383 1065.47 222.942 1065.93 221.332L1065.91 221.372Z" fill="white"/>
<path d="M941.59 105.073C941.53 104.913 941.64 104.142 941.58 103.972C942.57 97.7625 943.64 93.9025 944.74 88.0225C945.69 83.2925 945.87 77.9125 946.98 73.1225C947.3 71.9125 949.17 65.0325 949.81 63.1625C952.06 56.3325 953.87 49.2925 956.51 42.5125C956.67 42.4525 956.61 41.7425 956.56 41.5825C956.56 41.5825 956.28 41.3125 956.12 41.3625C955.96 41.4125 955.08 41.5325 954.86 41.4225C946.1 44.7925 936.73 47.4525 927.63 49.8325C926.59 50.0025 922.42 51.2525 921.69 49.1125L913.16 26.8825C911.93 23.8125 916.25 22.5225 918.01 21.7325L976.33 0.112481C980.33 -0.527519 980.9 1.67251 983.34 3.95251C983.4 4.11251 984.72 4.76246 984.83 5.09246C988.21 9.07246 989.36 14.5525 990.93 19.1525C991.72 21.4525 990.8 23.0525 990.1 25.3125C988.51 33.0125 987.35 38.7425 984.95 46.7225C979.23 58.9625 977.91 72.8125 974.01 85.5325C974.01 85.5325 974.07 85.6925 974.12 85.8625C974.4 86.6825 975.44 86.5125 975.99 86.5025C976.81 86.2225 980.1 85.0925 980.92 84.8125C983.97 83.7725 986.89 82.4125 989.78 81.0025C991.25 80.2925 992.71 79.5625 994.18 78.8625C994.89 78.5225 995.64 78.0525 996.4 77.8325C996.96 77.6625 997.64 77.6225 998.23 77.5625C999.86 77.3925 1001.53 77.6225 1003.05 78.2225C1004.28 78.7125 1005.4 79.4425 1006.35 80.3625C1006.82 80.8125 1007.32 81.3325 1007.66 81.9025C1007.91 82.3225 1008.04 82.8325 1008.24 83.2925C1009.11 85.3425 1009.97 87.4025 1010.84 89.4525C1012.32 92.9725 1014.14 96.5025 1015.34 100.122C1016.2 102.712 1016.74 105.482 1014.52 107.622C1012.49 109.572 1009.35 109.973 1006.74 110.653C1003.63 111.463 1000.51 112.263 997.46 113.303C996.31 113.693 992.7 114.933 992.37 115.043C991.08 115.483 989.82 116.102 988.56 116.632C982.36 119.212 976.16 121.792 969.97 124.372L961.46 127.913C960.57 128.283 959.67 128.643 958.78 129.033C956.88 129.853 954.3 129.303 952.44 128.503C948.92 126.993 947.97 123.702 946.82 120.352C946.76 120.192 944.91 114.763 944.23 112.793C943.84 111.643 942.04 106.383 941.59 105.073Z" fill="white"/>
</svg>
